<svg xmlns="http://www.w3.org/2000/svg" version="1.1" xmlns:xlink="http://www.w3.org/1999/xlink" xmlns:svgjs="http://svgjs.dev/svgjs" width="2000" height="277" viewBox="0 0 2000 277"><g transform="matrix(1,0,0,1,-1.2121212121212466,-0.5719873243302516)"><svg viewBox="0 0 396 55" data-background-color="#ffffff" preserveAspectRatio="xMidYMid meet" height="277" width="2000" xmlns="http://www.w3.org/2000/svg" xmlns:xlink="http://www.w3.org/1999/xlink"><g id="tight-bounds" transform="matrix(1,0,0,1,0.2400000000000091,0.11357149039048409)"><svg viewBox="0 0 395.52 54.77285701921902" height="54.77285701921902" width="395.52"><g><svg viewBox="0 0 395.52 54.77285701921902" height="54.77285701921902" width="395.52"><g><svg viewBox="0 0 397.4975999999999 55.046721304315106" height="54.77285701921902" width="395.52"><g><svg viewBox="0 0 397.4975999999999 55.046721304315106" height="55.046721304315106" width="397.4975999999999"><g id="textblocktransform"><svg viewBox="0 0 397.4975999999999 55.046721304315106" height="55.046721304315106" width="397.4975999999999" id="textblock"><g><rect width="397.4975999999999" height="2.2264352701342167" x="0" y="27.31127361581656" fill="#001f3f" opacity="1" stroke-width="0" stroke="transparent" fill-opacity="1" class="rect-yte-0" data-fill-palette-color="primary" rx="1%" id="yte-0" data-palette-color="#001f3f"></rect></g><g transform="matrix(1,0,0,1,0.9887999999999693,0)"><svg viewBox="0 0 395.52 24.688509554140126" height="24.688509554140126" width="395.52"><g transform="matrix(1,0,0,1,0,0)"><svg width="395.52" viewBox="5.03 -43.07 689.9100000000001 42.39" height="24.688509554140126" data-palette-color="#001f3f"><path d="M7.96-0.68L7.96-0.68 17.04-0.68Q18.41-0.68 19.19-1.42 19.97-2.15 19.97-3.13 19.97-4.1 19.19-4.83 18.41-5.57 17.04-5.57L17.04-5.57 7.96-5.57Q6.59-5.57 5.81-4.83 5.03-4.1 5.03-3.13 5.03-2.15 5.81-1.42 6.59-0.68 7.96-0.68ZM32.96-0.68L32.96-0.68 42.04-0.68Q43.41-0.68 44.19-1.42 44.97-2.15 44.97-3.13 44.97-4.1 44.19-4.83 43.41-5.57 42.04-5.57L42.04-5.57 32.96-5.57Q31.59-5.57 30.81-4.83 30.03-4.1 30.03-3.13 30.03-2.15 30.81-1.42 31.59-0.68 32.96-0.68ZM7.96-6.93L7.96-6.93 17.04-6.93Q18.41-6.93 19.19-7.67 19.97-8.4 19.97-9.38 19.97-10.35 19.19-11.08 18.41-11.82 17.04-11.82L17.04-11.82 7.96-11.82Q6.59-11.82 5.81-11.08 5.03-10.35 5.03-9.38 5.03-8.4 5.81-7.67 6.59-6.93 7.96-6.93ZM32.96-6.93L32.96-6.93 42.04-6.93Q43.41-6.93 44.19-7.67 44.97-8.4 44.97-9.38 44.97-10.35 44.19-11.08 43.41-11.82 42.04-11.82L42.04-11.82 32.96-11.82Q31.59-11.82 30.81-11.08 30.03-10.35 30.03-9.38 30.03-8.4 30.81-7.67 31.59-6.93 32.96-6.93ZM7.96-13.18L7.96-13.18 17.04-13.18Q18.41-13.18 19.19-13.92 19.97-14.65 19.97-15.63 19.97-16.6 19.19-17.33 18.41-18.07 17.04-18.07L17.04-18.07 7.96-18.07Q6.59-18.07 5.81-17.33 5.03-16.6 5.03-15.63 5.03-14.65 5.81-13.92 6.59-13.18 7.96-13.18ZM32.96-13.18L32.96-13.18 42.04-13.18Q43.41-13.18 44.19-13.92 44.97-14.65 44.97-15.63 44.97-16.6 44.19-17.33 43.41-18.07 42.04-18.07L42.04-18.07 32.96-18.07Q31.59-18.07 30.81-17.33 30.03-16.6 30.03-15.63 30.03-14.65 30.81-13.92 31.59-13.18 32.96-13.18ZM7.96-19.43L7.96-19.43 42.04-19.43Q43.41-19.43 44.19-20.17 44.97-20.9 44.97-21.88 44.97-22.85 44.19-23.58 43.41-24.32 42.04-24.32L42.04-24.32 7.96-24.32Q6.59-24.32 5.81-23.58 5.03-22.85 5.03-21.88 5.03-20.9 5.81-20.17 6.59-19.43 7.96-19.43ZM7.96-25.68L7.96-25.68 17.04-25.68Q18.41-25.68 19.19-26.42 19.97-27.15 19.97-28.13 19.97-29.1 19.19-29.83 18.41-30.57 17.04-30.57L17.04-30.57 7.96-30.57Q6.59-30.57 5.81-29.83 5.03-29.1 5.03-28.13 5.03-27.15 5.81-26.42 6.59-25.68 7.96-25.68ZM32.96-25.68L32.96-25.68 42.04-25.68Q43.41-25.68 44.19-26.42 44.97-27.15 44.97-28.13 44.97-29.1 44.19-29.83 43.41-30.57 42.04-30.57L42.04-30.57 32.96-30.57Q31.59-30.57 30.81-29.83 30.03-29.1 30.03-28.13 30.03-27.15 30.81-26.42 31.59-25.68 32.96-25.68ZM14.21-31.93L14.21-31.93 35.79-31.93Q37.16-31.93 37.94-32.67 38.72-33.4 38.72-34.38 38.72-35.35 37.94-36.08 37.16-36.82 35.79-36.82L35.79-36.82 14.21-36.82Q12.84-36.82 12.06-36.08 11.28-35.35 11.28-34.38 11.28-33.4 12.06-32.67 12.84-31.93 14.21-31.93ZM20.46-38.18L20.46-38.18 29.54-38.18Q30.91-38.18 31.69-38.92 32.47-39.65 32.47-40.63 32.47-41.6 31.69-42.33 30.91-43.07 29.54-43.07L29.54-43.07 20.46-43.07Q19.09-43.07 18.31-42.33 17.53-41.6 17.53-40.63 17.53-39.65 18.31-38.92 19.09-38.18 20.46-38.18ZM76.71-0.68L76.71-0.68 92.04-0.68Q93.41-0.68 94.19-1.42 94.97-2.15 94.97-3.13 94.97-4.1 94.19-4.83 93.41-5.57 92.04-5.57L92.04-5.57 76.71-5.57Q75.34-5.57 74.56-4.83 73.78-4.1 73.78-3.13 73.78-2.15 74.56-1.42 75.34-0.68 76.71-0.68ZM70.46-6.93L70.46-6.93 79.54-6.93Q80.91-6.93 81.69-7.67 82.47-8.4 82.47-9.38 82.47-10.35 81.69-11.08 80.91-11.82 79.54-11.82L79.54-11.82 70.46-11.82Q69.09-11.82 68.31-11.08 67.53-10.35 67.53-9.38 67.53-8.4 68.31-7.67 69.09-6.93 70.46-6.93ZM70.46-13.18L70.46-13.18 79.54-13.18Q80.91-13.18 81.69-13.92 82.47-14.65 82.47-15.63 82.47-16.6 81.69-17.33 80.91-18.07 79.54-18.07L79.54-18.07 70.46-18.07Q69.09-18.07 68.31-17.33 67.53-16.6 67.53-15.63 67.53-14.65 68.31-13.92 69.09-13.18 70.46-13.18ZM70.46-19.43L70.46-19.43 79.54-19.43Q80.91-19.43 81.69-20.17 82.47-20.9 82.47-21.88 82.47-22.85 81.69-23.58 80.91-24.32 79.54-24.32L79.54-24.32 70.46-24.32Q69.09-24.32 68.31-23.58 67.53-22.85 67.53-21.88 67.53-20.9 68.31-20.17 69.09-19.43 70.46-19.43ZM57.96-25.68L57.96-25.68 92.04-25.68Q93.41-25.68 94.19-26.42 94.97-27.15 94.97-28.13 94.97-29.1 94.19-29.83 93.41-30.57 92.04-30.57L92.04-30.57 57.96-30.57Q56.59-30.57 55.81-29.83 55.03-29.1 55.03-28.13 55.03-27.15 55.81-26.42 56.59-25.68 57.96-25.68ZM70.46-31.93L70.46-31.93 79.54-31.93Q80.91-31.93 81.69-32.67 82.47-33.4 82.47-34.38 82.47-35.35 81.69-36.08 80.91-36.82 79.54-36.82L79.54-36.82 70.46-36.82Q69.09-36.82 68.31-36.08 67.53-35.35 67.53-34.38 67.53-33.4 68.31-32.67 69.09-31.93 70.46-31.93ZM107.95-0.68L107.95-0.68 117.04-0.68Q118.4-0.68 119.18-1.42 119.97-2.15 119.97-3.13 119.97-4.1 119.18-4.83 118.4-5.57 117.04-5.57L117.04-5.57 107.95-5.57Q106.59-5.57 105.81-4.83 105.02-4.1 105.02-3.13 105.02-2.15 105.81-1.42 106.59-0.68 107.95-0.68ZM132.95-0.68L132.95-0.68 142.04-0.68Q143.4-0.68 144.18-1.42 144.97-2.15 144.97-3.13 144.97-4.1 144.18-4.83 143.4-5.57 142.04-5.57L142.04-5.57 132.95-5.57Q131.59-5.57 130.81-4.83 130.02-4.1 130.02-3.13 130.02-2.15 130.81-1.42 131.59-0.68 132.95-0.68ZM107.95-6.93L107.95-6.93 117.04-6.93Q118.4-6.93 119.18-7.67 119.97-8.4 119.97-9.38 119.97-10.35 119.18-11.08 118.4-11.82 117.04-11.82L117.04-11.82 107.95-11.82Q106.59-11.82 105.81-11.08 105.02-10.35 105.02-9.38 105.02-8.4 105.81-7.67 106.59-6.93 107.95-6.93ZM132.95-6.93L132.95-6.93 142.04-6.93Q143.4-6.93 144.18-7.67 144.97-8.4 144.97-9.38 144.97-10.35 144.18-11.08 143.4-11.82 142.04-11.82L142.04-11.82 132.95-11.82Q131.59-11.82 130.81-11.08 130.02-10.35 130.02-9.38 130.02-8.4 130.81-7.67 131.59-6.93 132.95-6.93ZM107.95-13.18L107.95-13.18 117.04-13.18Q118.4-13.18 119.18-13.92 119.97-14.65 119.97-15.63 119.97-16.6 119.18-17.33 118.4-18.07 117.04-18.07L117.04-18.07 107.95-18.07Q106.59-18.07 105.81-17.33 105.02-16.6 105.02-15.63 105.02-14.65 105.81-13.92 106.59-13.18 107.95-13.18ZM132.95-13.18L132.95-13.18 142.04-13.18Q143.4-13.18 144.18-13.92 144.97-14.65 144.97-15.63 144.97-16.6 144.18-17.33 143.4-18.07 142.04-18.07L142.04-18.07 132.95-18.07Q131.59-18.07 130.81-17.33 130.02-16.6 130.02-15.63 130.02-14.65 130.81-13.92 131.59-13.18 132.95-13.18ZM107.95-19.43L107.95-19.43 135.79-19.43Q137.15-19.43 137.93-20.17 138.72-20.9 138.72-21.88 138.72-22.85 137.93-23.58 137.15-24.32 135.79-24.32L135.79-24.32 107.95-24.32Q106.59-24.32 105.81-23.58 105.02-22.85 105.02-21.88 105.02-20.9 105.81-20.17 106.59-19.43 107.95-19.43ZM107.95-25.68L107.95-25.68 117.04-25.68Q118.4-25.68 119.18-26.42 119.97-27.15 119.97-28.13 119.97-29.1 119.18-29.83 118.4-30.57 117.04-30.57L117.04-30.57 107.95-30.57Q106.59-30.57 105.81-29.83 105.02-29.1 105.02-28.13 105.02-27.15 105.81-26.42 106.59-25.68 107.95-25.68ZM107.95-31.93L107.95-31.93 117.04-31.93Q118.4-31.93 119.18-32.67 119.97-33.4 119.97-34.38 119.97-35.35 119.18-36.08 118.4-36.82 117.04-36.82L117.04-36.82 107.95-36.82Q106.59-36.82 105.81-36.08 105.02-35.35 105.02-34.38 105.02-33.4 105.81-32.67 106.59-31.93 107.95-31.93ZM164.2-0.68L164.2-0.68 185.78-0.68Q187.15-0.68 187.93-1.42 188.71-2.15 188.71-3.13 188.71-4.1 187.93-4.83 187.15-5.57 185.78-5.57L185.78-5.57 164.2-5.57Q162.83-5.57 162.05-4.83 161.27-4.1 161.27-3.13 161.27-2.15 162.05-1.42 162.83-0.68 164.2-0.68ZM157.95-6.93L157.95-6.93 167.03-6.93Q168.4-6.93 169.18-7.67 169.96-8.4 169.96-9.38 169.96-10.35 169.18-11.08 168.4-11.82 167.03-11.82L167.03-11.82 157.95-11.82Q156.58-11.82 155.8-11.08 155.02-10.35 155.02-9.38 155.02-8.4 155.8-7.67 156.58-6.93 157.95-6.93ZM157.95-13.18L157.95-13.18 192.03-13.18Q193.4-13.18 194.18-13.92 194.96-14.65 194.96-15.63 194.96-16.6 194.18-17.33 193.4-18.07 192.03-18.07L192.03-18.07 157.95-18.07Q156.58-18.07 155.8-17.33 155.02-16.6 155.02-15.63 155.02-14.65 155.8-13.92 156.58-13.18 157.95-13.18ZM157.95-19.43L157.95-19.43 167.03-19.43Q168.4-19.43 169.18-20.17 169.96-20.9 169.96-21.88 169.96-22.85 169.18-23.58 168.4-24.32 167.03-24.32L167.03-24.32 157.95-24.32Q156.58-24.32 155.8-23.58 155.02-22.85 155.02-21.88 155.02-20.9 155.8-20.17 156.58-19.43 157.95-19.43ZM182.95-19.43L182.95-19.43 192.03-19.43Q193.4-19.43 194.18-20.17 194.96-20.9 194.96-21.88 194.96-22.85 194.18-23.58 193.4-24.32 192.03-24.32L192.03-24.32 182.95-24.32Q181.58-24.32 180.8-23.58 180.02-22.85 180.02-21.88 180.02-20.9 180.8-20.17 181.58-19.43 182.95-19.43ZM164.2-25.68L164.2-25.68 185.78-25.68Q187.15-25.68 187.93-26.42 188.71-27.15 188.71-28.13 188.71-29.1 187.93-29.83 187.15-30.57 185.78-30.57L185.78-30.57 164.2-30.57Q162.83-30.57 162.05-29.83 161.27-29.1 161.27-28.13 161.27-27.15 162.05-26.42 162.83-25.68 164.2-25.68ZM207.95-0.68L207.95-0.68 217.03-0.68Q218.4-0.68 219.18-1.42 219.96-2.15 219.96-3.13 219.96-4.1 219.18-4.83 218.4-5.57 217.03-5.57L217.03-5.57 207.95-5.57Q206.58-5.57 205.8-4.83 205.02-4.1 205.02-3.13 205.02-2.15 205.8-1.42 206.58-0.68 207.95-0.68ZM232.95-0.68L232.95-0.68 242.03-0.68Q243.4-0.68 244.18-1.42 244.96-2.15 244.96-3.13 244.96-4.1 244.18-4.83 243.4-5.57 242.03-5.57L242.03-5.57 232.95-5.57Q231.58-5.57 230.8-4.83 230.02-4.1 230.02-3.13 230.02-2.15 230.8-1.42 231.58-0.68 232.95-0.68ZM207.95-6.93L207.95-6.93 217.03-6.93Q218.4-6.93 219.18-7.67 219.96-8.4 219.96-9.38 219.96-10.35 219.18-11.08 218.4-11.82 217.03-11.82L217.03-11.82 207.95-11.82Q206.58-11.82 205.8-11.08 205.02-10.35 205.02-9.38 205.02-8.4 205.8-7.67 206.58-6.93 207.95-6.93ZM232.95-6.93L232.95-6.93 242.03-6.93Q243.4-6.93 244.18-7.67 244.96-8.4 244.96-9.38 244.96-10.35 244.18-11.08 243.4-11.82 242.03-11.82L242.03-11.82 232.95-11.82Q231.58-11.82 230.8-11.08 230.02-10.35 230.02-9.38 230.02-8.4 230.8-7.67 231.58-6.93 232.95-6.93ZM207.95-13.18L207.95-13.18 217.03-13.18Q218.4-13.18 219.18-13.92 219.96-14.65 219.96-15.63 219.96-16.6 219.18-17.33 218.4-18.07 217.03-18.07L217.03-18.07 207.95-18.07Q206.58-18.07 205.8-17.33 205.02-16.6 205.02-15.63 205.02-14.65 205.8-13.92 206.58-13.18 207.95-13.18ZM232.95-13.18L232.95-13.18 242.03-13.18Q243.4-13.18 244.18-13.92 244.96-14.65 244.96-15.63 244.96-16.6 244.18-17.33 243.4-18.07 242.03-18.07L242.03-18.07 232.95-18.07Q231.58-18.07 230.8-17.33 230.02-16.6 230.02-15.63 230.02-14.65 230.8-13.92 231.58-13.18 232.95-13.18ZM207.95-19.43L207.95-19.43 217.03-19.43Q218.4-19.43 219.18-20.17 219.96-20.9 219.96-21.88 219.96-22.85 219.18-23.58 218.4-24.32 217.03-24.32L217.03-24.32 207.95-24.32Q206.58-24.32 205.8-23.58 205.02-22.85 205.02-21.88 205.02-20.9 205.8-20.17 206.58-19.43 207.95-19.43ZM232.95-19.43L232.95-19.43 242.03-19.43Q243.4-19.43 244.18-20.17 244.96-20.9 244.96-21.88 244.96-22.85 244.18-23.58 243.4-24.32 242.03-24.32L242.03-24.32 232.95-24.32Q231.58-24.32 230.8-23.58 230.02-22.85 230.02-21.88 230.02-20.9 230.8-20.17 231.58-19.43 232.95-19.43ZM207.95-25.68L207.95-25.68 235.78-25.68Q237.15-25.68 237.93-26.42 238.71-27.15 238.71-28.13 238.71-29.1 237.93-29.83 237.15-30.57 235.78-30.57L235.78-30.57 207.95-30.57Q206.58-30.57 205.8-29.83 205.02-29.1 205.02-28.13 205.02-27.15 205.8-26.42 206.58-25.68 207.95-25.68ZM264.2-0.68L264.2-0.68 292.03-0.68Q293.4-0.68 294.18-1.42 294.96-2.15 294.96-3.13 294.96-4.1 294.18-4.83 293.4-5.57 292.03-5.57L292.03-5.57 264.2-5.57Q262.83-5.57 262.05-4.83 261.27-4.1 261.27-3.13 261.27-2.15 262.05-1.42 262.83-0.68 264.2-0.68ZM257.95-6.93L257.95-6.93 267.03-6.93Q268.4-6.93 269.18-7.67 269.96-8.4 269.96-9.38 269.96-10.35 269.18-11.08 268.4-11.82 267.03-11.82L267.03-11.82 257.95-11.82Q256.58-11.82 255.8-11.08 255.02-10.35 255.02-9.38 255.02-8.4 255.8-7.67 256.58-6.93 257.95-6.93ZM282.95-6.93L282.95-6.93 292.03-6.93Q293.4-6.93 294.18-7.67 294.96-8.4 294.96-9.38 294.96-10.35 294.18-11.08 293.4-11.82 292.03-11.82L292.03-11.82 282.95-11.82Q281.58-11.82 280.8-11.08 280.02-10.35 280.02-9.38 280.02-8.4 280.8-7.67 281.58-6.93 282.95-6.93ZM264.2-13.18L264.2-13.18 292.03-13.18Q293.4-13.18 294.18-13.92 294.96-14.65 294.96-15.63 294.96-16.6 294.18-17.33 293.4-18.07 292.03-18.07L292.03-18.07 264.2-18.07Q262.83-18.07 262.05-17.33 261.27-16.6 261.27-15.63 261.27-14.65 262.05-13.92 262.83-13.18 264.2-13.18ZM282.95-19.43L282.95-19.43 292.03-19.43Q293.4-19.43 294.18-20.17 294.96-20.9 294.96-21.88 294.96-22.85 294.18-23.58 293.4-24.32 292.03-24.32L292.03-24.32 282.95-24.32Q281.58-24.32 280.8-23.58 280.02-22.85 280.02-21.88 280.02-20.9 280.8-20.17 281.58-19.43 282.95-19.43ZM264.2-25.68L264.2-25.68 285.78-25.68Q287.15-25.68 287.93-26.42 288.71-27.15 288.71-28.13 288.71-29.1 287.93-29.83 287.15-30.57 285.78-30.57L285.78-30.57 264.2-30.57Q262.83-30.57 262.05-29.83 261.27-29.1 261.27-28.13 261.27-27.15 262.05-26.42 262.83-25.68 264.2-25.68ZM357.94-0.68L357.94-0.68 367.02-0.68Q368.39-0.68 369.17-1.42 369.95-2.15 369.95-3.13 369.95-4.1 369.17-4.83 368.39-5.57 367.02-5.57L367.02-5.57 357.94-5.57Q356.57-5.57 355.79-4.83 355.01-4.1 355.01-3.13 355.01-2.15 355.79-1.42 356.57-0.68 357.94-0.68ZM357.94-6.93L357.94-6.93 367.02-6.93Q368.39-6.93 369.17-7.67 369.95-8.4 369.95-9.38 369.95-10.35 369.17-11.08 368.39-11.82 367.02-11.82L367.02-11.82 357.94-11.82Q356.57-11.82 355.79-11.08 355.01-10.35 355.01-9.38 355.01-8.4 355.79-7.67 356.57-6.93 357.94-6.93ZM357.94-13.18L357.94-13.18 367.02-13.18Q368.39-13.18 369.17-13.92 369.95-14.65 369.95-15.63 369.95-16.6 369.17-17.33 368.39-18.07 367.02-18.07L367.02-18.07 357.94-18.07Q356.57-18.07 355.79-17.33 355.01-16.6 355.01-15.63 355.01-14.65 355.79-13.92 356.57-13.18 357.94-13.18ZM357.94-19.43L357.94-19.43 385.77-19.43Q387.14-19.43 387.92-20.17 388.7-20.9 388.7-21.88 388.7-22.85 387.92-23.58 387.14-24.32 385.77-24.32L385.77-24.32 357.94-24.32Q356.57-24.32 355.79-23.58 355.01-22.85 355.01-21.88 355.01-20.9 355.79-20.17 356.57-19.43 357.94-19.43ZM357.94-25.68L357.94-25.68 367.02-25.68Q368.39-25.68 369.17-26.42 369.95-27.15 369.95-28.13 369.95-29.1 369.17-29.83 368.39-30.57 367.02-30.57L367.02-30.57 357.94-30.57Q356.57-30.57 355.79-29.83 355.01-29.1 355.01-28.13 355.01-27.15 355.79-26.42 356.57-25.68 357.94-25.68ZM382.94-25.68L382.94-25.68 392.02-25.68Q393.39-25.68 394.17-26.42 394.95-27.15 394.95-28.13 394.95-29.1 394.17-29.83 393.39-30.57 392.02-30.57L392.02-30.57 382.94-30.57Q381.57-30.57 380.79-29.83 380.01-29.1 380.01-28.13 380.01-27.15 380.79-26.42 381.57-25.68 382.94-25.68ZM357.94-31.93L357.94-31.93 367.02-31.93Q368.39-31.93 369.17-32.67 369.95-33.4 369.95-34.38 369.95-35.35 369.17-36.08 368.39-36.82 367.02-36.82L367.02-36.82 357.94-36.82Q356.57-36.82 355.79-36.08 355.01-35.35 355.01-34.38 355.01-33.4 355.79-32.67 356.57-31.93 357.94-31.93ZM382.94-31.93L382.94-31.93 392.02-31.93Q393.39-31.93 394.17-32.67 394.95-33.4 394.95-34.38 394.95-35.35 394.17-36.08 393.39-36.82 392.02-36.82L392.02-36.82 382.94-36.82Q381.57-36.82 380.79-36.08 380.01-35.35 380.01-34.38 380.01-33.4 380.79-32.67 381.57-31.93 382.94-31.93ZM357.94-38.18L357.94-38.18 385.77-38.18Q387.14-38.18 387.92-38.92 388.7-39.65 388.7-40.63 388.7-41.6 387.92-42.33 387.14-43.07 385.77-43.07L385.77-43.07 357.94-43.07Q356.57-43.07 355.79-42.33 355.01-41.6 355.01-40.63 355.01-39.65 355.79-38.92 356.57-38.18 357.94-38.18ZM407.94-0.68L407.94-0.68 417.02-0.68Q418.39-0.68 419.17-1.42 419.95-2.15 419.95-3.13 419.95-4.1 419.17-4.83 418.39-5.57 417.02-5.57L417.02-5.57 407.94-5.57Q406.57-5.57 405.79-4.83 405.01-4.1 405.01-3.13 405.01-2.15 405.79-1.42 406.57-0.68 407.94-0.68ZM407.94-6.93L407.94-6.93 417.02-6.93Q418.39-6.93 419.17-7.67 419.95-8.4 419.95-9.38 419.95-10.35 419.17-11.08 418.39-11.82 417.02-11.82L417.02-11.82 407.94-11.82Q406.57-11.82 405.79-11.08 405.01-10.35 405.01-9.38 405.01-8.4 405.79-7.67 406.57-6.93 407.94-6.93ZM407.94-13.18L407.94-13.18 417.02-13.18Q418.39-13.18 419.17-13.92 419.95-14.65 419.95-15.63 419.95-16.6 419.17-17.33 418.39-18.07 417.02-18.07L417.02-18.07 407.94-18.07Q406.57-18.07 405.79-17.33 405.01-16.6 405.01-15.63 405.01-14.65 405.79-13.92 406.57-13.18 407.94-13.18ZM407.94-19.43L407.94-19.43 417.02-19.43Q418.39-19.43 419.17-20.17 419.95-20.9 419.95-21.88 419.95-22.85 419.17-23.58 418.39-24.32 417.02-24.32L417.02-24.32 407.94-24.32Q406.57-24.32 405.79-23.58 405.01-22.85 405.01-21.88 405.01-20.9 405.79-20.17 406.57-19.43 407.94-19.43ZM432.94-19.43L432.94-19.43 442.02-19.43Q443.39-19.43 444.17-20.17 444.95-20.9 444.95-21.88 444.95-22.85 444.17-23.58 443.39-24.32 442.02-24.32L442.02-24.32 432.94-24.32Q431.57-24.32 430.79-23.58 430.01-22.85 430.01-21.88 430.01-20.9 430.79-20.17 431.57-19.43 432.94-19.43ZM407.94-25.68L407.94-25.68 435.77-25.68Q437.14-25.68 437.92-26.42 438.7-27.15 438.7-28.13 438.7-29.1 437.92-29.83 437.14-30.57 435.77-30.57L435.77-30.57 407.94-30.57Q406.57-30.57 405.79-29.83 405.01-29.1 405.01-28.13 405.01-27.15 405.79-26.42 406.57-25.68 407.94-25.68ZM464.19-0.68L464.19-0.68 485.77-0.68Q487.14-0.68 487.92-1.42 488.7-2.15 488.7-3.13 488.7-4.1 487.92-4.83 487.14-5.57 485.77-5.57L485.77-5.57 464.19-5.57Q462.82-5.57 462.04-4.83 461.26-4.1 461.26-3.13 461.26-2.15 462.04-1.42 462.82-0.68 464.19-0.68ZM457.94-6.93L457.94-6.93 467.02-6.93Q468.39-6.93 469.17-7.67 469.95-8.4 469.95-9.38 469.95-10.35 469.17-11.08 468.39-11.82 467.02-11.82L467.02-11.82 457.94-11.82Q456.57-11.82 455.79-11.08 455.01-10.35 455.01-9.38 455.01-8.4 455.79-7.67 456.57-6.93 457.94-6.93ZM457.94-13.18L457.94-13.18 492.02-13.18Q493.39-13.18 494.17-13.92 494.95-14.65 494.95-15.63 494.95-16.6 494.17-17.33 493.39-18.07 492.02-18.07L492.02-18.07 457.94-18.07Q456.57-18.07 455.79-17.33 455.01-16.6 455.01-15.63 455.01-14.65 455.79-13.92 456.57-13.18 457.94-13.18ZM457.94-19.43L457.94-19.43 467.02-19.43Q468.39-19.43 469.17-20.17 469.95-20.9 469.95-21.88 469.95-22.85 469.17-23.58 468.39-24.32 467.02-24.32L467.02-24.32 457.94-24.32Q456.57-24.32 455.79-23.58 455.01-22.85 455.01-21.88 455.01-20.9 455.79-20.17 456.57-19.43 457.94-19.43ZM482.94-19.43L482.94-19.43 492.02-19.43Q493.39-19.43 494.17-20.17 494.95-20.9 494.95-21.88 494.95-22.85 494.17-23.58 493.39-24.32 492.02-24.32L492.02-24.32 482.94-24.32Q481.57-24.32 480.79-23.58 480.01-22.85 480.01-21.88 480.01-20.9 480.79-20.17 481.57-19.43 482.94-19.43ZM464.19-25.68L464.19-25.68 485.77-25.68Q487.14-25.68 487.92-26.42 488.7-27.15 488.7-28.13 488.7-29.1 487.92-29.83 487.14-30.57 485.77-30.57L485.77-30.57 464.19-30.57Q462.82-30.57 462.04-29.83 461.26-29.1 461.26-28.13 461.26-27.15 462.04-26.42 462.82-25.68 464.19-25.68ZM507.93-0.68L507.93-0.68 535.77-0.68Q537.13-0.68 537.91-1.42 538.7-2.15 538.7-3.13 538.7-4.1 537.91-4.83 537.13-5.57 535.77-5.57L535.77-5.57 507.93-5.57Q506.57-5.57 505.79-4.83 505-4.1 505-3.13 505-2.15 505.79-1.42 506.57-0.68 507.93-0.68ZM532.93-6.93L532.93-6.93 542.02-6.93Q543.38-6.93 544.16-7.67 544.95-8.4 544.95-9.38 544.95-10.35 544.16-11.08 543.38-11.82 542.02-11.82L542.02-11.82 532.93-11.82Q531.57-11.82 530.79-11.08 530-10.35 530-9.38 530-8.4 530.79-7.67 531.57-6.93 532.93-6.93ZM514.18-13.18L514.18-13.18 535.77-13.18Q537.13-13.18 537.91-13.92 538.7-14.65 538.7-15.63 538.7-16.6 537.91-17.33 537.13-18.07 535.77-18.07L535.77-18.07 514.18-18.07Q512.82-18.07 512.04-17.33 511.25-16.6 511.25-15.63 511.25-14.65 512.04-13.92 512.82-13.18 514.18-13.18ZM507.93-19.43L507.93-19.43 517.02-19.43Q518.38-19.43 519.16-20.17 519.95-20.9 519.95-21.88 519.95-22.85 519.16-23.58 518.38-24.32 517.02-24.32L517.02-24.32 507.93-24.32Q506.57-24.32 505.79-23.58 505-22.85 505-21.88 505-20.9 505.79-20.17 506.57-19.43 507.93-19.43ZM514.18-25.68L514.18-25.68 542.02-25.68Q543.38-25.68 544.16-26.42 544.95-27.15 544.95-28.13 544.95-29.1 544.16-29.83 543.38-30.57 542.02-30.57L542.02-30.57 514.18-30.57Q512.82-30.57 512.04-29.83 511.25-29.1 511.25-28.13 511.25-27.15 512.04-26.42 512.82-25.68 514.18-25.68ZM564.18-0.68L564.18-0.68 592.01-0.68Q593.38-0.68 594.16-1.42 594.94-2.15 594.94-3.13 594.94-4.1 594.16-4.83 593.38-5.57 592.01-5.57L592.01-5.57 564.18-5.57Q562.81-5.57 562.03-4.83 561.25-4.1 561.25-3.13 561.25-2.15 562.03-1.42 562.81-0.68 564.18-0.68ZM557.93-6.93L557.93-6.93 567.01-6.93Q568.38-6.93 569.16-7.67 569.94-8.4 569.94-9.38 569.94-10.35 569.16-11.08 568.38-11.82 567.01-11.82L567.01-11.82 557.93-11.82Q556.56-11.82 555.78-11.08 555-10.35 555-9.38 555-8.4 555.78-7.67 556.56-6.93 557.93-6.93ZM582.93-6.93L582.93-6.93 592.01-6.93Q593.38-6.93 594.16-7.67 594.94-8.4 594.94-9.38 594.94-10.35 594.16-11.08 593.38-11.82 592.01-11.82L592.01-11.82 582.93-11.82Q581.56-11.82 580.78-11.08 580-10.35 580-9.38 580-8.4 580.78-7.67 581.56-6.93 582.93-6.93ZM564.18-13.18L564.18-13.18 592.01-13.18Q593.38-13.18 594.16-13.92 594.94-14.65 594.94-15.63 594.94-16.6 594.16-17.33 593.38-18.07 592.01-18.07L592.01-18.07 564.18-18.07Q562.81-18.07 562.03-17.33 561.25-16.6 561.25-15.63 561.25-14.65 562.03-13.92 562.81-13.18 564.18-13.18ZM582.93-19.43L582.93-19.43 592.01-19.43Q593.38-19.43 594.16-20.17 594.94-20.9 594.94-21.88 594.94-22.85 594.16-23.58 593.38-24.32 592.01-24.32L592.01-24.32 582.93-24.32Q581.56-24.32 580.78-23.58 580-22.85 580-21.88 580-20.9 580.78-20.17 581.56-19.43 582.93-19.43ZM564.18-25.68L564.18-25.68 585.76-25.68Q587.13-25.68 587.91-26.42 588.69-27.15 588.69-28.13 588.69-29.1 587.91-29.83 587.13-30.57 585.76-30.57L585.76-30.57 564.18-30.57Q562.81-30.57 562.03-29.83 561.25-29.1 561.25-28.13 561.25-27.15 562.03-26.42 562.81-25.68 564.18-25.68ZM614.18-0.68L614.18-0.68 635.76-0.68Q637.13-0.68 637.91-1.42 638.69-2.15 638.69-3.13 638.69-4.1 637.91-4.83 637.13-5.57 635.76-5.57L635.76-5.57 614.18-5.57Q612.81-5.57 612.03-4.83 611.25-4.1 611.25-3.13 611.25-2.15 612.03-1.42 612.81-0.68 614.18-0.68ZM620.43-6.93L620.43-6.93 629.51-6.93Q630.88-6.93 631.66-7.67 632.44-8.4 632.44-9.38 632.44-10.35 631.66-11.08 630.88-11.82 629.51-11.82L629.51-11.82 620.43-11.82Q619.06-11.82 618.28-11.08 617.5-10.35 617.5-9.38 617.5-8.4 618.28-7.67 619.06-6.93 620.43-6.93ZM620.43-13.18L620.43-13.18 629.51-13.18Q630.88-13.18 631.66-13.92 632.44-14.65 632.44-15.63 632.44-16.6 631.66-17.33 630.88-18.07 629.51-18.07L629.51-18.07 620.43-18.07Q619.06-18.07 618.28-17.33 617.5-16.6 617.5-15.63 617.5-14.65 618.28-13.92 619.06-13.18 620.43-13.18ZM620.43-19.43L620.43-19.43 629.51-19.43Q630.88-19.43 631.66-20.17 632.44-20.9 632.44-21.88 632.44-22.85 631.66-23.58 630.88-24.32 629.51-24.32L629.51-24.32 620.43-24.32Q619.06-24.32 618.28-23.58 617.5-22.85 617.5-21.88 617.5-20.9 618.28-20.17 619.06-19.43 620.43-19.43ZM620.43-25.68L620.43-25.68 629.51-25.68Q630.88-25.68 631.66-26.42 632.44-27.15 632.44-28.13 632.44-29.1 631.66-29.83 630.88-30.57 629.51-30.57L629.51-30.57 620.43-30.57Q619.06-30.57 618.28-29.83 617.5-29.1 617.5-28.13 617.5-27.15 618.28-26.42 619.06-25.68 620.43-25.68ZM614.18-31.93L614.18-31.93 629.51-31.93Q630.88-31.93 631.66-32.67 632.44-33.4 632.44-34.38 632.44-35.35 631.66-36.08 630.88-36.82 629.51-36.82L629.51-36.82 614.18-36.82Q612.81-36.82 612.03-36.08 611.25-35.35 611.25-34.38 611.25-33.4 612.03-32.67 612.81-31.93 614.18-31.93ZM664.18-0.68L664.18-0.68 685.76-0.68Q687.13-0.68 687.91-1.42 688.69-2.15 688.69-3.13 688.69-4.1 687.91-4.83 687.13-5.57 685.76-5.57L685.76-5.57 664.18-5.57Q662.81-5.57 662.03-4.83 661.25-4.1 661.25-3.13 661.25-2.15 662.03-1.42 662.81-0.68 664.18-0.68ZM657.93-6.93L657.93-6.93 667.01-6.93Q668.38-6.93 669.16-7.67 669.94-8.4 669.94-9.38 669.94-10.35 669.16-11.08 668.38-11.82 667.01-11.82L667.01-11.82 657.93-11.82Q656.56-11.82 655.78-11.08 655-10.35 655-9.38 655-8.4 655.78-7.67 656.56-6.93 657.93-6.93ZM657.93-13.18L657.93-13.18 692.01-13.18Q693.38-13.18 694.16-13.92 694.94-14.65 694.94-15.63 694.94-16.6 694.16-17.33 693.38-18.07 692.01-18.07L692.01-18.07 657.93-18.07Q656.56-18.07 655.78-17.33 655-16.6 655-15.63 655-14.65 655.78-13.92 656.56-13.18 657.93-13.18ZM657.93-19.43L657.93-19.43 667.01-19.43Q668.38-19.43 669.16-20.17 669.94-20.9 669.94-21.88 669.94-22.85 669.16-23.58 668.38-24.32 667.01-24.32L667.01-24.32 657.93-24.32Q656.56-24.32 655.78-23.58 655-22.85 655-21.88 655-20.9 655.78-20.17 656.56-19.43 657.93-19.43ZM682.93-19.43L682.93-19.43 692.01-19.43Q693.38-19.43 694.16-20.17 694.94-20.9 694.94-21.88 694.94-22.85 694.16-23.58 693.38-24.32 692.01-24.32L692.01-24.32 682.93-24.32Q681.56-24.32 680.78-23.58 680-22.85 680-21.88 680-20.9 680.78-20.17 681.56-19.43 682.93-19.43ZM664.18-25.68L664.18-25.68 685.76-25.68Q687.13-25.68 687.91-26.42 688.69-27.15 688.69-28.13 688.69-29.1 687.91-29.83 687.13-30.57 685.76-30.57L685.76-30.57 664.18-30.57Q662.81-30.57 662.03-29.83 661.25-29.1 661.25-28.13 661.25-27.15 662.03-26.42 662.81-25.68 664.18-25.68Z" opacity="1" transform="matrix(1,0,0,1,0,0)" fill="#001f3f" class="wordmark-text-0" data-fill-palette-color="primary" id="text-0"></path></svg></g></svg></g><g transform="matrix(1,0,0,1,0,32.16047294762721)"><svg viewBox="0 0 395.52 22.886248356687894" height="22.886248356687894" width="395.52"><g transform="matrix(1,0,0,1,0,0)"><svg width="395.52" viewBox="3 -39.65 832.99 48.2" height="22.886248356687894" data-palette-color="#071fe5"><path d="M3-34.55L9.35-34.55 9.35 0 3 0 3-34.55ZM28.23-27.15Q31.08-27.15 32.73-25.1 34.38-23.05 34.38-19.6L34.38-19.6 34.38 0 28.23 0 28.23-18.9Q28.23-20.8 27.71-21.63 27.18-22.45 26.18-22.45L26.18-22.45Q24.08-22.45 22.03-18.5L22.03-18.5 22.03 0 15.88 0 15.88-26.45 21.23-26.45 21.68-23Q23.03-25.1 24.56-26.13 26.08-27.15 28.23-27.15L28.23-27.15ZM53.02-26.45L59.07-26.45 52.17 0 44.92 0 37.82-26.45 44.17-26.45 48.52-4.95 53.02-26.45ZM81.5-13.85Q81.5-13.4 81.35-11.3L81.35-11.3 67.7-11.3Q67.9-7.2 69.12-5.58 70.35-3.95 72.6-3.95L72.6-3.95Q74.15-3.95 75.4-4.48 76.65-5 78.1-6.15L78.1-6.15 80.65-2.65Q77.15 0.75 72.25 0.75L72.25 0.75Q67.05 0.75 64.27-2.85 61.5-6.45 61.5-13L61.5-13Q61.5-19.55 64.15-23.35 66.8-27.15 71.65-27.15L71.65-27.15Q76.3-27.15 78.9-23.78 81.5-20.4 81.5-13.85L81.5-13.85ZM75.5-15.3L75.5-15.65Q75.5-19.4 74.6-21.13 73.7-22.85 71.7-22.85L71.7-22.85Q69.85-22.85 68.87-21.18 67.9-19.5 67.7-15.3L67.7-15.3 75.5-15.3ZM93.83-27.15Q98.53-27.15 101.78-24.05L101.78-24.05 99.43-20.7Q98.03-21.7 96.78-22.2 95.53-22.7 94.23-22.7L94.23-22.7Q92.78-22.7 91.96-21.93 91.13-21.15 91.13-19.8L91.13-19.8Q91.13-18.45 92.06-17.63 92.98-16.8 95.78-15.7L95.78-15.7Q99.23-14.35 100.88-12.5 102.53-10.65 102.53-7.55L102.53-7.55Q102.53-3.7 99.83-1.48 97.13 0.75 92.98 0.75L92.98 0.75Q90.28 0.75 88.01-0.23 85.73-1.2 84.03-2.95L84.03-2.95 87.03-6.25Q89.83-3.8 92.73-3.8L92.73-3.8Q94.38-3.8 95.33-4.67 96.28-5.55 96.28-7.1L96.28-7.1Q96.28-8.25 95.88-8.97 95.48-9.7 94.48-10.33 93.48-10.95 91.48-11.7L91.48-11.7Q88.03-13.05 86.56-14.85 85.08-16.65 85.08-19.45L85.08-19.45Q85.08-22.8 87.46-24.98 89.83-27.15 93.83-27.15L93.83-27.15ZM118.22-5L120.37-1.2Q117.92 0.75 114.62 0.75L114.62 0.75Q111.17 0.75 109.37-1.23 107.57-3.2 107.57-6.6L107.57-6.6 107.57-22 104.47-22 104.47-26.45 107.57-26.45 107.57-32.3 113.72-33.05 113.72-26.45 118.72-26.45 118.12-22 113.72-22 113.72-6.6Q113.72-4.2 115.77-4.2L115.77-4.2Q116.42-4.2 116.92-4.38 117.42-4.55 118.22-5L118.22-5ZM134.13-26.45L140.28-26.45 140.28 0 134.13 0 134.13-26.45ZM137.18-39.65Q138.83-39.65 139.86-38.6 140.88-37.55 140.88-35.9L140.88-35.9Q140.88-34.3 139.86-33.25 138.83-32.2 137.18-32.2L137.18-32.2Q135.53-32.2 134.51-33.25 133.48-34.3 133.48-35.9L133.48-35.9Q133.48-37.55 134.51-38.6 135.53-39.65 137.18-39.65L137.18-39.65ZM159.02-27.15Q161.87-27.15 163.52-25.1 165.17-23.05 165.17-19.6L165.17-19.6 165.17 0 159.02 0 159.02-18.9Q159.02-20.8 158.49-21.63 157.97-22.45 156.97-22.45L156.97-22.45Q154.87-22.45 152.82-18.5L152.82-18.5 152.82 0 146.67 0 146.67-26.45 152.02-26.45 152.47-23Q153.82-25.1 155.34-26.13 156.87-27.15 159.02-27.15L159.02-27.15ZM193.08-5L195.23-1.2Q192.78 0.75 189.48 0.75L189.48 0.75Q186.03 0.75 184.23-1.23 182.43-3.2 182.43-6.6L182.43-6.6 182.43-22 179.33-22 179.33-26.45 182.43-26.45 182.43-32.3 188.58-33.05 188.58-26.45 193.58-26.45 192.98-22 188.58-22 188.58-6.6Q188.58-4.2 190.63-4.2L190.63-4.2Q191.28-4.2 191.78-4.38 192.28-4.55 193.08-5L193.08-5ZM210.81-27.15Q213.66-27.15 215.31-25.1 216.96-23.05 216.96-19.6L216.96-19.6 216.96 0 210.81 0 210.81-18.9Q210.81-20.8 210.29-21.63 209.76-22.45 208.76-22.45L208.76-22.45Q206.66-22.45 204.61-18.5L204.61-18.5 204.61 0 198.46 0 198.46-37 204.61-37.65 204.61-23.3Q205.86-25.25 207.34-26.2 208.81-27.15 210.81-27.15L210.81-27.15ZM242.05-13.85Q242.05-13.4 241.9-11.3L241.9-11.3 228.25-11.3Q228.45-7.2 229.67-5.58 230.9-3.95 233.15-3.95L233.15-3.95Q234.7-3.95 235.95-4.48 237.2-5 238.65-6.15L238.65-6.15 241.2-2.65Q237.7 0.75 232.8 0.75L232.8 0.75Q227.6 0.75 224.82-2.85 222.05-6.45 222.05-13L222.05-13Q222.05-19.55 224.7-23.35 227.35-27.15 232.2-27.15L232.2-27.15Q236.85-27.15 239.45-23.78 242.05-20.4 242.05-13.85L242.05-13.85ZM236.05-15.3L236.05-15.65Q236.05-19.4 235.15-21.13 234.25-22.85 232.25-22.85L232.25-22.85Q230.4-22.85 229.42-21.18 228.45-19.5 228.25-15.3L228.25-15.3 236.05-15.3ZM264.06 0L257.71 0 257.71-34.55 274.41-34.55 273.71-29.8 264.06-29.8 264.06-19.25 272.46-19.25 272.46-14.5 264.06-14.5 264.06 0ZM296.55-26.45L296.55 0 291.2 0 290.9-3.35Q289.65-1.3 288.1-0.28 286.55 0.75 284.5 0.75L284.5 0.75Q281.6 0.75 279.92-1.3 278.25-3.35 278.25-6.65L278.25-6.65 278.25-26.45 284.4-26.45 284.4-7Q284.4-3.9 286.5-3.9L286.5-3.9Q287.7-3.9 288.65-4.83 289.6-5.75 290.4-7.45L290.4-7.45 290.4-26.45 296.55-26.45ZM314.08-5L316.23-1.2Q313.78 0.75 310.48 0.75L310.48 0.75Q307.03 0.75 305.23-1.23 303.43-3.2 303.43-6.6L303.43-6.6 303.43-22 300.33-22 300.33-26.45 303.43-26.45 303.43-32.3 309.58-33.05 309.58-26.45 314.58-26.45 313.98-22 309.58-22 309.58-6.6Q309.58-4.2 311.63-4.2L311.63-4.2Q312.28-4.2 312.78-4.38 313.28-4.55 314.08-5L314.08-5ZM337.61-26.45L337.61 0 332.26 0 331.96-3.35Q330.71-1.3 329.16-0.28 327.61 0.75 325.56 0.75L325.56 0.75Q322.66 0.75 320.99-1.3 319.31-3.35 319.31-6.65L319.31-6.65 319.31-26.45 325.46-26.45 325.46-7Q325.46-3.9 327.56-3.9L327.56-3.9Q328.76-3.9 329.71-4.83 330.66-5.75 331.46-7.45L331.46-7.45 331.46-26.45 337.61-26.45ZM355.65-27.1Q356.8-27.1 357.7-26.75L357.7-26.75 356.7-20.85Q355.7-21.1 354.85-21.1L354.85-21.1Q352.95-21.1 351.85-19.45 350.75-17.8 350.15-14.55L350.15-14.55 350.15 0 344 0 344-26.45 349.35-26.45 349.8-21.85Q351.65-27.1 355.65-27.1L355.65-27.1ZM380.08-13.85Q380.08-13.4 379.93-11.3L379.93-11.3 366.28-11.3Q366.48-7.2 367.7-5.58 368.93-3.95 371.18-3.95L371.18-3.95Q372.73-3.95 373.98-4.48 375.23-5 376.68-6.15L376.68-6.15 379.23-2.65Q375.73 0.75 370.83 0.75L370.83 0.75Q365.63 0.75 362.85-2.85 360.08-6.45 360.08-13L360.08-13Q360.08-19.55 362.73-23.35 365.38-27.15 370.23-27.15L370.23-27.15Q374.88-27.15 377.48-23.78 380.08-20.4 380.08-13.85L380.08-13.85ZM374.08-15.3L374.08-15.65Q374.08-19.4 373.18-21.13 372.28-22.85 370.28-22.85L370.28-22.85Q368.43-22.85 367.45-21.18 366.48-19.5 366.28-15.3L366.28-15.3 374.08-15.3ZM405-27.15Q410-27.15 412.77-23.65 415.55-20.15 415.55-13.25L415.55-13.25Q415.55-6.65 412.75-2.95 409.95 0.75 405 0.75L405 0.75Q400.05 0.75 397.25-2.88 394.45-6.5 394.45-13.25L394.45-13.25Q394.45-19.95 397.25-23.55 400.05-27.15 405-27.15L405-27.15ZM405-22.5Q402.85-22.5 401.85-20.38 400.85-18.25 400.85-13.25L400.85-13.25Q400.85-8.2 401.85-6.08 402.85-3.95 405-3.95L405-3.95Q407.15-3.95 408.15-6.08 409.15-8.2 409.15-13.25L409.15-13.25Q409.15-18.3 408.15-20.4 407.15-22.5 405-22.5L405-22.5ZM430.48-33.05Q429.08-33.05 428.4-32.3 427.73-31.55 427.73-30L427.73-30 427.73-26.45 432.78-26.45 432.08-22 427.73-22 427.73 0 421.58 0 421.58-22 418.28-22 418.28-26.45 421.58-26.45 421.58-29.8Q421.58-33.4 423.68-35.55 425.78-37.7 429.68-37.7L429.68-37.7Q432.73-37.7 435.58-36.2L435.58-36.2 433.88-32.2Q432.13-33.05 430.48-33.05L430.48-33.05ZM468.9 0L462.45 0 460.75-8.1 451.85-8.1 450.2 0 443.85 0 452.55-34.55 460.25-34.55 468.9 0ZM456.3-29.7L452.85-12.9 459.8-12.9 456.3-29.7ZM472.48-34.55L478.83-34.55 478.83 0 472.48 0 472.48-34.55ZM487.76-7.05Q489.36-7.05 490.39-5.98 491.41-4.9 491.41-3.25L491.41-3.25Q491.41-2.55 491.19-1.78 490.96-1 490.61-0.08 490.26 0.85 490.16 1.2L490.16 1.2 487.51 8.55 484.06 8.55 485.86 0.1Q484.06-1.2 484.06-3.2L484.06-3.2Q484.06-4.85 485.11-5.95 486.16-7.05 487.76-7.05L487.76-7.05ZM532.68-34.55L538.58-34.55 533.73 0 525.38 0 521.68-27.8 517.83 0 509.63 0 504.88-34.55 511.03-34.55 514.23-5.1 518.38-34.55 525.13-34.55 529.18-5.1 532.68-34.55ZM561.66-13.85Q561.66-13.4 561.51-11.3L561.51-11.3 547.86-11.3Q548.06-7.2 549.29-5.58 550.51-3.95 552.76-3.95L552.76-3.95Q554.31-3.95 555.56-4.48 556.81-5 558.26-6.15L558.26-6.15 560.81-2.65Q557.31 0.75 552.41 0.75L552.41 0.75Q547.21 0.75 544.44-2.85 541.66-6.45 541.66-13L541.66-13Q541.66-19.55 544.31-23.35 546.96-27.15 551.81-27.15L551.81-27.15Q556.46-27.15 559.06-23.78 561.66-20.4 561.66-13.85L561.66-13.85ZM555.66-15.3L555.66-15.65Q555.66-19.4 554.76-21.13 553.86-22.85 551.86-22.85L551.86-22.85Q550.01-22.85 549.04-21.18 548.06-19.5 547.86-15.3L547.86-15.3 555.66-15.3ZM578.79-27.15Q582.64-27.15 584.69-23.65 586.74-20.15 586.74-13.25L586.74-13.25Q586.74-6.75 584.44-3 582.14 0.75 578.14 0.75L578.14 0.75Q576.39 0.75 574.94-0.13 573.49-1 572.44-2.55L572.44-2.55 572.09 0 566.64 0 566.64-37 572.79-37.65 572.79-23.6Q573.84-25.3 575.37-26.23 576.89-27.15 578.79-27.15L578.79-27.15ZM576.49-3.9Q578.34-3.9 579.37-6 580.39-8.1 580.39-13.25L580.39-13.25Q580.39-18.6 579.47-20.58 578.54-22.55 576.84-22.55L576.84-22.55Q575.69-22.55 574.64-21.6 573.59-20.65 572.79-19.1L572.79-19.1 572.79-6.7Q573.44-5.45 574.42-4.67 575.39-3.9 576.49-3.9L576.49-3.9ZM598.88-34.25Q601.63-34.25 603.7-33.1 605.78-31.95 606.9-29.98 608.03-28 608.03-25.7L608.03-25.7Q608.03-19.5 601.73-17.8L601.73-17.8Q605.13-17.35 607.03-15.33 608.93-13.3 608.93-9.6L608.93-9.6Q608.93-6.8 607.68-4.42 606.43-2.05 604.08-0.65 601.73 0.75 598.53 0.75L598.53 0.75Q595.58 0.75 593.33-0.45 591.08-1.65 589.08-4.05L589.08-4.05 592.58-7.05Q594.08-5.45 595.3-4.75 596.53-4.05 598.13-4.05L598.13-4.05Q600.18-4.05 601.43-5.55 602.68-7.05 602.68-9.85L602.68-9.85Q602.68-12.8 601.35-14.1 600.03-15.4 597.43-15.4L597.43-15.4 595.43-15.4 596.13-19.7 597.43-19.7Q599.58-19.7 600.88-21.08 602.18-22.45 602.18-25.05L602.18-25.05Q602.18-27.25 601.08-28.43 599.98-29.6 598.08-29.6L598.08-29.6Q595.28-29.6 592.83-26.9L592.83-26.9 589.68-30Q593.68-34.25 598.88-34.25L598.88-34.25ZM641.39-6.4Q641.39-5.1 641.74-4.48 642.09-3.85 642.89-3.45L642.89-3.45 641.64 0.65Q639.59 0.4 638.37-0.45 637.14-1.3 636.54-3.05L636.54-3.05Q634.24 0.75 630.09 0.75L630.09 0.75Q626.79 0.75 624.84-1.48 622.89-3.7 622.89-7.4L622.89-7.4Q622.89-11.7 625.57-13.95 628.24-16.2 633.34-16.2L633.34-16.2 635.39-16.2 635.39-18.05Q635.39-20.55 634.52-21.58 633.64-22.6 631.69-22.6L631.69-22.6Q629.34-22.6 625.84-21.3L625.84-21.3 624.44-25.3Q626.44-26.2 628.59-26.68 630.74-27.15 632.69-27.15L632.69-27.15Q641.39-27.15 641.39-18.35L641.39-18.35 641.39-6.4ZM631.74-3.7Q634.14-3.7 635.39-7L635.39-7 635.39-12.55 633.94-12.55Q631.39-12.55 630.22-11.4 629.04-10.25 629.04-7.85L629.04-7.85Q629.04-5.8 629.74-4.75 630.44-3.7 631.74-3.7L631.74-3.7ZM660.23-27.15Q663.08-27.15 664.73-25.1 666.38-23.05 666.38-19.6L666.38-19.6 666.38 0 660.23 0 660.23-18.9Q660.23-20.8 659.7-21.63 659.18-22.45 658.18-22.45L658.18-22.45Q656.08-22.45 654.03-18.5L654.03-18.5 654.03 0 647.88 0 647.88-26.45 653.23-26.45 653.68-23Q655.03-25.1 656.55-26.13 658.08-27.15 660.23-27.15L660.23-27.15ZM685.56-37.7L691.71-37.05 691.71 0 686.26 0 685.96-3.05Q683.61 0.75 679.91 0.75L679.91 0.75Q675.81 0.75 673.64-2.93 671.46-6.6 671.46-13.2L671.46-13.2Q671.46-17.4 672.59-20.58 673.71-23.75 675.71-25.45 677.71-27.15 680.31-27.15L680.31-27.15Q683.51-27.15 685.56-24.5L685.56-24.5 685.56-37.7ZM681.66-3.9Q682.81-3.9 683.74-4.7 684.66-5.5 685.56-7L685.56-7 685.56-19.85Q683.96-22.55 681.91-22.55L681.91-22.55Q677.86-22.55 677.86-13.25L677.86-13.25Q677.86-8.2 678.86-6.05 679.86-3.9 681.66-3.9L681.66-3.9ZM717.53-35.25Q720.53-35.25 722.83-34.2 725.13-33.15 727.08-31.05L727.08-31.05 724.13-27.65Q722.58-29.05 721.1-29.75 719.63-30.45 717.98-30.45L717.98-30.45Q716.08-30.45 714.98-29.28 713.88-28.1 713.88-26.2L713.88-26.2Q713.88-24.3 715.03-23.1 716.18-21.9 719.53-20.6L719.53-20.6Q723.83-18.85 725.85-16.5 727.88-14.15 727.88-9.85L727.88-9.85Q727.88-6.9 726.53-4.48 725.18-2.05 722.65-0.65 720.13 0.75 716.78 0.75L716.78 0.75Q713.33 0.75 710.78-0.48 708.23-1.7 706.13-3.95L706.13-3.95 709.33-7.45Q711.13-5.85 712.78-5 714.43-4.15 716.38-4.15L716.38-4.15Q718.68-4.15 719.95-5.58 721.23-7 721.23-9.45L721.23-9.45Q721.23-11.6 720.1-12.98 718.98-14.35 715.93-15.5L715.93-15.5Q711.33-17.35 709.3-19.75 707.28-22.15 707.28-25.75L707.28-25.75Q707.28-28.5 708.6-30.65 709.93-32.8 712.28-34.02 714.63-35.25 717.53-35.25L717.53-35.25ZM751.41-13.85Q751.41-13.4 751.26-11.3L751.26-11.3 737.61-11.3Q737.81-7.2 739.03-5.58 740.26-3.95 742.51-3.95L742.51-3.95Q744.06-3.95 745.31-4.48 746.56-5 748.01-6.15L748.01-6.15 750.56-2.65Q747.06 0.75 742.16 0.75L742.16 0.75Q736.96 0.75 734.18-2.85 731.41-6.45 731.41-13L731.41-13Q731.41-19.55 734.06-23.35 736.71-27.15 741.56-27.15L741.56-27.15Q746.21-27.15 748.81-23.78 751.41-20.4 751.41-13.85L751.41-13.85ZM745.41-15.3L745.41-15.65Q745.41-19.4 744.51-21.13 743.61-22.85 741.61-22.85L741.61-22.85Q739.76-22.85 738.78-21.18 737.81-19.5 737.61-15.3L737.61-15.3 745.41-15.3ZM773.29-6.4Q773.29-5.1 773.64-4.48 773.99-3.85 774.79-3.45L774.79-3.45 773.54 0.65Q771.49 0.4 770.27-0.45 769.04-1.3 768.44-3.05L768.44-3.05Q766.14 0.75 761.99 0.75L761.99 0.75Q758.69 0.75 756.74-1.48 754.79-3.7 754.79-7.4L754.79-7.4Q754.79-11.7 757.47-13.95 760.14-16.2 765.24-16.2L765.24-16.2 767.29-16.2 767.29-18.05Q767.29-20.55 766.42-21.58 765.54-22.6 763.59-22.6L763.59-22.6Q761.24-22.6 757.74-21.3L757.74-21.3 756.34-25.3Q758.34-26.2 760.49-26.68 762.64-27.15 764.59-27.15L764.59-27.15Q773.29-27.15 773.29-18.35L773.29-18.35 773.29-6.4ZM763.64-3.7Q766.04-3.7 767.29-7L767.29-7 767.29-12.55 765.84-12.55Q763.29-12.55 762.12-11.4 760.94-10.25 760.94-7.85L760.94-7.85Q760.94-5.8 761.64-4.75 762.34-3.7 763.64-3.7L763.64-3.7ZM791.43-27.1Q792.58-27.1 793.48-26.75L793.48-26.75 792.48-20.85Q791.48-21.1 790.63-21.1L790.63-21.1Q788.73-21.1 787.63-19.45 786.53-17.8 785.93-14.55L785.93-14.55 785.93 0 779.78 0 779.78-26.45 785.13-26.45 785.58-21.85Q787.43-27.1 791.43-27.1L791.43-27.1ZM806.51-27.15Q808.66-27.15 810.41-26.43 812.16-25.7 813.76-24.15L813.76-24.15 811.11-20.65Q810.01-21.55 809.03-21.98 808.06-22.4 806.91-22.4L806.91-22.4Q804.66-22.4 803.51-20.28 802.36-18.15 802.36-13.1L802.36-13.1Q802.36-8.2 803.53-6.2 804.71-4.2 806.91-4.2L806.91-4.2Q808.01-4.2 808.91-4.6 809.81-5 811.01-5.85L811.01-5.85 813.76-2.3Q810.56 0.75 806.61 0.75L806.61 0.75Q801.51 0.75 798.68-2.73 795.86-6.2 795.86-13L795.86-13Q795.86-17.4 797.16-20.6 798.46-23.8 800.88-25.48 803.31-27.15 806.51-27.15L806.51-27.15ZM829.84-27.15Q832.69-27.15 834.34-25.1 835.99-23.05 835.99-19.6L835.99-19.6 835.99 0 829.84 0 829.84-18.9Q829.84-20.8 829.32-21.63 828.79-22.45 827.79-22.45L827.79-22.45Q825.69-22.45 823.64-18.5L823.64-18.5 823.64 0 817.49 0 817.49-37 823.64-37.65 823.64-23.3Q824.89-25.25 826.37-26.2 827.84-27.15 829.84-27.15L829.84-27.15Z" opacity="1" transform="matrix(1,0,0,1,0,0)" fill="#071fe5" class="slogan-text-1" data-fill-palette-color="secondary" id="text-1"></path></svg></g></svg></g></svg></g></svg></g><g></g></svg></g></svg></g><defs></defs></svg><rect width="395.52" height="54.77285701921902" fill="none" stroke="none" visibility="hidden"></rect></g></svg></g></svg>