<svg xmlns="http://www.w3.org/2000/svg" version="1.1" xmlns:xlink="http://www.w3.org/1999/xlink" xmlns:svgjs="http://svgjs.dev/svgjs" width="2000" height="126" viewBox="0 0 2000 126"><g transform="matrix(1,0,0,1,-1.2121212121212466,-0.7849559235668835)"><svg viewBox="0 0 396 25" data-background-color="#ffffff" preserveAspectRatio="xMidYMid meet" height="126" width="2000" xmlns="http://www.w3.org/2000/svg" xmlns:xlink="http://www.w3.org/1999/xlink"><g id="tight-bounds" transform="matrix(1,0,0,1,0.2400000000000091,0.1557452229299372)"><svg viewBox="0 0 395.52 24.688509554140126" height="24.688509554140126" width="395.52"><g><svg viewBox="0 0 395.52 24.688509554140126" height="24.688509554140126" width="395.52"><g><svg viewBox="0 0 395.52 24.688509554140126" height="24.688509554140126" width="395.52"><g><svg viewBox="0 0 395.52 24.688509554140126" height="24.688509554140126" width="395.52"><g id="textblocktransform"><svg viewBox="0 0 395.52 24.688509554140126" height="24.688509554140126" width="395.52" id="textblock"><g><svg viewBox="0 0 395.52 24.688509554140126" height="24.688509554140126" width="395.52"><g transform="matrix(1,0,0,1,0,0)"><svg width="395.52" viewBox="5.03 -43.07 689.9100000000001 42.39" height="24.688509554140126" data-palette-color="#001f3f"><path d="M7.96-0.68L7.96-0.68 17.04-0.68Q18.41-0.68 19.19-1.42 19.97-2.15 19.97-3.13 19.97-4.1 19.19-4.83 18.41-5.57 17.04-5.57L17.04-5.57 7.96-5.57Q6.59-5.57 5.81-4.83 5.03-4.1 5.03-3.13 5.03-2.15 5.81-1.42 6.59-0.68 7.96-0.68ZM32.96-0.68L32.96-0.68 42.04-0.68Q43.41-0.68 44.19-1.42 44.97-2.15 44.97-3.13 44.97-4.1 44.19-4.83 43.41-5.57 42.04-5.57L42.04-5.57 32.96-5.57Q31.59-5.57 30.81-4.83 30.03-4.1 30.03-3.13 30.03-2.15 30.81-1.42 31.59-0.68 32.96-0.68ZM7.96-6.93L7.96-6.93 17.04-6.93Q18.41-6.93 19.19-7.67 19.97-8.4 19.97-9.38 19.97-10.35 19.19-11.08 18.41-11.82 17.04-11.82L17.04-11.82 7.96-11.82Q6.59-11.82 5.81-11.08 5.03-10.35 5.03-9.38 5.03-8.4 5.81-7.67 6.59-6.93 7.96-6.93ZM32.96-6.93L32.96-6.93 42.04-6.93Q43.41-6.93 44.19-7.67 44.97-8.4 44.97-9.38 44.97-10.35 44.19-11.08 43.41-11.82 42.04-11.82L42.04-11.82 32.96-11.82Q31.59-11.82 30.81-11.08 30.03-10.35 30.03-9.38 30.03-8.4 30.81-7.67 31.59-6.93 32.96-6.93ZM7.96-13.18L7.96-13.18 17.04-13.18Q18.41-13.18 19.19-13.92 19.97-14.65 19.97-15.63 19.97-16.6 19.19-17.33 18.41-18.07 17.04-18.07L17.04-18.07 7.96-18.07Q6.59-18.07 5.81-17.33 5.03-16.6 5.03-15.63 5.03-14.65 5.81-13.92 6.59-13.18 7.96-13.18ZM32.96-13.18L32.96-13.18 42.04-13.18Q43.41-13.18 44.19-13.92 44.97-14.65 44.97-15.63 44.97-16.6 44.19-17.33 43.41-18.07 42.04-18.07L42.04-18.07 32.96-18.07Q31.59-18.07 30.81-17.33 30.03-16.6 30.03-15.63 30.03-14.65 30.81-13.92 31.59-13.18 32.96-13.18ZM7.96-19.43L7.96-19.43 42.04-19.43Q43.41-19.43 44.19-20.17 44.97-20.9 44.97-21.88 44.97-22.85 44.19-23.58 43.41-24.32 42.04-24.32L42.04-24.32 7.96-24.32Q6.59-24.32 5.81-23.58 5.03-22.85 5.03-21.88 5.03-20.9 5.81-20.17 6.59-19.43 7.96-19.43ZM7.96-25.68L7.96-25.68 17.04-25.68Q18.41-25.68 19.19-26.42 19.97-27.15 19.97-28.13 19.97-29.1 19.19-29.83 18.41-30.57 17.04-30.57L17.04-30.57 7.96-30.57Q6.59-30.57 5.81-29.83 5.03-29.1 5.03-28.13 5.03-27.15 5.81-26.42 6.59-25.68 7.96-25.68ZM32.96-25.68L32.96-25.68 42.04-25.68Q43.41-25.68 44.19-26.42 44.97-27.15 44.97-28.13 44.97-29.1 44.19-29.83 43.41-30.57 42.04-30.57L42.04-30.57 32.96-30.57Q31.59-30.57 30.81-29.83 30.03-29.1 30.03-28.13 30.03-27.15 30.81-26.42 31.59-25.68 32.96-25.68ZM14.21-31.93L14.21-31.93 35.79-31.93Q37.16-31.93 37.94-32.67 38.72-33.4 38.72-34.38 38.72-35.35 37.94-36.08 37.16-36.82 35.79-36.82L35.79-36.82 14.21-36.82Q12.84-36.82 12.06-36.08 11.28-35.35 11.28-34.38 11.28-33.4 12.06-32.67 12.84-31.93 14.21-31.93ZM20.46-38.18L20.46-38.18 29.54-38.18Q30.91-38.18 31.69-38.92 32.47-39.65 32.47-40.63 32.47-41.6 31.69-42.33 30.91-43.07 29.54-43.07L29.54-43.07 20.46-43.07Q19.09-43.07 18.31-42.33 17.53-41.6 17.53-40.63 17.53-39.65 18.31-38.92 19.09-38.18 20.46-38.18ZM76.71-0.68L76.71-0.68 92.04-0.68Q93.41-0.68 94.19-1.42 94.97-2.15 94.97-3.13 94.97-4.1 94.19-4.83 93.41-5.57 92.04-5.57L92.04-5.57 76.71-5.57Q75.34-5.57 74.56-4.83 73.78-4.1 73.78-3.13 73.78-2.15 74.56-1.42 75.34-0.68 76.71-0.68ZM70.46-6.93L70.46-6.93 79.54-6.93Q80.91-6.93 81.69-7.67 82.47-8.4 82.47-9.38 82.47-10.35 81.69-11.08 80.91-11.82 79.54-11.82L79.54-11.82 70.46-11.82Q69.09-11.82 68.31-11.08 67.53-10.35 67.53-9.38 67.53-8.4 68.31-7.67 69.09-6.93 70.46-6.93ZM70.46-13.18L70.46-13.18 79.54-13.18Q80.91-13.18 81.69-13.92 82.47-14.65 82.47-15.63 82.47-16.6 81.69-17.33 80.91-18.07 79.54-18.07L79.54-18.07 70.46-18.07Q69.09-18.07 68.31-17.33 67.53-16.6 67.53-15.63 67.53-14.65 68.31-13.92 69.09-13.18 70.46-13.18ZM70.46-19.43L70.46-19.43 79.54-19.43Q80.91-19.43 81.69-20.17 82.47-20.9 82.47-21.88 82.47-22.85 81.69-23.58 80.91-24.32 79.54-24.32L79.54-24.32 70.46-24.32Q69.09-24.32 68.31-23.58 67.53-22.85 67.53-21.88 67.53-20.9 68.31-20.17 69.09-19.43 70.46-19.43ZM57.96-25.68L57.96-25.68 92.04-25.68Q93.41-25.68 94.19-26.42 94.97-27.15 94.97-28.13 94.97-29.1 94.19-29.83 93.41-30.57 92.04-30.57L92.04-30.57 57.96-30.57Q56.59-30.57 55.81-29.83 55.03-29.1 55.03-28.13 55.03-27.15 55.81-26.42 56.59-25.68 57.96-25.68ZM70.46-31.93L70.46-31.93 79.54-31.93Q80.91-31.93 81.69-32.67 82.47-33.4 82.47-34.38 82.47-35.35 81.69-36.08 80.91-36.82 79.54-36.82L79.54-36.82 70.46-36.82Q69.09-36.82 68.31-36.08 67.53-35.35 67.53-34.38 67.53-33.4 68.31-32.67 69.09-31.93 70.46-31.93ZM107.95-0.68L107.95-0.68 117.04-0.68Q118.4-0.68 119.18-1.42 119.97-2.15 119.97-3.13 119.97-4.1 119.18-4.83 118.4-5.57 117.04-5.57L117.04-5.57 107.95-5.57Q106.59-5.57 105.81-4.83 105.02-4.1 105.02-3.13 105.02-2.15 105.81-1.42 106.59-0.68 107.95-0.68ZM132.95-0.68L132.95-0.68 142.04-0.68Q143.4-0.68 144.18-1.42 144.97-2.15 144.97-3.13 144.97-4.1 144.18-4.83 143.4-5.57 142.04-5.57L142.04-5.57 132.95-5.57Q131.59-5.57 130.81-4.83 130.02-4.1 130.02-3.13 130.02-2.15 130.81-1.42 131.59-0.68 132.95-0.68ZM107.95-6.93L107.95-6.93 117.04-6.93Q118.4-6.93 119.18-7.67 119.97-8.4 119.97-9.38 119.97-10.35 119.18-11.08 118.4-11.82 117.04-11.82L117.04-11.82 107.95-11.82Q106.59-11.82 105.81-11.08 105.02-10.35 105.02-9.38 105.02-8.4 105.81-7.67 106.59-6.93 107.95-6.93ZM132.95-6.93L132.95-6.93 142.04-6.93Q143.4-6.93 144.18-7.67 144.97-8.4 144.97-9.38 144.97-10.35 144.18-11.08 143.4-11.82 142.04-11.82L142.04-11.82 132.95-11.82Q131.59-11.82 130.81-11.08 130.02-10.35 130.02-9.38 130.02-8.4 130.81-7.67 131.59-6.93 132.95-6.93ZM107.95-13.18L107.95-13.18 117.04-13.18Q118.4-13.18 119.18-13.92 119.97-14.65 119.97-15.63 119.97-16.6 119.18-17.33 118.4-18.07 117.04-18.07L117.04-18.07 107.95-18.07Q106.59-18.07 105.81-17.33 105.02-16.6 105.02-15.63 105.02-14.65 105.81-13.92 106.59-13.18 107.95-13.18ZM132.95-13.18L132.95-13.18 142.04-13.18Q143.4-13.18 144.18-13.92 144.97-14.65 144.97-15.63 144.97-16.6 144.18-17.33 143.4-18.07 142.04-18.07L142.04-18.07 132.95-18.07Q131.59-18.07 130.81-17.33 130.02-16.6 130.02-15.63 130.02-14.65 130.81-13.92 131.59-13.18 132.95-13.18ZM107.95-19.43L107.95-19.43 135.79-19.43Q137.15-19.43 137.93-20.17 138.72-20.9 138.72-21.88 138.72-22.85 137.93-23.58 137.15-24.32 135.79-24.32L135.79-24.32 107.95-24.32Q106.59-24.32 105.81-23.58 105.02-22.85 105.02-21.88 105.02-20.9 105.81-20.17 106.59-19.43 107.95-19.43ZM107.95-25.68L107.95-25.68 117.04-25.68Q118.4-25.68 119.18-26.42 119.97-27.15 119.97-28.13 119.97-29.1 119.18-29.83 118.4-30.57 117.04-30.57L117.04-30.57 107.95-30.57Q106.59-30.57 105.81-29.83 105.02-29.1 105.02-28.13 105.02-27.15 105.81-26.42 106.59-25.68 107.95-25.68ZM107.95-31.93L107.95-31.93 117.04-31.93Q118.4-31.93 119.18-32.67 119.97-33.4 119.97-34.38 119.97-35.35 119.18-36.08 118.4-36.82 117.04-36.82L117.04-36.82 107.95-36.82Q106.59-36.82 105.81-36.08 105.02-35.35 105.02-34.38 105.02-33.4 105.81-32.67 106.59-31.93 107.95-31.93ZM164.2-0.68L164.2-0.68 185.78-0.68Q187.15-0.68 187.93-1.42 188.71-2.15 188.71-3.13 188.71-4.1 187.93-4.83 187.15-5.57 185.78-5.57L185.78-5.57 164.2-5.57Q162.83-5.57 162.05-4.83 161.27-4.1 161.27-3.13 161.27-2.15 162.05-1.42 162.83-0.68 164.2-0.68ZM157.95-6.93L157.95-6.93 167.03-6.93Q168.4-6.93 169.18-7.67 169.96-8.4 169.96-9.38 169.96-10.35 169.18-11.08 168.4-11.82 167.03-11.82L167.03-11.82 157.95-11.82Q156.58-11.82 155.8-11.08 155.02-10.35 155.02-9.38 155.02-8.4 155.8-7.67 156.58-6.93 157.95-6.93ZM157.95-13.18L157.95-13.18 192.03-13.18Q193.4-13.18 194.18-13.92 194.96-14.65 194.96-15.63 194.96-16.6 194.18-17.33 193.4-18.07 192.03-18.07L192.03-18.07 157.95-18.07Q156.58-18.07 155.8-17.33 155.02-16.6 155.02-15.63 155.02-14.65 155.8-13.92 156.58-13.18 157.95-13.18ZM157.95-19.43L157.95-19.43 167.03-19.43Q168.4-19.43 169.18-20.17 169.96-20.9 169.96-21.88 169.96-22.85 169.18-23.58 168.4-24.32 167.03-24.32L167.03-24.32 157.95-24.32Q156.58-24.32 155.8-23.58 155.02-22.85 155.02-21.88 155.02-20.9 155.8-20.17 156.58-19.43 157.95-19.43ZM182.95-19.43L182.95-19.43 192.03-19.43Q193.4-19.43 194.18-20.17 194.96-20.9 194.96-21.88 194.96-22.85 194.18-23.58 193.4-24.32 192.03-24.32L192.03-24.32 182.95-24.32Q181.58-24.32 180.8-23.58 180.02-22.85 180.02-21.88 180.02-20.9 180.8-20.17 181.58-19.43 182.95-19.43ZM164.2-25.68L164.2-25.68 185.78-25.68Q187.15-25.68 187.93-26.42 188.71-27.15 188.71-28.13 188.71-29.1 187.93-29.83 187.15-30.57 185.78-30.57L185.78-30.57 164.2-30.57Q162.83-30.57 162.05-29.83 161.27-29.1 161.27-28.13 161.27-27.15 162.05-26.42 162.83-25.68 164.2-25.68ZM207.95-0.68L207.95-0.68 217.03-0.68Q218.4-0.68 219.18-1.42 219.96-2.15 219.96-3.13 219.96-4.1 219.18-4.83 218.4-5.57 217.03-5.57L217.03-5.57 207.95-5.57Q206.58-5.57 205.8-4.83 205.02-4.1 205.02-3.13 205.02-2.15 205.8-1.42 206.58-0.68 207.95-0.68ZM232.95-0.68L232.95-0.68 242.03-0.68Q243.4-0.68 244.18-1.42 244.96-2.15 244.96-3.13 244.96-4.1 244.18-4.83 243.4-5.57 242.03-5.57L242.03-5.57 232.95-5.57Q231.58-5.57 230.8-4.83 230.02-4.1 230.02-3.13 230.02-2.15 230.8-1.42 231.58-0.68 232.95-0.68ZM207.95-6.93L207.95-6.93 217.03-6.93Q218.4-6.93 219.18-7.67 219.96-8.4 219.96-9.38 219.96-10.35 219.18-11.08 218.4-11.82 217.03-11.82L217.03-11.82 207.95-11.82Q206.58-11.82 205.8-11.08 205.02-10.35 205.02-9.38 205.02-8.4 205.8-7.67 206.58-6.93 207.95-6.93ZM232.95-6.93L232.95-6.93 242.03-6.93Q243.4-6.93 244.18-7.67 244.96-8.4 244.96-9.38 244.96-10.35 244.18-11.08 243.4-11.82 242.03-11.82L242.03-11.82 232.95-11.82Q231.58-11.82 230.8-11.08 230.02-10.35 230.02-9.38 230.02-8.4 230.8-7.67 231.58-6.93 232.95-6.93ZM207.95-13.18L207.95-13.18 217.03-13.18Q218.4-13.18 219.18-13.92 219.96-14.65 219.96-15.63 219.96-16.6 219.18-17.33 218.4-18.07 217.03-18.07L217.03-18.07 207.95-18.07Q206.58-18.07 205.8-17.33 205.02-16.6 205.02-15.63 205.02-14.65 205.8-13.92 206.58-13.18 207.95-13.18ZM232.95-13.18L232.95-13.18 242.03-13.18Q243.4-13.18 244.18-13.92 244.96-14.65 244.96-15.63 244.96-16.6 244.18-17.33 243.4-18.07 242.03-18.07L242.03-18.07 232.95-18.07Q231.58-18.07 230.8-17.33 230.02-16.6 230.02-15.63 230.02-14.65 230.8-13.92 231.58-13.18 232.95-13.18ZM207.95-19.43L207.95-19.43 217.03-19.43Q218.4-19.43 219.18-20.17 219.96-20.9 219.96-21.88 219.96-22.85 219.18-23.58 218.4-24.32 217.03-24.32L217.03-24.32 207.95-24.32Q206.58-24.32 205.8-23.58 205.02-22.85 205.02-21.88 205.02-20.9 205.8-20.17 206.58-19.43 207.95-19.43ZM232.95-19.43L232.95-19.43 242.03-19.43Q243.4-19.43 244.18-20.17 244.96-20.9 244.96-21.88 244.96-22.85 244.18-23.58 243.4-24.32 242.03-24.32L242.03-24.32 232.95-24.32Q231.58-24.32 230.8-23.58 230.02-22.85 230.02-21.88 230.02-20.9 230.8-20.17 231.58-19.43 232.95-19.43ZM207.95-25.68L207.95-25.68 235.78-25.68Q237.15-25.68 237.93-26.42 238.71-27.15 238.71-28.13 238.71-29.1 237.93-29.83 237.15-30.57 235.78-30.57L235.78-30.57 207.95-30.57Q206.58-30.57 205.8-29.83 205.02-29.1 205.02-28.13 205.02-27.15 205.8-26.42 206.58-25.68 207.95-25.68ZM264.2-0.68L264.2-0.68 292.03-0.68Q293.4-0.68 294.18-1.42 294.96-2.15 294.96-3.13 294.96-4.1 294.18-4.83 293.4-5.57 292.03-5.57L292.03-5.57 264.2-5.57Q262.83-5.57 262.05-4.83 261.27-4.1 261.27-3.13 261.27-2.15 262.05-1.42 262.83-0.68 264.2-0.68ZM257.95-6.93L257.95-6.93 267.03-6.93Q268.4-6.93 269.18-7.67 269.96-8.4 269.96-9.38 269.96-10.35 269.18-11.08 268.4-11.82 267.03-11.82L267.03-11.82 257.95-11.82Q256.58-11.82 255.8-11.08 255.02-10.35 255.02-9.38 255.02-8.4 255.8-7.67 256.58-6.93 257.95-6.93ZM282.95-6.93L282.95-6.93 292.03-6.93Q293.4-6.93 294.18-7.67 294.96-8.4 294.96-9.38 294.96-10.35 294.18-11.08 293.4-11.82 292.03-11.82L292.03-11.82 282.95-11.82Q281.58-11.82 280.8-11.08 280.02-10.35 280.02-9.38 280.02-8.4 280.8-7.67 281.58-6.93 282.95-6.93ZM264.2-13.18L264.2-13.18 292.03-13.18Q293.4-13.18 294.18-13.92 294.96-14.65 294.96-15.63 294.96-16.6 294.18-17.33 293.4-18.07 292.03-18.07L292.03-18.07 264.2-18.07Q262.83-18.07 262.05-17.33 261.27-16.6 261.27-15.63 261.27-14.65 262.05-13.92 262.83-13.18 264.2-13.18ZM282.95-19.43L282.95-19.43 292.03-19.43Q293.4-19.43 294.18-20.17 294.96-20.9 294.96-21.88 294.96-22.85 294.18-23.58 293.4-24.32 292.03-24.32L292.03-24.32 282.95-24.32Q281.58-24.32 280.8-23.58 280.02-22.85 280.02-21.88 280.02-20.9 280.8-20.17 281.58-19.43 282.95-19.43ZM264.2-25.68L264.2-25.68 285.78-25.68Q287.15-25.68 287.93-26.42 288.71-27.15 288.71-28.13 288.71-29.1 287.93-29.83 287.15-30.57 285.78-30.57L285.78-30.57 264.2-30.57Q262.83-30.57 262.05-29.83 261.27-29.1 261.27-28.13 261.27-27.15 262.05-26.42 262.83-25.68 264.2-25.68ZM357.94-0.68L357.94-0.68 367.02-0.68Q368.39-0.68 369.17-1.42 369.95-2.15 369.95-3.13 369.95-4.1 369.17-4.83 368.39-5.57 367.02-5.57L367.02-5.57 357.94-5.57Q356.57-5.57 355.79-4.83 355.01-4.1 355.01-3.13 355.01-2.15 355.79-1.42 356.57-0.68 357.94-0.68ZM382.94-0.68L382.94-0.68 392.02-0.68Q393.39-0.68 394.17-1.42 394.95-2.15 394.95-3.13 394.95-4.1 394.17-4.83 393.39-5.57 392.02-5.57L392.02-5.57 382.94-5.57Q381.57-5.57 380.79-4.83 380.01-4.1 380.01-3.13 380.01-2.15 380.79-1.42 381.57-0.68 382.94-0.68ZM357.94-6.93L357.94-6.93 367.02-6.93Q368.39-6.93 369.17-7.67 369.95-8.4 369.95-9.38 369.95-10.35 369.17-11.08 368.39-11.82 367.02-11.82L367.02-11.82 357.94-11.82Q356.57-11.82 355.79-11.08 355.01-10.35 355.01-9.38 355.01-8.4 355.79-7.67 356.57-6.93 357.94-6.93ZM376.69-6.93L376.69-6.93 385.77-6.93Q387.14-6.93 387.92-7.67 388.7-8.4 388.7-9.38 388.7-10.35 387.92-11.08 387.14-11.82 385.77-11.82L385.77-11.82 376.69-11.82Q375.32-11.82 374.54-11.08 373.76-10.35 373.76-9.38 373.76-8.4 374.54-7.67 375.32-6.93 376.69-6.93ZM357.94-13.18L357.94-13.18 379.52-13.18Q380.89-13.18 381.67-13.92 382.45-14.65 382.45-15.63 382.45-16.6 381.67-17.33 380.89-18.07 379.52-18.07L379.52-18.07 357.94-18.07Q356.57-18.07 355.79-17.33 355.01-16.6 355.01-15.63 355.01-14.65 355.79-13.92 356.57-13.18 357.94-13.18ZM357.94-19.43L357.94-19.43 385.77-19.43Q387.14-19.43 387.92-20.17 388.7-20.9 388.7-21.88 388.7-22.85 387.92-23.58 387.14-24.32 385.77-24.32L385.77-24.32 357.94-24.32Q356.57-24.32 355.79-23.58 355.01-22.85 355.01-21.88 355.01-20.9 355.79-20.17 356.57-19.43 357.94-19.43ZM357.94-25.68L357.94-25.68 367.02-25.68Q368.39-25.68 369.17-26.42 369.95-27.15 369.95-28.13 369.95-29.1 369.17-29.83 368.39-30.57 367.02-30.57L367.02-30.57 357.94-30.57Q356.57-30.57 355.79-29.83 355.01-29.1 355.01-28.13 355.01-27.15 355.79-26.42 356.57-25.68 357.94-25.68ZM382.94-25.68L382.94-25.68 392.02-25.68Q393.39-25.68 394.17-26.42 394.95-27.15 394.95-28.13 394.95-29.1 394.17-29.83 393.39-30.57 392.02-30.57L392.02-30.57 382.94-30.57Q381.57-30.57 380.79-29.83 380.01-29.1 380.01-28.13 380.01-27.15 380.79-26.42 381.57-25.68 382.94-25.68ZM357.94-31.93L357.94-31.93 367.02-31.93Q368.39-31.93 369.17-32.67 369.95-33.4 369.95-34.38 369.95-35.35 369.17-36.08 368.39-36.82 367.02-36.82L367.02-36.82 357.94-36.82Q356.57-36.82 355.79-36.08 355.01-35.35 355.01-34.38 355.01-33.4 355.79-32.67 356.57-31.93 357.94-31.93ZM382.94-31.93L382.94-31.93 392.02-31.93Q393.39-31.93 394.17-32.67 394.95-33.4 394.95-34.38 394.95-35.35 394.17-36.08 393.39-36.82 392.02-36.82L392.02-36.82 382.94-36.82Q381.57-36.82 380.79-36.08 380.01-35.35 380.01-34.38 380.01-33.4 380.79-32.67 381.57-31.93 382.94-31.93ZM357.94-38.18L357.94-38.18 385.77-38.18Q387.14-38.18 387.92-38.92 388.7-39.65 388.7-40.63 388.7-41.6 387.92-42.33 387.14-43.07 385.77-43.07L385.77-43.07 357.94-43.07Q356.57-43.07 355.79-42.33 355.01-41.6 355.01-40.63 355.01-39.65 355.79-38.92 356.57-38.18 357.94-38.18ZM414.19-0.68L414.19-0.68 435.77-0.68Q437.14-0.68 437.92-1.42 438.7-2.15 438.7-3.13 438.7-4.1 437.92-4.83 437.14-5.57 435.77-5.57L435.77-5.57 414.19-5.57Q412.82-5.57 412.04-4.83 411.26-4.1 411.26-3.13 411.26-2.15 412.04-1.42 412.82-0.68 414.19-0.68ZM407.94-6.93L407.94-6.93 417.02-6.93Q418.39-6.93 419.17-7.67 419.95-8.4 419.95-9.38 419.95-10.35 419.17-11.08 418.39-11.82 417.02-11.82L417.02-11.82 407.94-11.82Q406.57-11.82 405.79-11.08 405.01-10.35 405.01-9.38 405.01-8.4 405.79-7.67 406.57-6.93 407.94-6.93ZM407.94-13.18L407.94-13.18 442.02-13.18Q443.39-13.18 444.17-13.92 444.95-14.65 444.95-15.63 444.95-16.6 444.17-17.33 443.39-18.07 442.02-18.07L442.02-18.07 407.94-18.07Q406.57-18.07 405.79-17.33 405.01-16.6 405.01-15.63 405.01-14.65 405.79-13.92 406.57-13.18 407.94-13.18ZM407.94-19.43L407.94-19.43 417.02-19.43Q418.39-19.43 419.17-20.17 419.95-20.9 419.95-21.88 419.95-22.85 419.17-23.58 418.39-24.32 417.02-24.32L417.02-24.32 407.94-24.32Q406.57-24.32 405.79-23.58 405.01-22.85 405.01-21.88 405.01-20.9 405.79-20.17 406.57-19.43 407.94-19.43ZM432.94-19.43L432.94-19.43 442.02-19.43Q443.39-19.43 444.17-20.17 444.95-20.9 444.95-21.88 444.95-22.85 444.17-23.58 443.39-24.32 442.02-24.32L442.02-24.32 432.94-24.32Q431.57-24.32 430.79-23.58 430.01-22.85 430.01-21.88 430.01-20.9 430.79-20.17 431.57-19.43 432.94-19.43ZM414.19-25.68L414.19-25.68 435.77-25.68Q437.14-25.68 437.92-26.42 438.7-27.15 438.7-28.13 438.7-29.1 437.92-29.83 437.14-30.57 435.77-30.57L435.77-30.57 414.19-30.57Q412.82-30.57 412.04-29.83 411.26-29.1 411.26-28.13 411.26-27.15 412.04-26.42 412.82-25.68 414.19-25.68ZM464.19-0.68L464.19-0.68 473.27-0.68Q474.64-0.68 475.42-1.42 476.2-2.15 476.2-3.13 476.2-4.1 475.42-4.83 474.64-5.57 473.27-5.57L473.27-5.57 464.19-5.57Q462.82-5.57 462.04-4.83 461.26-4.1 461.26-3.13 461.26-2.15 462.04-1.42 462.82-0.68 464.19-0.68ZM482.94-0.68L482.94-0.68 492.02-0.68Q493.39-0.68 494.17-1.42 494.95-2.15 494.95-3.13 494.95-4.1 494.17-4.83 493.39-5.57 492.02-5.57L492.02-5.57 482.94-5.57Q481.57-5.57 480.79-4.83 480.01-4.1 480.01-3.13 480.01-2.15 480.79-1.42 481.57-0.68 482.94-0.68ZM464.19-6.93L464.19-6.93 492.02-6.93Q493.39-6.93 494.17-7.67 494.95-8.4 494.95-9.38 494.95-10.35 494.17-11.08 493.39-11.82 492.02-11.82L492.02-11.82 464.19-11.82Q462.82-11.82 462.04-11.08 461.26-10.35 461.26-9.38 461.26-8.4 462.04-7.67 462.82-6.93 464.19-6.93ZM457.94-13.18L457.94-13.18 498.27-13.18Q499.64-13.18 500.42-13.92 501.2-14.65 501.2-15.63 501.2-16.6 500.42-17.33 499.64-18.07 498.27-18.07L498.27-18.07 457.94-18.07Q456.57-18.07 455.79-17.33 455.01-16.6 455.01-15.63 455.01-14.65 455.79-13.92 456.57-13.18 457.94-13.18ZM457.94-19.43L457.94-19.43 467.02-19.43Q468.39-19.43 469.17-20.17 469.95-20.9 469.95-21.88 469.95-22.85 469.17-23.58 468.39-24.32 467.02-24.32L467.02-24.32 457.94-24.32Q456.57-24.32 455.79-23.58 455.01-22.85 455.01-21.88 455.01-20.9 455.79-20.17 456.57-19.43 457.94-19.43ZM476.25-19.43L476.25-19.43 479.96-19.43Q481.03-19.43 481.74-20.17 482.45-20.9 482.45-21.88 482.45-22.85 481.74-23.58 481.03-24.32 479.96-24.32L479.96-24.32 476.25-24.32Q475.17-24.32 474.46-23.58 473.76-22.85 473.76-21.88 473.76-20.9 474.46-20.17 475.17-19.43 476.25-19.43ZM489.19-19.43L489.19-19.43 498.27-19.43Q499.64-19.43 500.42-20.17 501.2-20.9 501.2-21.88 501.2-22.85 500.42-23.58 499.64-24.32 498.27-24.32L498.27-24.32 489.19-24.32Q487.82-24.32 487.04-23.58 486.26-22.85 486.26-21.88 486.26-20.9 487.04-20.17 487.82-19.43 489.19-19.43ZM457.94-25.68L457.94-25.68 467.02-25.68Q468.39-25.68 469.17-26.42 469.95-27.15 469.95-28.13 469.95-29.1 469.17-29.83 468.39-30.57 467.02-30.57L467.02-30.57 457.94-30.57Q456.57-30.57 455.79-29.83 455.01-29.1 455.01-28.13 455.01-27.15 455.79-26.42 456.57-25.68 457.94-25.68ZM489.19-25.68L489.19-25.68 498.27-25.68Q499.64-25.68 500.42-26.42 501.2-27.15 501.2-28.13 501.2-29.1 500.42-29.83 499.64-30.57 498.27-30.57L498.27-30.57 489.19-30.57Q487.82-30.57 487.04-29.83 486.26-29.1 486.26-28.13 486.26-27.15 487.04-26.42 487.82-25.68 489.19-25.68ZM514.18-0.68L514.18-0.68 542.02-0.68Q543.38-0.68 544.16-1.42 544.95-2.15 544.95-3.13 544.95-4.1 544.16-4.83 543.38-5.57 542.02-5.57L542.02-5.57 514.18-5.57Q512.82-5.57 512.04-4.83 511.25-4.1 511.25-3.13 511.25-2.15 512.04-1.42 512.82-0.68 514.18-0.68ZM507.93-6.93L507.93-6.93 517.02-6.93Q518.38-6.93 519.16-7.67 519.95-8.4 519.95-9.38 519.95-10.35 519.16-11.08 518.38-11.82 517.02-11.82L517.02-11.82 507.93-11.82Q506.57-11.82 505.79-11.08 505-10.35 505-9.38 505-8.4 505.79-7.67 506.57-6.93 507.93-6.93ZM532.93-6.93L532.93-6.93 542.02-6.93Q543.38-6.93 544.16-7.67 544.95-8.4 544.95-9.38 544.95-10.35 544.16-11.08 543.38-11.82 542.02-11.82L542.02-11.82 532.93-11.82Q531.57-11.82 530.79-11.08 530-10.35 530-9.38 530-8.4 530.79-7.67 531.57-6.93 532.93-6.93ZM514.18-13.18L514.18-13.18 542.02-13.18Q543.38-13.18 544.16-13.92 544.95-14.65 544.95-15.63 544.95-16.6 544.16-17.33 543.38-18.07 542.02-18.07L542.02-18.07 514.18-18.07Q512.82-18.07 512.04-17.33 511.25-16.6 511.25-15.63 511.25-14.65 512.04-13.92 512.82-13.18 514.18-13.18ZM532.93-19.43L532.93-19.43 542.02-19.43Q543.38-19.43 544.16-20.17 544.95-20.9 544.95-21.88 544.95-22.85 544.16-23.58 543.38-24.32 542.02-24.32L542.02-24.32 532.93-24.32Q531.57-24.32 530.79-23.58 530-22.85 530-21.88 530-20.9 530.79-20.17 531.57-19.43 532.93-19.43ZM514.18-25.68L514.18-25.68 535.77-25.68Q537.13-25.68 537.91-26.42 538.7-27.15 538.7-28.13 538.7-29.1 537.91-29.83 537.13-30.57 535.77-30.57L535.77-30.57 514.18-30.57Q512.82-30.57 512.04-29.83 511.25-29.1 511.25-28.13 511.25-27.15 512.04-26.42 512.82-25.68 514.18-25.68ZM557.93-0.68L557.93-0.68 567.01-0.68Q568.38-0.68 569.16-1.42 569.94-2.15 569.94-3.13 569.94-4.1 569.16-4.83 568.38-5.57 567.01-5.57L567.01-5.57 557.93-5.57Q556.56-5.57 555.78-4.83 555-4.1 555-3.13 555-2.15 555.78-1.42 556.56-0.68 557.93-0.68ZM557.93-6.93L557.93-6.93 567.01-6.93Q568.38-6.93 569.16-7.67 569.94-8.4 569.94-9.38 569.94-10.35 569.16-11.08 568.38-11.82 567.01-11.82L567.01-11.82 557.93-11.82Q556.56-11.82 555.78-11.08 555-10.35 555-9.38 555-8.4 555.78-7.67 556.56-6.93 557.93-6.93ZM557.93-13.18L557.93-13.18 567.01-13.18Q568.38-13.18 569.16-13.92 569.94-14.65 569.94-15.63 569.94-16.6 569.16-17.33 568.38-18.07 567.01-18.07L567.01-18.07 557.93-18.07Q556.56-18.07 555.78-17.33 555-16.6 555-15.63 555-14.65 555.78-13.92 556.56-13.18 557.93-13.18ZM557.93-19.43L557.93-19.43 567.01-19.43Q568.38-19.43 569.16-20.17 569.94-20.9 569.94-21.88 569.94-22.85 569.16-23.58 568.38-24.32 567.01-24.32L567.01-24.32 557.93-24.32Q556.56-24.32 555.78-23.58 555-22.85 555-21.88 555-20.9 555.78-20.17 556.56-19.43 557.93-19.43ZM582.93-19.43L582.93-19.43 592.01-19.43Q593.38-19.43 594.16-20.17 594.94-20.9 594.94-21.88 594.94-22.85 594.16-23.58 593.38-24.32 592.01-24.32L592.01-24.32 582.93-24.32Q581.56-24.32 580.78-23.58 580-22.85 580-21.88 580-20.9 580.78-20.17 581.56-19.43 582.93-19.43ZM557.93-25.68L557.93-25.68 585.76-25.68Q587.13-25.68 587.91-26.42 588.69-27.15 588.69-28.13 588.69-29.1 587.91-29.83 587.13-30.57 585.76-30.57L585.76-30.57 557.93-30.57Q556.56-30.57 555.78-29.83 555-29.1 555-28.13 555-27.15 555.78-26.42 556.56-25.68 557.93-25.68ZM614.18-0.68L614.18-0.68 642.01-0.68Q643.38-0.68 644.16-1.42 644.94-2.15 644.94-3.13 644.94-4.1 644.16-4.83 643.38-5.57 642.01-5.57L642.01-5.57 614.18-5.57Q612.81-5.57 612.03-4.83 611.25-4.1 611.25-3.13 611.25-2.15 612.03-1.42 612.81-0.68 614.18-0.68ZM607.93-6.93L607.93-6.93 617.01-6.93Q618.38-6.93 619.16-7.67 619.94-8.4 619.94-9.38 619.94-10.35 619.16-11.08 618.38-11.82 617.01-11.82L617.01-11.82 607.93-11.82Q606.56-11.82 605.78-11.08 605-10.35 605-9.38 605-8.4 605.78-7.67 606.56-6.93 607.93-6.93ZM632.93-6.93L632.93-6.93 642.01-6.93Q643.38-6.93 644.16-7.67 644.94-8.4 644.94-9.38 644.94-10.35 644.16-11.08 643.38-11.82 642.01-11.82L642.01-11.82 632.93-11.82Q631.56-11.82 630.78-11.08 630-10.35 630-9.38 630-8.4 630.78-7.67 631.56-6.93 632.93-6.93ZM607.93-13.18L607.93-13.18 617.01-13.18Q618.38-13.18 619.16-13.92 619.94-14.65 619.94-15.63 619.94-16.6 619.16-17.33 618.38-18.07 617.01-18.07L617.01-18.07 607.93-18.07Q606.56-18.07 605.78-17.33 605-16.6 605-15.63 605-14.65 605.78-13.92 606.56-13.18 607.93-13.18ZM632.93-13.18L632.93-13.18 642.01-13.18Q643.38-13.18 644.16-13.92 644.94-14.65 644.94-15.63 644.94-16.6 644.16-17.33 643.38-18.07 642.01-18.07L642.01-18.07 632.93-18.07Q631.56-18.07 630.78-17.33 630-16.6 630-15.63 630-14.65 630.78-13.92 631.56-13.18 632.93-13.18ZM614.18-19.43L614.18-19.43 642.01-19.43Q643.38-19.43 644.16-20.17 644.94-20.9 644.94-21.88 644.94-22.85 644.16-23.58 643.38-24.32 642.01-24.32L642.01-24.32 614.18-24.32Q612.81-24.32 612.03-23.58 611.25-22.85 611.25-21.88 611.25-20.9 612.03-20.17 612.81-19.43 614.18-19.43ZM632.93-25.68L632.93-25.68 642.01-25.68Q643.38-25.68 644.16-26.42 644.94-27.15 644.94-28.13 644.94-29.1 644.16-29.83 643.38-30.57 642.01-30.57L642.01-30.57 632.93-30.57Q631.56-30.57 630.78-29.83 630-29.1 630-28.13 630-27.15 630.78-26.42 631.56-25.68 632.93-25.68ZM632.93-31.93L632.93-31.93 642.01-31.93Q643.38-31.93 644.16-32.67 644.94-33.4 644.94-34.38 644.94-35.35 644.16-36.08 643.38-36.82 642.01-36.82L642.01-36.82 632.93-36.82Q631.56-36.82 630.78-36.08 630-35.35 630-34.38 630-33.4 630.78-32.67 631.56-31.93 632.93-31.93ZM657.93-0.68L657.93-0.68 685.76-0.68Q687.13-0.68 687.91-1.42 688.69-2.15 688.69-3.13 688.69-4.1 687.91-4.83 687.13-5.57 685.76-5.57L685.76-5.57 657.93-5.57Q656.56-5.57 655.78-4.83 655-4.1 655-3.13 655-2.15 655.78-1.42 656.56-0.68 657.93-0.68ZM682.93-6.93L682.93-6.93 692.01-6.93Q693.38-6.93 694.16-7.67 694.94-8.4 694.94-9.38 694.94-10.35 694.16-11.08 693.38-11.82 692.01-11.82L692.01-11.82 682.93-11.82Q681.56-11.82 680.78-11.08 680-10.35 680-9.38 680-8.4 680.78-7.67 681.56-6.93 682.93-6.93ZM664.18-13.18L664.18-13.18 685.76-13.18Q687.13-13.18 687.91-13.92 688.69-14.65 688.69-15.63 688.69-16.6 687.91-17.33 687.13-18.07 685.76-18.07L685.76-18.07 664.18-18.07Q662.81-18.07 662.03-17.33 661.25-16.6 661.25-15.63 661.25-14.65 662.03-13.92 662.81-13.18 664.18-13.18ZM657.93-19.43L657.93-19.43 667.01-19.43Q668.38-19.43 669.16-20.17 669.94-20.9 669.94-21.88 669.94-22.85 669.16-23.58 668.38-24.32 667.01-24.32L667.01-24.32 657.93-24.32Q656.56-24.32 655.78-23.58 655-22.85 655-21.88 655-20.9 655.78-20.17 656.56-19.43 657.93-19.43ZM664.18-25.68L664.18-25.68 692.01-25.68Q693.38-25.68 694.16-26.42 694.94-27.15 694.94-28.13 694.94-29.1 694.16-29.83 693.38-30.57 692.01-30.57L692.01-30.57 664.18-30.57Q662.81-30.57 662.03-29.83 661.25-29.1 661.25-28.13 661.25-27.15 662.03-26.42 662.81-25.68 664.18-25.68Z" opacity="1" transform="matrix(1,0,0,1,0,0)" fill="#ffffff" class="wordmark-text-0" data-fill-palette-color="primary" id="text-0"></path></svg></g></svg></g></svg></g></svg></g><g></g></svg></g></svg></g><defs></defs></svg><rect width="395.52" height="24.688509554140126" fill="none" stroke="none" visibility="hidden"></rect></g></svg></g></svg>