<svg xmlns="http://www.w3.org/2000/svg" version="1.1" xmlns:xlink="http://www.w3.org/1999/xlink" xmlns:svgjs="http://svgjs.dev/svgjs" width="2000" height="111" viewBox="0 0 2000 111"><g transform="matrix(1,0,0,1,-1.2121212121212466,-1.1020535182458744)"><svg viewBox="0 0 396 22" data-background-color="#ffffff" preserveAspectRatio="xMidYMid meet" height="111" width="2000" xmlns="http://www.w3.org/2000/svg" xmlns:xlink="http://www.w3.org/1999/xlink"><g id="tight-bounds" transform="matrix(1,0,0,1,0.2400000000000091,0.21842502163431732)"><svg viewBox="0 0 395.52 21.563149956731362" height="21.563149956731362" width="395.52"><g><svg viewBox="0 0 395.52 21.563149956731362" height="21.563149956731362" width="395.52"><g><svg viewBox="0 0 395.52 21.563149956731362" height="21.563149956731362" width="395.52"><g><svg viewBox="0 0 395.52 21.563149956731362" height="21.563149956731362" width="395.52"><g id="textblocktransform"><svg viewBox="0 0 395.52 21.563149956731362" height="21.563149956731362" width="395.52" id="textblock"><g><svg viewBox="0 0 395.52 21.563149956731362" height="21.563149956731362" width="395.52"><g transform="matrix(1,0,0,1,0,0)"><svg width="395.52" viewBox="5.03 -43.07 784.8800000000001 42.39" height="21.563149956731362" data-palette-color="#0a309f"><g class="wordmark-text-0" data-fill-palette-color="primary" id="text-0"><path d="M7.96-0.68L7.96-0.68 17.04-0.68Q18.41-0.68 19.19-1.42 19.97-2.15 19.97-3.13 19.97-4.1 19.19-4.83 18.41-5.57 17.04-5.57L17.04-5.57 7.96-5.57Q6.59-5.57 5.81-4.83 5.03-4.1 5.03-3.13 5.03-2.15 5.81-1.42 6.59-0.68 7.96-0.68ZM32.96-0.68L32.96-0.68 42.04-0.68Q43.41-0.68 44.19-1.42 44.97-2.15 44.97-3.13 44.97-4.1 44.19-4.83 43.41-5.57 42.04-5.57L42.04-5.57 32.96-5.57Q31.59-5.57 30.81-4.83 30.03-4.1 30.03-3.13 30.03-2.15 30.81-1.42 31.59-0.68 32.96-0.68ZM7.96-6.93L7.96-6.93 17.04-6.93Q18.41-6.93 19.19-7.67 19.97-8.4 19.97-9.38 19.97-10.35 19.19-11.08 18.41-11.82 17.04-11.82L17.04-11.82 7.96-11.82Q6.59-11.82 5.81-11.08 5.03-10.35 5.03-9.38 5.03-8.4 5.81-7.67 6.59-6.93 7.96-6.93ZM32.96-6.93L32.96-6.93 42.04-6.93Q43.41-6.93 44.19-7.67 44.97-8.4 44.97-9.38 44.97-10.35 44.19-11.08 43.41-11.82 42.04-11.82L42.04-11.82 32.96-11.82Q31.59-11.82 30.81-11.08 30.03-10.35 30.03-9.38 30.03-8.4 30.81-7.67 31.59-6.93 32.96-6.93ZM7.96-13.18L7.96-13.18 17.04-13.18Q18.41-13.18 19.19-13.92 19.97-14.65 19.97-15.63 19.97-16.6 19.19-17.33 18.41-18.07 17.04-18.07L17.04-18.07 7.96-18.07Q6.59-18.07 5.81-17.33 5.03-16.6 5.03-15.63 5.03-14.65 5.81-13.92 6.59-13.18 7.96-13.18ZM32.96-13.18L32.96-13.18 42.04-13.18Q43.41-13.18 44.19-13.92 44.97-14.65 44.97-15.63 44.97-16.6 44.19-17.33 43.41-18.07 42.04-18.07L42.04-18.07 32.96-18.07Q31.59-18.07 30.81-17.33 30.03-16.6 30.03-15.63 30.03-14.65 30.81-13.92 31.59-13.18 32.96-13.18ZM7.96-19.43L7.96-19.43 42.04-19.43Q43.41-19.43 44.19-20.17 44.97-20.9 44.97-21.88 44.97-22.85 44.19-23.58 43.41-24.32 42.04-24.32L42.04-24.32 7.96-24.32Q6.59-24.32 5.81-23.58 5.03-22.85 5.03-21.88 5.03-20.9 5.81-20.17 6.59-19.43 7.96-19.43ZM7.96-25.68L7.96-25.68 17.04-25.68Q18.41-25.68 19.19-26.42 19.97-27.15 19.97-28.13 19.97-29.1 19.19-29.83 18.41-30.57 17.04-30.57L17.04-30.57 7.96-30.57Q6.59-30.57 5.81-29.83 5.03-29.1 5.03-28.13 5.03-27.15 5.81-26.42 6.59-25.68 7.96-25.68ZM32.96-25.68L32.96-25.68 42.04-25.68Q43.41-25.68 44.19-26.42 44.97-27.15 44.97-28.13 44.97-29.1 44.19-29.83 43.41-30.57 42.04-30.57L42.04-30.57 32.96-30.57Q31.59-30.57 30.81-29.83 30.03-29.1 30.03-28.13 30.03-27.15 30.81-26.42 31.59-25.68 32.96-25.68ZM14.21-31.93L14.21-31.93 35.79-31.93Q37.16-31.93 37.94-32.67 38.72-33.4 38.72-34.38 38.72-35.35 37.94-36.08 37.16-36.82 35.79-36.82L35.79-36.82 14.21-36.82Q12.84-36.82 12.06-36.08 11.28-35.35 11.28-34.38 11.28-33.4 12.06-32.67 12.84-31.93 14.21-31.93ZM20.46-38.18L20.46-38.18 29.54-38.18Q30.91-38.18 31.69-38.92 32.47-39.65 32.47-40.63 32.47-41.6 31.69-42.33 30.91-43.07 29.54-43.07L29.54-43.07 20.46-43.07Q19.09-43.07 18.31-42.33 17.53-41.6 17.53-40.63 17.53-39.65 18.31-38.92 19.09-38.18 20.46-38.18ZM76.71-0.68L76.71-0.68 92.04-0.68Q93.41-0.68 94.19-1.42 94.97-2.15 94.97-3.13 94.97-4.1 94.19-4.83 93.41-5.57 92.04-5.57L92.04-5.57 76.71-5.57Q75.34-5.57 74.56-4.83 73.78-4.1 73.78-3.13 73.78-2.15 74.56-1.42 75.34-0.68 76.71-0.68ZM70.46-6.93L70.46-6.93 79.54-6.93Q80.91-6.93 81.69-7.67 82.47-8.4 82.47-9.38 82.47-10.35 81.69-11.08 80.91-11.82 79.54-11.82L79.54-11.82 70.46-11.82Q69.09-11.82 68.31-11.08 67.53-10.35 67.53-9.38 67.53-8.4 68.31-7.67 69.09-6.93 70.46-6.93ZM70.46-13.18L70.46-13.18 79.54-13.18Q80.91-13.18 81.69-13.92 82.47-14.65 82.47-15.63 82.47-16.6 81.69-17.33 80.91-18.07 79.54-18.07L79.54-18.07 70.46-18.07Q69.09-18.07 68.31-17.33 67.53-16.6 67.53-15.63 67.53-14.65 68.31-13.92 69.09-13.18 70.46-13.18ZM70.46-19.43L70.46-19.43 79.54-19.43Q80.91-19.43 81.69-20.17 82.47-20.9 82.47-21.88 82.47-22.85 81.69-23.58 80.91-24.32 79.54-24.32L79.54-24.32 70.46-24.32Q69.09-24.32 68.31-23.58 67.53-22.85 67.53-21.88 67.53-20.9 68.31-20.17 69.09-19.43 70.46-19.43ZM57.96-25.68L57.96-25.68 92.04-25.68Q93.41-25.68 94.19-26.42 94.97-27.15 94.97-28.13 94.97-29.1 94.19-29.83 93.41-30.57 92.04-30.57L92.04-30.57 57.96-30.57Q56.59-30.57 55.81-29.83 55.03-29.1 55.03-28.13 55.03-27.15 55.81-26.42 56.59-25.68 57.96-25.68ZM70.46-31.93L70.46-31.93 79.54-31.93Q80.91-31.93 81.69-32.67 82.47-33.4 82.47-34.38 82.47-35.35 81.69-36.08 80.91-36.82 79.54-36.82L79.54-36.82 70.46-36.82Q69.09-36.82 68.31-36.08 67.53-35.35 67.53-34.38 67.53-33.4 68.31-32.67 69.09-31.93 70.46-31.93ZM107.95-0.68L107.95-0.68 117.04-0.68Q118.4-0.68 119.18-1.42 119.97-2.15 119.97-3.13 119.97-4.1 119.18-4.83 118.4-5.57 117.04-5.57L117.04-5.57 107.95-5.57Q106.59-5.57 105.81-4.83 105.02-4.1 105.02-3.13 105.02-2.15 105.81-1.42 106.59-0.68 107.95-0.68ZM132.95-0.68L132.95-0.68 142.04-0.68Q143.4-0.68 144.18-1.42 144.97-2.15 144.97-3.13 144.97-4.1 144.18-4.83 143.4-5.57 142.04-5.57L142.04-5.57 132.95-5.57Q131.59-5.57 130.81-4.83 130.02-4.1 130.02-3.13 130.02-2.15 130.81-1.42 131.59-0.68 132.95-0.68ZM107.95-6.93L107.95-6.93 117.04-6.93Q118.4-6.93 119.18-7.67 119.97-8.4 119.97-9.38 119.97-10.35 119.18-11.08 118.4-11.82 117.04-11.82L117.04-11.82 107.95-11.82Q106.59-11.82 105.81-11.08 105.02-10.35 105.02-9.38 105.02-8.4 105.81-7.67 106.59-6.93 107.95-6.93ZM132.95-6.93L132.95-6.93 142.04-6.93Q143.4-6.93 144.18-7.67 144.97-8.4 144.97-9.38 144.97-10.35 144.18-11.08 143.4-11.82 142.04-11.82L142.04-11.82 132.95-11.82Q131.59-11.82 130.81-11.08 130.02-10.35 130.02-9.38 130.02-8.4 130.81-7.67 131.59-6.93 132.95-6.93ZM107.95-13.18L107.95-13.18 117.04-13.18Q118.4-13.18 119.18-13.92 119.97-14.65 119.97-15.63 119.97-16.6 119.18-17.33 118.4-18.07 117.04-18.07L117.04-18.07 107.95-18.07Q106.59-18.07 105.81-17.33 105.02-16.6 105.02-15.63 105.02-14.65 105.81-13.92 106.59-13.18 107.95-13.18ZM132.95-13.18L132.95-13.18 142.04-13.18Q143.4-13.18 144.18-13.92 144.97-14.65 144.97-15.63 144.97-16.6 144.18-17.33 143.4-18.07 142.04-18.07L142.04-18.07 132.95-18.07Q131.59-18.07 130.81-17.33 130.02-16.6 130.02-15.63 130.02-14.65 130.81-13.92 131.59-13.18 132.95-13.18ZM107.95-19.43L107.95-19.43 135.79-19.43Q137.15-19.43 137.93-20.17 138.72-20.9 138.72-21.88 138.72-22.85 137.93-23.58 137.15-24.32 135.79-24.32L135.79-24.32 107.95-24.32Q106.59-24.32 105.81-23.58 105.02-22.85 105.02-21.88 105.02-20.9 105.81-20.17 106.59-19.43 107.95-19.43ZM107.95-25.68L107.95-25.68 117.04-25.68Q118.4-25.68 119.18-26.42 119.97-27.15 119.97-28.13 119.97-29.1 119.18-29.83 118.4-30.57 117.04-30.57L117.04-30.57 107.95-30.57Q106.59-30.57 105.81-29.83 105.02-29.1 105.02-28.13 105.02-27.15 105.81-26.42 106.59-25.68 107.95-25.68ZM107.95-31.93L107.95-31.93 117.04-31.93Q118.4-31.93 119.18-32.67 119.97-33.4 119.97-34.38 119.97-35.35 119.18-36.08 118.4-36.82 117.04-36.82L117.04-36.82 107.95-36.82Q106.59-36.82 105.81-36.08 105.02-35.35 105.02-34.38 105.02-33.4 105.81-32.67 106.59-31.93 107.95-31.93ZM164.2-0.68L164.2-0.68 185.78-0.68Q187.15-0.68 187.93-1.42 188.71-2.15 188.71-3.13 188.71-4.1 187.93-4.83 187.15-5.57 185.78-5.57L185.78-5.57 164.2-5.57Q162.83-5.57 162.05-4.83 161.27-4.1 161.27-3.13 161.27-2.15 162.05-1.42 162.83-0.68 164.2-0.68ZM157.95-6.93L157.95-6.93 167.03-6.93Q168.4-6.93 169.18-7.67 169.96-8.4 169.96-9.38 169.96-10.35 169.18-11.08 168.4-11.82 167.03-11.82L167.03-11.82 157.95-11.82Q156.58-11.82 155.8-11.08 155.02-10.35 155.02-9.38 155.02-8.4 155.8-7.67 156.58-6.93 157.95-6.93ZM157.95-13.18L157.95-13.18 192.03-13.18Q193.4-13.18 194.18-13.92 194.96-14.65 194.96-15.63 194.96-16.6 194.18-17.33 193.4-18.07 192.03-18.07L192.03-18.07 157.95-18.07Q156.58-18.07 155.8-17.33 155.02-16.6 155.02-15.63 155.02-14.65 155.8-13.92 156.58-13.18 157.95-13.18ZM157.95-19.43L157.95-19.43 167.03-19.43Q168.4-19.43 169.18-20.17 169.96-20.9 169.96-21.88 169.96-22.85 169.18-23.58 168.4-24.32 167.03-24.32L167.03-24.32 157.95-24.32Q156.58-24.32 155.8-23.58 155.02-22.85 155.02-21.88 155.02-20.9 155.8-20.17 156.58-19.43 157.95-19.43ZM182.95-19.43L182.95-19.43 192.03-19.43Q193.4-19.43 194.18-20.17 194.96-20.9 194.96-21.88 194.96-22.85 194.18-23.58 193.4-24.32 192.03-24.32L192.03-24.32 182.95-24.32Q181.58-24.32 180.8-23.58 180.02-22.85 180.02-21.88 180.02-20.9 180.8-20.17 181.58-19.43 182.95-19.43ZM164.2-25.68L164.2-25.68 185.78-25.68Q187.15-25.68 187.93-26.42 188.71-27.15 188.71-28.13 188.71-29.1 187.93-29.83 187.15-30.57 185.78-30.57L185.78-30.57 164.2-30.57Q162.83-30.57 162.05-29.83 161.27-29.1 161.27-28.13 161.27-27.15 162.05-26.42 162.83-25.68 164.2-25.68ZM207.95-0.68L207.95-0.68 217.03-0.68Q218.4-0.68 219.18-1.42 219.96-2.15 219.96-3.13 219.96-4.1 219.18-4.83 218.4-5.57 217.03-5.57L217.03-5.57 207.95-5.57Q206.58-5.57 205.8-4.83 205.02-4.1 205.02-3.13 205.02-2.15 205.8-1.42 206.58-0.68 207.95-0.68ZM232.95-0.68L232.95-0.68 242.03-0.68Q243.4-0.68 244.18-1.42 244.96-2.15 244.96-3.13 244.96-4.1 244.18-4.83 243.4-5.57 242.03-5.57L242.03-5.57 232.95-5.57Q231.58-5.57 230.8-4.83 230.02-4.1 230.02-3.13 230.02-2.15 230.8-1.42 231.58-0.68 232.95-0.68ZM207.95-6.93L207.95-6.93 217.03-6.93Q218.4-6.93 219.18-7.67 219.96-8.4 219.96-9.38 219.96-10.35 219.18-11.08 218.4-11.82 217.03-11.82L217.03-11.82 207.95-11.82Q206.58-11.82 205.8-11.08 205.02-10.35 205.02-9.38 205.02-8.4 205.8-7.67 206.58-6.93 207.95-6.93ZM232.95-6.93L232.95-6.93 242.03-6.93Q243.4-6.93 244.18-7.67 244.96-8.4 244.96-9.38 244.96-10.35 244.18-11.08 243.4-11.82 242.03-11.82L242.03-11.82 232.95-11.82Q231.58-11.82 230.8-11.08 230.02-10.35 230.02-9.38 230.02-8.4 230.8-7.67 231.58-6.93 232.95-6.93ZM207.95-13.18L207.95-13.18 217.03-13.18Q218.4-13.18 219.18-13.92 219.96-14.65 219.96-15.63 219.96-16.6 219.18-17.33 218.4-18.07 217.03-18.07L217.03-18.07 207.95-18.07Q206.58-18.07 205.8-17.33 205.02-16.6 205.02-15.63 205.02-14.65 205.8-13.92 206.58-13.18 207.95-13.18ZM232.95-13.18L232.95-13.18 242.03-13.18Q243.4-13.18 244.18-13.92 244.96-14.65 244.96-15.63 244.96-16.6 244.18-17.33 243.4-18.07 242.03-18.07L242.03-18.07 232.95-18.07Q231.58-18.07 230.8-17.33 230.02-16.6 230.02-15.63 230.02-14.65 230.8-13.92 231.58-13.18 232.95-13.18ZM207.95-19.43L207.95-19.43 217.03-19.43Q218.4-19.43 219.18-20.17 219.96-20.9 219.96-21.88 219.96-22.85 219.18-23.58 218.4-24.32 217.03-24.32L217.03-24.32 207.95-24.32Q206.58-24.32 205.8-23.58 205.02-22.85 205.02-21.88 205.02-20.9 205.8-20.17 206.58-19.43 207.95-19.43ZM232.95-19.43L232.95-19.43 242.03-19.43Q243.4-19.43 244.18-20.17 244.96-20.9 244.96-21.88 244.96-22.85 244.18-23.58 243.4-24.32 242.03-24.32L242.03-24.32 232.95-24.32Q231.58-24.32 230.8-23.58 230.02-22.85 230.02-21.88 230.02-20.9 230.8-20.17 231.58-19.43 232.95-19.43ZM207.95-25.68L207.95-25.68 235.78-25.68Q237.15-25.68 237.93-26.42 238.71-27.15 238.71-28.13 238.71-29.1 237.93-29.83 237.15-30.57 235.78-30.57L235.78-30.57 207.95-30.57Q206.58-30.57 205.8-29.83 205.02-29.1 205.02-28.13 205.02-27.15 205.8-26.42 206.58-25.68 207.95-25.68ZM264.2-0.68L264.2-0.68 292.03-0.68Q293.4-0.68 294.18-1.42 294.96-2.15 294.96-3.13 294.96-4.1 294.18-4.83 293.4-5.57 292.03-5.57L292.03-5.57 264.2-5.57Q262.83-5.57 262.05-4.83 261.27-4.1 261.27-3.13 261.27-2.15 262.05-1.42 262.83-0.68 264.2-0.68ZM257.95-6.93L257.95-6.93 267.03-6.93Q268.4-6.93 269.18-7.67 269.96-8.4 269.96-9.38 269.96-10.35 269.18-11.08 268.4-11.82 267.03-11.82L267.03-11.82 257.95-11.82Q256.58-11.82 255.8-11.08 255.02-10.35 255.02-9.38 255.02-8.4 255.8-7.67 256.58-6.93 257.95-6.93ZM282.95-6.93L282.95-6.93 292.03-6.93Q293.4-6.93 294.18-7.67 294.96-8.4 294.96-9.38 294.96-10.35 294.18-11.08 293.4-11.82 292.03-11.82L292.03-11.82 282.95-11.82Q281.58-11.82 280.8-11.08 280.02-10.35 280.02-9.38 280.02-8.4 280.8-7.67 281.58-6.93 282.95-6.93ZM264.2-13.18L264.2-13.18 292.03-13.18Q293.4-13.18 294.18-13.92 294.96-14.65 294.96-15.63 294.96-16.6 294.18-17.33 293.4-18.07 292.03-18.07L292.03-18.07 264.2-18.07Q262.83-18.07 262.05-17.33 261.27-16.6 261.27-15.63 261.27-14.65 262.05-13.92 262.83-13.18 264.2-13.18ZM282.95-19.43L282.95-19.43 292.03-19.43Q293.4-19.43 294.18-20.17 294.96-20.9 294.96-21.88 294.96-22.85 294.18-23.58 293.4-24.32 292.03-24.32L292.03-24.32 282.95-24.32Q281.58-24.32 280.8-23.58 280.02-22.85 280.02-21.88 280.02-20.9 280.8-20.17 281.58-19.43 282.95-19.43ZM264.2-25.68L264.2-25.68 285.78-25.68Q287.15-25.68 287.93-26.42 288.71-27.15 288.71-28.13 288.71-29.1 287.93-29.83 287.15-30.57 285.78-30.57L285.78-30.57 264.2-30.57Q262.83-30.57 262.05-29.83 261.27-29.1 261.27-28.13 261.27-27.15 262.05-26.42 262.83-25.68 264.2-25.68Z" fill="#000000" data-fill-palette-color="primary"></path><path d="M359.17-0.68L359.17-0.68 380.75-0.68Q382.12-0.68 382.9-1.42 383.68-2.15 383.68-3.13 383.68-4.1 382.9-4.83 382.12-5.57 380.75-5.57L380.75-5.57 359.17-5.57Q357.8-5.57 357.02-4.83 356.24-4.1 356.24-3.13 356.24-2.15 357.02-1.42 357.8-0.68 359.17-0.68ZM352.92-6.93L352.92-6.93 362-6.93Q363.37-6.93 364.15-7.67 364.93-8.4 364.93-9.38 364.93-10.35 364.15-11.08 363.37-11.82 362-11.82L362-11.82 352.92-11.82Q351.55-11.82 350.77-11.08 349.99-10.35 349.99-9.38 349.99-8.4 350.77-7.67 351.55-6.93 352.92-6.93ZM377.92-6.93L377.92-6.93 387-6.93Q388.37-6.93 389.15-7.67 389.93-8.4 389.93-9.38 389.93-10.35 389.15-11.08 388.37-11.82 387-11.82L387-11.82 377.92-11.82Q376.55-11.82 375.77-11.08 374.99-10.35 374.99-9.38 374.99-8.4 375.77-7.67 376.55-6.93 377.92-6.93ZM377.92-13.18L377.92-13.18 387-13.18Q388.37-13.18 389.15-13.92 389.93-14.65 389.93-15.63 389.93-16.6 389.15-17.33 388.37-18.07 387-18.07L387-18.07 377.92-18.07Q376.55-18.07 375.77-17.33 374.99-16.6 374.99-15.63 374.99-14.65 375.77-13.92 376.55-13.18 377.92-13.18ZM359.17-19.43L359.17-19.43 380.75-19.43Q382.12-19.43 382.9-20.17 383.68-20.9 383.68-21.88 383.68-22.85 382.9-23.58 382.12-24.32 380.75-24.32L380.75-24.32 359.17-24.32Q357.8-24.32 357.02-23.58 356.24-22.85 356.24-21.88 356.24-20.9 357.02-20.17 357.8-19.43 359.17-19.43ZM352.92-25.68L352.92-25.68 362-25.68Q363.37-25.68 364.15-26.42 364.93-27.15 364.93-28.13 364.93-29.1 364.15-29.83 363.37-30.57 362-30.57L362-30.57 352.92-30.57Q351.55-30.57 350.77-29.83 349.99-29.1 349.99-28.13 349.99-27.15 350.77-26.42 351.55-25.68 352.92-25.68ZM352.92-31.93L352.92-31.93 362-31.93Q363.37-31.93 364.15-32.67 364.93-33.4 364.93-34.38 364.93-35.35 364.15-36.08 363.37-36.82 362-36.82L362-36.82 352.92-36.82Q351.55-36.82 350.77-36.08 349.99-35.35 349.99-34.38 349.99-33.4 350.77-32.67 351.55-31.93 352.92-31.93ZM377.92-31.93L377.92-31.93 387-31.93Q388.37-31.93 389.15-32.67 389.93-33.4 389.93-34.38 389.93-35.35 389.15-36.08 388.37-36.82 387-36.82L387-36.82 377.92-36.82Q376.55-36.82 375.77-36.08 374.99-35.35 374.99-34.38 374.99-33.4 375.77-32.67 376.55-31.93 377.92-31.93ZM359.17-38.18L359.17-38.18 380.75-38.18Q382.12-38.18 382.9-38.92 383.68-39.65 383.68-40.63 383.68-41.6 382.9-42.33 382.12-43.07 380.75-43.07L380.75-43.07 359.17-43.07Q357.8-43.07 357.02-42.33 356.24-41.6 356.24-40.63 356.24-39.65 357.02-38.92 357.8-38.18 359.17-38.18ZM409.16-0.68L409.16-0.68 430.75-0.68Q432.11-0.68 432.89-1.42 433.68-2.15 433.68-3.13 433.68-4.1 432.89-4.83 432.11-5.57 430.75-5.57L430.75-5.57 409.16-5.57Q407.8-5.57 407.02-4.83 406.23-4.1 406.23-3.13 406.23-2.15 407.02-1.42 407.8-0.68 409.16-0.68ZM402.91-6.93L402.91-6.93 412-6.93Q413.36-6.93 414.14-7.67 414.93-8.4 414.93-9.38 414.93-10.35 414.14-11.08 413.36-11.82 412-11.82L412-11.82 402.91-11.82Q401.55-11.82 400.77-11.08 399.98-10.35 399.98-9.38 399.98-8.4 400.77-7.67 401.55-6.93 402.91-6.93ZM402.91-13.18L402.91-13.18 437-13.18Q438.36-13.18 439.14-13.92 439.93-14.65 439.93-15.63 439.93-16.6 439.14-17.33 438.36-18.07 437-18.07L437-18.07 402.91-18.07Q401.55-18.07 400.77-17.33 399.98-16.6 399.98-15.63 399.98-14.65 400.77-13.92 401.55-13.18 402.91-13.18ZM402.91-19.43L402.91-19.43 412-19.43Q413.36-19.43 414.14-20.17 414.93-20.9 414.93-21.88 414.93-22.85 414.14-23.58 413.36-24.32 412-24.32L412-24.32 402.91-24.32Q401.55-24.32 400.77-23.58 399.98-22.85 399.98-21.88 399.98-20.9 400.77-20.17 401.55-19.43 402.91-19.43ZM427.91-19.43L427.91-19.43 437-19.43Q438.36-19.43 439.14-20.17 439.93-20.9 439.93-21.88 439.93-22.85 439.14-23.58 438.36-24.32 437-24.32L437-24.32 427.91-24.32Q426.55-24.32 425.77-23.58 424.98-22.85 424.98-21.88 424.98-20.9 425.77-20.17 426.55-19.43 427.91-19.43ZM409.16-25.68L409.16-25.68 430.75-25.68Q432.11-25.68 432.89-26.42 433.68-27.15 433.68-28.13 433.68-29.1 432.89-29.83 432.11-30.57 430.75-30.57L430.75-30.57 409.16-30.57Q407.8-30.57 407.02-29.83 406.23-29.1 406.23-28.13 406.23-27.15 407.02-26.42 407.8-25.68 409.16-25.68ZM459.16-0.68L459.16-0.68 486.99-0.68Q488.36-0.68 489.14-1.42 489.92-2.15 489.92-3.13 489.92-4.1 489.14-4.83 488.36-5.57 486.99-5.57L486.99-5.57 459.16-5.57Q457.79-5.57 457.01-4.83 456.23-4.1 456.23-3.13 456.23-2.15 457.01-1.42 457.79-0.68 459.16-0.68ZM452.91-6.93L452.91-6.93 461.99-6.93Q463.36-6.93 464.14-7.67 464.92-8.4 464.92-9.38 464.92-10.35 464.14-11.08 463.36-11.82 461.99-11.82L461.99-11.82 452.91-11.82Q451.54-11.82 450.76-11.08 449.98-10.35 449.98-9.38 449.98-8.4 450.76-7.67 451.54-6.93 452.91-6.93ZM477.91-6.93L477.91-6.93 486.99-6.93Q488.36-6.93 489.14-7.67 489.92-8.4 489.92-9.38 489.92-10.35 489.14-11.08 488.36-11.82 486.99-11.82L486.99-11.82 477.91-11.82Q476.54-11.82 475.76-11.08 474.98-10.35 474.98-9.38 474.98-8.4 475.76-7.67 476.54-6.93 477.91-6.93ZM459.16-13.18L459.16-13.18 486.99-13.18Q488.36-13.18 489.14-13.92 489.92-14.65 489.92-15.63 489.92-16.6 489.14-17.33 488.36-18.07 486.99-18.07L486.99-18.07 459.16-18.07Q457.79-18.07 457.01-17.33 456.23-16.6 456.23-15.63 456.23-14.65 457.01-13.92 457.79-13.18 459.16-13.18ZM477.91-19.43L477.91-19.43 486.99-19.43Q488.36-19.43 489.14-20.17 489.92-20.9 489.92-21.88 489.92-22.85 489.14-23.58 488.36-24.32 486.99-24.32L486.99-24.32 477.91-24.32Q476.54-24.32 475.76-23.58 474.98-22.85 474.98-21.88 474.98-20.9 475.76-20.17 476.54-19.43 477.91-19.43ZM459.16-25.68L459.16-25.68 480.74-25.68Q482.11-25.68 482.89-26.42 483.67-27.15 483.67-28.13 483.67-29.1 482.89-29.83 482.11-30.57 480.74-30.57L480.74-30.57 459.16-30.57Q457.79-30.57 457.01-29.83 456.23-29.1 456.23-28.13 456.23-27.15 457.01-26.42 457.79-25.68 459.16-25.68ZM502.91-0.68L502.91-0.68 511.99-0.68Q513.36-0.68 514.14-1.42 514.92-2.15 514.92-3.13 514.92-4.1 514.14-4.83 513.36-5.57 511.99-5.57L511.99-5.57 502.91-5.57Q501.54-5.57 500.76-4.83 499.98-4.1 499.98-3.13 499.98-2.15 500.76-1.42 501.54-0.68 502.91-0.68ZM502.91-6.93L502.91-6.93 511.99-6.93Q513.36-6.93 514.14-7.67 514.92-8.4 514.92-9.38 514.92-10.35 514.14-11.08 513.36-11.82 511.99-11.82L511.99-11.82 502.91-11.82Q501.54-11.82 500.76-11.08 499.98-10.35 499.98-9.38 499.98-8.4 500.76-7.67 501.54-6.93 502.91-6.93ZM502.91-13.18L502.91-13.18 511.99-13.18Q513.36-13.18 514.14-13.92 514.92-14.65 514.92-15.63 514.92-16.6 514.14-17.33 513.36-18.07 511.99-18.07L511.99-18.07 502.91-18.07Q501.54-18.07 500.76-17.33 499.98-16.6 499.98-15.63 499.98-14.65 500.76-13.92 501.54-13.18 502.91-13.18ZM502.91-19.43L502.91-19.43 511.99-19.43Q513.36-19.43 514.14-20.17 514.92-20.9 514.92-21.88 514.92-22.85 514.14-23.58 513.36-24.32 511.99-24.32L511.99-24.32 502.91-24.32Q501.54-24.32 500.76-23.58 499.98-22.85 499.98-21.88 499.98-20.9 500.76-20.17 501.54-19.43 502.91-19.43ZM527.91-19.43L527.91-19.43 536.99-19.43Q538.36-19.43 539.14-20.17 539.92-20.9 539.92-21.88 539.92-22.85 539.14-23.58 538.36-24.32 536.99-24.32L536.99-24.32 527.91-24.32Q526.54-24.32 525.76-23.58 524.98-22.85 524.98-21.88 524.98-20.9 525.76-20.17 526.54-19.43 527.91-19.43ZM502.91-25.68L502.91-25.68 530.74-25.68Q532.11-25.68 532.89-26.42 533.67-27.15 533.67-28.13 533.67-29.1 532.89-29.83 532.11-30.57 530.74-30.57L530.74-30.57 502.91-30.57Q501.54-30.57 500.76-29.83 499.98-29.1 499.98-28.13 499.98-27.15 500.76-26.42 501.54-25.68 502.91-25.68ZM559.16-0.68L559.16-0.68 580.74-0.68Q582.11-0.68 582.89-1.42 583.67-2.15 583.67-3.13 583.67-4.1 582.89-4.83 582.11-5.57 580.74-5.57L580.74-5.57 559.16-5.57Q557.79-5.57 557.01-4.83 556.23-4.1 556.23-3.13 556.23-2.15 557.01-1.42 557.79-0.68 559.16-0.68ZM552.91-6.93L552.91-6.93 561.99-6.93Q563.36-6.93 564.14-7.67 564.92-8.4 564.92-9.38 564.92-10.35 564.14-11.08 563.36-11.82 561.99-11.82L561.99-11.82 552.91-11.82Q551.54-11.82 550.76-11.08 549.98-10.35 549.98-9.38 549.98-8.4 550.76-7.67 551.54-6.93 552.91-6.93ZM552.91-13.18L552.91-13.18 561.99-13.18Q563.36-13.18 564.14-13.92 564.92-14.65 564.92-15.63 564.92-16.6 564.14-17.33 563.36-18.07 561.99-18.07L561.99-18.07 552.91-18.07Q551.54-18.07 550.76-17.33 549.98-16.6 549.98-15.63 549.98-14.65 550.76-13.92 551.54-13.18 552.91-13.18ZM552.91-19.43L552.91-19.43 561.99-19.43Q563.36-19.43 564.14-20.17 564.92-20.9 564.92-21.88 564.92-22.85 564.14-23.58 563.36-24.32 561.99-24.32L561.99-24.32 552.91-24.32Q551.54-24.32 550.76-23.58 549.98-22.85 549.98-21.88 549.98-20.9 550.76-20.17 551.54-19.43 552.91-19.43ZM559.16-25.68L559.16-25.68 580.74-25.68Q582.11-25.68 582.89-26.42 583.67-27.15 583.67-28.13 583.67-29.1 582.89-29.83 582.11-30.57 580.74-30.57L580.74-30.57 559.16-30.57Q557.79-30.57 557.01-29.83 556.23-29.1 556.23-28.13 556.23-27.15 557.01-26.42 557.79-25.68 559.16-25.68ZM602.9-0.68L602.9-0.68 611.99-0.68Q613.35-0.68 614.13-1.42 614.92-2.15 614.92-3.13 614.92-4.1 614.13-4.83 613.35-5.57 611.99-5.57L611.99-5.57 602.9-5.57Q601.54-5.57 600.76-4.83 599.97-4.1 599.97-3.13 599.97-2.15 600.76-1.42 601.54-0.68 602.9-0.68ZM627.9-0.68L627.9-0.68 636.99-0.68Q638.35-0.68 639.13-1.42 639.92-2.15 639.92-3.13 639.92-4.1 639.13-4.83 638.35-5.57 636.99-5.57L636.99-5.57 627.9-5.57Q626.54-5.57 625.76-4.83 624.97-4.1 624.97-3.13 624.97-2.15 625.76-1.42 626.54-0.68 627.9-0.68ZM602.9-6.93L602.9-6.93 611.99-6.93Q613.35-6.93 614.13-7.67 614.92-8.4 614.92-9.38 614.92-10.35 614.13-11.08 613.35-11.82 611.99-11.82L611.99-11.82 602.9-11.82Q601.54-11.82 600.76-11.08 599.97-10.35 599.97-9.38 599.97-8.4 600.76-7.67 601.54-6.93 602.9-6.93ZM627.9-6.93L627.9-6.93 636.99-6.93Q638.35-6.93 639.13-7.67 639.92-8.4 639.92-9.38 639.92-10.35 639.13-11.08 638.35-11.82 636.99-11.82L636.99-11.82 627.9-11.82Q626.54-11.82 625.76-11.08 624.97-10.35 624.97-9.38 624.97-8.4 625.76-7.67 626.54-6.93 627.9-6.93ZM602.9-13.18L602.9-13.18 611.99-13.18Q613.35-13.18 614.13-13.92 614.92-14.65 614.92-15.63 614.92-16.6 614.13-17.33 613.35-18.07 611.99-18.07L611.99-18.07 602.9-18.07Q601.54-18.07 600.76-17.33 599.97-16.6 599.97-15.63 599.97-14.65 600.76-13.92 601.54-13.18 602.9-13.18ZM627.9-13.18L627.9-13.18 636.99-13.18Q638.35-13.18 639.13-13.92 639.92-14.65 639.92-15.63 639.92-16.6 639.13-17.33 638.35-18.07 636.99-18.07L636.99-18.07 627.9-18.07Q626.54-18.07 625.76-17.33 624.97-16.6 624.97-15.63 624.97-14.65 625.76-13.92 626.54-13.18 627.9-13.18ZM602.9-19.43L602.9-19.43 630.74-19.43Q632.1-19.43 632.88-20.17 633.67-20.9 633.67-21.88 633.67-22.85 632.88-23.58 632.1-24.32 630.74-24.32L630.74-24.32 602.9-24.32Q601.54-24.32 600.76-23.58 599.97-22.85 599.97-21.88 599.97-20.9 600.76-20.17 601.54-19.43 602.9-19.43ZM602.9-25.68L602.9-25.68 611.99-25.68Q613.35-25.68 614.13-26.42 614.92-27.15 614.92-28.13 614.92-29.1 614.13-29.83 613.35-30.57 611.99-30.57L611.99-30.57 602.9-30.57Q601.54-30.57 600.76-29.83 599.97-29.1 599.97-28.13 599.97-27.15 600.76-26.42 601.54-25.68 602.9-25.68ZM602.9-31.93L602.9-31.93 611.99-31.93Q613.35-31.93 614.13-32.67 614.92-33.4 614.92-34.38 614.92-35.35 614.13-36.08 613.35-36.82 611.99-36.82L611.99-36.82 602.9-36.82Q601.54-36.82 600.76-36.08 599.97-35.35 599.97-34.38 599.97-33.4 600.76-32.67 601.54-31.93 602.9-31.93ZM659.15-0.68L659.15-0.68 680.73-0.68Q682.1-0.68 682.88-1.42 683.66-2.15 683.66-3.13 683.66-4.1 682.88-4.83 682.1-5.57 680.73-5.57L680.73-5.57 659.15-5.57Q657.78-5.57 657-4.83 656.22-4.1 656.22-3.13 656.22-2.15 657-1.42 657.78-0.68 659.15-0.68ZM652.9-6.93L652.9-6.93 661.98-6.93Q663.35-6.93 664.13-7.67 664.91-8.4 664.91-9.38 664.91-10.35 664.13-11.08 663.35-11.82 661.98-11.82L661.98-11.82 652.9-11.82Q651.53-11.82 650.75-11.08 649.97-10.35 649.97-9.38 649.97-8.4 650.75-7.67 651.53-6.93 652.9-6.93ZM677.9-6.93L677.9-6.93 686.98-6.93Q688.35-6.93 689.13-7.67 689.91-8.4 689.91-9.38 689.91-10.35 689.13-11.08 688.35-11.82 686.98-11.82L686.98-11.82 677.9-11.82Q676.53-11.82 675.75-11.08 674.97-10.35 674.97-9.38 674.97-8.4 675.75-7.67 676.53-6.93 677.9-6.93ZM652.9-13.18L652.9-13.18 661.98-13.18Q663.35-13.18 664.13-13.92 664.91-14.65 664.91-15.63 664.91-16.6 664.13-17.33 663.35-18.07 661.98-18.07L661.98-18.07 652.9-18.07Q651.53-18.07 650.75-17.33 649.97-16.6 649.97-15.63 649.97-14.65 650.75-13.92 651.53-13.18 652.9-13.18ZM677.9-13.18L677.9-13.18 686.98-13.18Q688.35-13.18 689.13-13.92 689.91-14.65 689.91-15.63 689.91-16.6 689.13-17.33 688.35-18.07 686.98-18.07L686.98-18.07 677.9-18.07Q676.53-18.07 675.75-17.33 674.97-16.6 674.97-15.63 674.97-14.65 675.75-13.92 676.53-13.18 677.9-13.18ZM652.9-19.43L652.9-19.43 661.98-19.43Q663.35-19.43 664.13-20.17 664.91-20.9 664.91-21.88 664.91-22.85 664.13-23.58 663.35-24.32 661.98-24.32L661.98-24.32 652.9-24.32Q651.53-24.32 650.75-23.58 649.97-22.85 649.97-21.88 649.97-20.9 650.75-20.17 651.53-19.43 652.9-19.43ZM671.65-19.43L671.65-19.43 686.98-19.43Q688.35-19.43 689.13-20.17 689.91-20.9 689.91-21.88 689.91-22.85 689.13-23.58 688.35-24.32 686.98-24.32L686.98-24.32 671.65-24.32Q670.28-24.32 669.5-23.58 668.72-22.85 668.72-21.88 668.72-20.9 669.5-20.17 670.28-19.43 671.65-19.43ZM652.9-25.68L652.9-25.68 661.98-25.68Q663.35-25.68 664.13-26.42 664.91-27.15 664.91-28.13 664.91-29.1 664.13-29.83 663.35-30.57 661.98-30.57L661.98-30.57 652.9-30.57Q651.53-30.57 650.75-29.83 649.97-29.1 649.97-28.13 649.97-27.15 650.75-26.42 651.53-25.68 652.9-25.68ZM652.9-31.93L652.9-31.93 661.98-31.93Q663.35-31.93 664.13-32.67 664.91-33.4 664.91-34.38 664.91-35.35 664.13-36.08 663.35-36.82 661.98-36.82L661.98-36.82 652.9-36.82Q651.53-36.82 650.75-36.08 649.97-35.35 649.97-34.38 649.97-33.4 650.75-32.67 651.53-31.93 652.9-31.93ZM677.9-31.93L677.9-31.93 686.98-31.93Q688.35-31.93 689.13-32.67 689.91-33.4 689.91-34.38 689.91-35.35 689.13-36.08 688.35-36.82 686.98-36.82L686.98-36.82 677.9-36.82Q676.53-36.82 675.75-36.08 674.97-35.35 674.97-34.38 674.97-33.4 675.75-32.67 676.53-31.93 677.9-31.93ZM659.15-38.18L659.15-38.18 680.73-38.18Q682.1-38.18 682.88-38.92 683.66-39.65 683.66-40.63 683.66-41.6 682.88-42.33 682.1-43.07 680.73-43.07L680.73-43.07 659.15-43.07Q657.78-43.07 657-42.33 656.22-41.6 656.22-40.63 656.22-39.65 657-38.92 657.78-38.18 659.15-38.18ZM702.9-0.68L702.9-0.68 711.98-0.68Q713.35-0.68 714.13-1.42 714.91-2.15 714.91-3.13 714.91-4.1 714.13-4.83 713.35-5.57 711.98-5.57L711.98-5.57 702.9-5.57Q701.53-5.57 700.75-4.83 699.97-4.1 699.97-3.13 699.97-2.15 700.75-1.42 701.53-0.68 702.9-0.68ZM702.9-6.93L702.9-6.93 711.98-6.93Q713.35-6.93 714.13-7.67 714.91-8.4 714.91-9.38 714.91-10.35 714.13-11.08 713.35-11.82 711.98-11.82L711.98-11.82 702.9-11.82Q701.53-11.82 700.75-11.08 699.97-10.35 699.97-9.38 699.97-8.4 700.75-7.67 701.53-6.93 702.9-6.93ZM702.9-13.18L702.9-13.18 711.98-13.18Q713.35-13.18 714.13-13.92 714.91-14.65 714.91-15.63 714.91-16.6 714.13-17.33 713.35-18.07 711.98-18.07L711.98-18.07 702.9-18.07Q701.53-18.07 700.75-17.33 699.97-16.6 699.97-15.63 699.97-14.65 700.75-13.92 701.53-13.18 702.9-13.18ZM702.9-19.43L702.9-19.43 730.73-19.43Q732.1-19.43 732.88-20.17 733.66-20.9 733.66-21.88 733.66-22.85 732.88-23.58 732.1-24.32 730.73-24.32L730.73-24.32 702.9-24.32Q701.53-24.32 700.75-23.58 699.97-22.85 699.97-21.88 699.97-20.9 700.75-20.17 701.53-19.43 702.9-19.43ZM702.9-25.68L702.9-25.68 711.98-25.68Q713.35-25.68 714.13-26.42 714.91-27.15 714.91-28.13 714.91-29.1 714.13-29.83 713.35-30.57 711.98-30.57L711.98-30.57 702.9-30.57Q701.53-30.57 700.75-29.83 699.97-29.1 699.97-28.13 699.97-27.15 700.75-26.42 701.53-25.68 702.9-25.68ZM727.9-25.68L727.9-25.68 736.98-25.68Q738.35-25.68 739.13-26.42 739.91-27.15 739.91-28.13 739.91-29.1 739.13-29.83 738.35-30.57 736.98-30.57L736.98-30.57 727.9-30.57Q726.53-30.57 725.75-29.83 724.97-29.1 724.97-28.13 724.97-27.15 725.75-26.42 726.53-25.68 727.9-25.68ZM702.9-31.93L702.9-31.93 711.98-31.93Q713.35-31.93 714.13-32.67 714.91-33.4 714.91-34.38 714.91-35.35 714.13-36.08 713.35-36.82 711.98-36.82L711.98-36.82 702.9-36.82Q701.53-36.82 700.75-36.08 699.97-35.35 699.97-34.38 699.97-33.4 700.75-32.67 701.53-31.93 702.9-31.93ZM727.9-31.93L727.9-31.93 736.98-31.93Q738.35-31.93 739.13-32.67 739.91-33.4 739.91-34.38 739.91-35.35 739.13-36.08 738.35-36.82 736.98-36.82L736.98-36.82 727.9-36.82Q726.53-36.82 725.75-36.08 724.97-35.35 724.97-34.38 724.97-33.4 725.75-32.67 726.53-31.93 727.9-31.93ZM702.9-38.18L702.9-38.18 730.73-38.18Q732.1-38.18 732.88-38.92 733.66-39.65 733.66-40.63 733.66-41.6 732.88-42.33 732.1-43.07 730.73-43.07L730.73-43.07 702.9-43.07Q701.53-43.07 700.75-42.33 699.97-41.6 699.97-40.63 699.97-39.65 700.75-38.92 701.53-38.18 702.9-38.18ZM765.4-0.68L765.4-0.68 774.48-0.68Q775.85-0.68 776.63-1.42 777.41-2.15 777.41-3.13 777.41-4.1 776.63-4.83 775.85-5.57 774.48-5.57L774.48-5.57 765.4-5.57Q764.03-5.57 763.25-4.83 762.47-4.1 762.47-3.13 762.47-2.15 763.25-1.42 764.03-0.68 765.4-0.68ZM765.4-6.93L765.4-6.93 774.48-6.93Q775.85-6.93 776.63-7.67 777.41-8.4 777.41-9.38 777.41-10.35 776.63-11.08 775.85-11.82 774.48-11.82L774.48-11.82 765.4-11.82Q764.03-11.82 763.25-11.08 762.47-10.35 762.47-9.38 762.47-8.4 763.25-7.67 764.03-6.93 765.4-6.93ZM765.4-13.18L765.4-13.18 774.48-13.18Q775.85-13.18 776.63-13.92 777.41-14.65 777.41-15.63 777.41-16.6 776.63-17.33 775.85-18.07 774.48-18.07L774.48-18.07 765.4-18.07Q764.03-18.07 763.25-17.33 762.47-16.6 762.47-15.63 762.47-14.65 763.25-13.92 764.03-13.18 765.4-13.18ZM765.4-19.43L765.4-19.43 774.48-19.43Q775.85-19.43 776.63-20.17 777.41-20.9 777.41-21.88 777.41-22.85 776.63-23.58 775.85-24.32 774.48-24.32L774.48-24.32 765.4-24.32Q764.03-24.32 763.25-23.58 762.47-22.85 762.47-21.88 762.47-20.9 763.25-20.17 764.03-19.43 765.4-19.43ZM765.4-25.68L765.4-25.68 774.48-25.68Q775.85-25.68 776.63-26.42 777.41-27.15 777.41-28.13 777.41-29.1 776.63-29.83 775.85-30.57 774.48-30.57L774.48-30.57 765.4-30.57Q764.03-30.57 763.25-29.83 762.47-29.1 762.47-28.13 762.47-27.15 763.25-26.42 764.03-25.68 765.4-25.68ZM765.4-31.93L765.4-31.93 774.48-31.93Q775.85-31.93 776.63-32.67 777.41-33.4 777.41-34.38 777.41-35.35 776.63-36.08 775.85-36.82 774.48-36.82L774.48-36.82 765.4-36.82Q764.03-36.82 763.25-36.08 762.47-35.35 762.47-34.38 762.47-33.4 763.25-32.67 764.03-31.93 765.4-31.93ZM752.9-38.18L752.9-38.18 786.98-38.18Q788.35-38.18 789.13-38.92 789.91-39.65 789.91-40.63 789.91-41.6 789.13-42.33 788.35-43.07 786.98-43.07L786.98-43.07 752.9-43.07Q751.53-43.07 750.75-42.33 749.97-41.6 749.97-40.63 749.97-39.65 750.75-38.92 751.53-38.18 752.9-38.18Z" fill="#000000" data-fill-palette-color="secondary"></path></g></svg></g></svg></g></svg></g></svg></g><g></g></svg></g></svg></g><defs></defs></svg><rect width="395.52" height="21.563149956731362" fill="none" stroke="none" visibility="hidden"></rect></g></svg></g></svg>