<?xml version="1.0" encoding="utf-8"?>
<!-- Generator: Adobe Illustrator 26.0.3, SVG Export Plug-In . SVG Version: 6.00 Build 0)  -->
<svg version="1.1" id="Layer_1" xmlns="http://www.w3.org/2000/svg" xmlns:xlink="http://www.w3.org/1999/xlink" x="0px" y="0px"
	 viewBox="0 0 1280 769" style="enable-background:new 0 0 1280 769;" xml:space="preserve">
<style type="text/css">
	.st0{fill:#231F20;}
	.st1{fill:#0A0E94;}
	.st2{fill:#29232E;}
	.st3{fill:none;}
</style>
<g>
	<g>
		<g>
			<path class="st0" d="M867.13873,384.50024c0-3.32025-0.08704-6.62018-0.22882-9.90613l0.22046,10.56232
				C867.13104,384.93719,867.13873,384.71964,867.13873,384.50024z"/>
			<path class="st0" d="M793.07745,216.83411l8.66577,8.35829C798.9267,222.33295,796.04077,219.54227,793.07745,216.83411z"/>
			<path class="st0" d="M779.88214,536.62946l0.21606-0.18707l13.75885,14.9978c1.76233-1.62573,3.49786-3.27979,5.20813-4.95972
				l-14.55524-14.2475C782.98914,533.72113,781.448,535.18829,779.88214,536.62946z"/>
			<path class="st0" d="M464.39932,240.5394l7.50861-8.69688C469.33209,234.6759,466.83142,237.57845,464.39932,240.5394z"/>
			<path class="st0" d="M656.2522,586.4823v4.16321c43.05359-3.36707,82.43976-19.98279,114.08972-45.75568l9.54022-8.26038
				c1.56586-1.44116,3.10699-2.90833,4.62781-4.39648l-2.96252-2.8999C748.63074,561.51422,704.83264,582.60413,656.2522,586.4823z"
				/>
			<path class="st0" d="M437.3457,384.50024c0-47.84207,16.67633-91.85599,44.50702-126.55902l-2.97507-2.91394
				c-26.36057,32.73566-42.9726,73.63174-45.37122,118.2482l-0.28583,12.95151c0.02722,3.29947,0.12701,6.58176,0.3078,9.84323
				l4.13013-0.39227C437.4563,391.97659,437.3457,388.25122,437.3457,384.50024z"/>
			<path class="st0" d="M639.98175,587.13684c-47.84454,0-91.86047-16.67816-126.56433-44.51172l-3.01816,2.89099
				c31.19534,25.15521,69.81552,41.44519,112.00943,45.01337l10.03564,0.60248c2.50287,0.09015,5.01294,0.15186,7.53741,0.15186
				c0.99957,0,1.99347-0.02374,2.98962-0.03796v-4.14697C641.97528,587.11334,640.98132,587.13684,639.98175,587.13684z"/>
			<path class="st0" d="M620.31116,182.82112v-4.16324c-45.94458,4.35629-87.55688,23.8018-119.81003,53.32263l-7.05176,6.76256
				c-2.38791,2.40051-4.71588,4.86043-6.98465,7.37489l2.96268,2.90598
				C522.41852,212.39726,568.54492,187.83133,620.31116,182.82112z"/>
			<path class="st0" d="M495.08359,559.29578l-8.13263-7.0694C489.603,554.64813,492.31906,557.00012,495.08359,559.29578z"/>
			<path class="st0" d="M846.54144,375.073c-2.10303-46.62689-19.71716-89.27798-47.79773-122.90929l-5.66681-6.52147
				l0.00006-0.00006c-1.46509-1.61377-2.96265-3.19698-4.47729-4.76379l-2.74707,3.1192
				c33.13818,34.39209,54.26038,80.42981,56.54742,131.29291L846.54144,375.073z"/>
			<path class="st0" d="M842.58569,387.07263c-0.64355,51.39297-20.50018,98.24167-52.72333,133.66089l2.80951,3.0647
				c28.61487-31.33887,47.72461-71.48758,52.75549-115.84515l0.82611-9.01764c0.27783-4.00958,0.4375-8.05069,0.48242-12.1192
				L842.58569,387.07263z"/>
			<path class="st0" d="M639.98175,181.86366c51.75183,0,99.02576,19.51068,134.87738,51.55009l3.05695-2.82864
				c-33.37219-29.93796-76.49622-49.20242-123.95935-52.38586l-9.7937-0.42947c-1.39142-0.02777-2.78333-0.05309-4.18127-0.05309
				c-2.12207,0-4.23413,0.04247-6.34106,0.10625v4.14969C635.7475,181.90752,637.8595,181.86366,639.98175,181.86366z"/>
			<path class="st0" d="M439.14075,411.44196l-4.21555-0.19952c5.54376,42.74393,24.18942,81.43259,51.76617,111.89532
				l7.01276,7.38037c2.41235,2.4165,4.88339,4.77423,7.41193,7.06995l2.90781-2.96082
				C469.38074,503.2243,445.62421,460.0271,439.14075,411.44196z"/>
			<path class="st0" d="M792.93036,216.69217l0.14709,0.14194c2.96332,2.70816,5.84924,5.49884,8.66577,8.35829l0.36279,0.34993
				l-0.01001,0.01138c1.74805,1.78255,3.47021,3.59026,5.15936,5.42923l2.96112-3.06163
				c-2.17621-2.36127-4.3938-4.69368-6.67798-6.97781c-40.24481-40.24484-92.71039-63.81606-149.02631-67.28418v4.16133
				c53.13751,3.37157,101.37225,25.08141,138.41547,58.87399L792.93036,216.69217z"/>
			<path class="st0" d="M869.95166,409.42294l-4.17078-0.13522c-5.42438,49.75067-26.97638,94.72064-59.30579,129.5675
				l0.01013,0.01117l-6.63098,8.38647l-0.78906-0.7724c-1.71027,1.67993-3.4458,3.33398-5.20813,4.95972l2.87561,3.13452
				c2.30194-2.12579,4.57733-4.28967,6.80585-6.51819C841.29639,510.29913,864.37756,461.78275,869.95166,409.42294z"/>
			<path class="st0" d="M620.31116,158.20406v-0.01608l0.62683-0.03973c2.99347-0.24969,6.00293-0.44054,9.02795-0.57248
				l3.67474-0.23299v0.0929c2.10724-0.05803,4.22015-0.0929,6.34106-0.0929c0.85101,0,1.69659,0.02298,2.54529,0.03233v-4.14828
				c-0.84857-0.00912-1.69519-0.03101-2.54529-0.03101c-57.74384,0-112.25409,21.02136-154.80212,59.43633l2.67545,3.32278
				C523.58582,183.67354,569.59308,162.57565,620.31116,158.20406z"/>
			<path class="st0" d="M495.58316,559.70758l-0.01227,0.01178l-0.4873-0.42358c-2.76453-2.29565-5.48059-4.64764-8.13263-7.0694
				l-0.11386-0.09894l0.00363-0.00366c-2.76367-2.52704-5.46271-5.12305-8.09882-7.78198l-3.12781,2.8833
				c0.2728,0.27545,0.53711,0.55713,0.8114,0.83142c39.74429,39.74481,91.40622,63.23767,146.92654,67.15601l-0.24634-4.18231
				C574.87634,607.47125,530.79559,588.7796,495.58316,559.70758z"/>
			<path class="st0" d="M866.88739,374.0043l0.01019-0.00049l0.01233,0.5903c0.14178,3.28595,0.22882,6.58588,0.22882,9.90613
				c0,0.21939-0.00769,0.43695-0.00836,0.65619l0.00836,0.39923l-0.01343,0.00082c-0.0177,3.86362-0.13098,7.70477-0.34027,11.52118
				l4.17316-0.27539c0.21252-4.08261,0.32751-8.18335,0.32751-12.30203c0-52.95346-17.6886-103.18155-50.24628-143.96539
				l-3.81207,2.06848C846.38977,278.95728,864.62109,324.43076,866.88739,374.0043z"/>
			<path class="st0" d="M414.29489,410.26605l-1.07199-0.05075v-12.21664l0.0141-0.00131
				c-0.20773-3.52719-0.3317-7.07599-0.37595-10.64401l-4.14676,0.13983c0.70163,55.65714,20.94403,108.15338,57.47498,149.63403
				l3.53177-2.43335C439.69373,500.69452,419.67197,457.67172,414.29489,410.26605z"/>
			<path class="st0" d="M656.2522,611.06866v0.58856l-5.90588-0.24628c-3.43683,0.15515-6.89008,0.24628-10.36456,0.24628
				c-1.67432,0-3.34229-0.02734-5.00812-0.0636v4.1496c1.66693,0.03522,3.33557,0.06097,5.00812,0.06097
				c53.69055,0,104.58264-18.17871,145.6662-51.60944l-2.69586-3.31421C747.83112,589.4035,704.06635,607.66809,656.2522,611.06866z
				"/>
			<path class="st0" d="M464.26086,240.7112l-0.00537-0.00525l0.14383-0.16655c2.4321-2.96095,4.93277-5.86349,7.50861-8.69688
				l0.00119-0.00139l0.00009,0.00006c2.62848-2.89122,5.33606-5.70886,8.10834-8.46144l-2.78619-3.22273
				c-0.26697,0.26443-0.53995,0.52058-0.80585,0.78648c-41.13034,41.12984-64.85556,95.02296-67.49341,152.74733l4.15967-0.0972
				C415.48044,323.31808,434.28793,277.27341,464.26086,240.7112z"/>
			<path class="st0" d="M464.25549,240.70595l0.00537,0.00525c0.04666-0.05688,0.09177-0.11497,0.13846-0.1718L464.25549,240.70595z
				"/>
			<polygon class="st0" points="471.90912,231.84113 471.90793,231.84251 471.90921,231.84119 			"/>
			<path class="st0" d="M493.44937,238.74307l7.05176-6.76256C498.09814,234.17993,495.74637,236.43394,493.44937,238.74307z"/>
			<path class="st0" d="M644.16302,177.76978l9.7937,0.42947C650.71143,177.98157,647.44714,177.83528,644.16302,177.76978z"/>
			<path class="st0" d="M792.93036,216.69217l-0.00269,0.00247c0.05042,0.04601,0.09943,0.09346,0.14978,0.13947
				L792.93036,216.69217z"/>
			<path class="st0" d="M802.10602,225.54233l-0.36279-0.34993c0.1181,0.11992,0.23486,0.24115,0.35278,0.36131L802.10602,225.54233
				z"/>
			<path class="st0" d="M798.74371,252.16371c-1.84637-2.21143-3.73132-4.38963-5.66675-6.52153l-0.00006,0.00006
				L798.74371,252.16371z"/>
			<path class="st0" d="M867.13873,385.55566l-0.00836-0.39923c-0.00037,0.13367-0.00439,0.26642-0.00507,0.40005
				L867.13873,385.55566z"/>
			<path class="st0" d="M866.89758,374.00381l-0.01019,0.00049c0.00897,0.19623,0.01404,0.39346,0.02252,0.58981
				L866.89758,374.00381z"/>
			<path class="st0" d="M846.25348,398.93542l-0.82611,9.01764C845.76624,404.96542,846.04388,401.9599,846.25348,398.93542z"/>
			<path class="st0" d="M799.85425,547.25287l6.63098-8.38647l-0.01013-0.01117c-2.41107,2.59882-4.88123,5.14124-7.40991,7.62524
				L799.85425,547.25287z"/>
			<path class="st0" d="M779.88214,536.62946l-9.54022,8.26038C773.60583,542.23199,776.78741,539.47772,779.88214,536.62946z"/>
			<path class="st0" d="M632.44434,591.13196l-10.03564-0.60248C625.7323,590.81055,629.07819,591.01062,632.44434,591.13196z"/>
			<path class="st0" d="M493.70413,530.51813l-7.01276-7.38037C488.96945,525.65424,491.30655,528.11621,493.70413,530.51813z"/>
			<path class="st0" d="M495.57089,559.71936l0.01227-0.01178c-0.16641-0.13739-0.33353-0.27399-0.49957-0.4118L495.57089,559.71936
				z"/>
			<path class="st0" d="M486.8371,552.12744l0.11386,0.09894c-0.03708-0.03387-0.07321-0.06873-0.11023-0.1026L486.8371,552.12744z"
				/>
			<path class="st0" d="M433.19873,384.50024c0,0.5773,0.01715,1.15051,0.02188,1.72675l0.28583-12.95151
				C433.30661,376.99274,433.19873,380.73404,433.19873,384.50024z"/>
			<path class="st0" d="M413.2229,397.99866v12.21664l1.07199,0.05075c-0.46036-4.05875-0.81522-8.14865-1.05789-12.26871
				L413.2229,397.99866z"/>
			<polygon class="st0" points="785.8526,243.99759 804.11078,225.55371 806.9248,228.1189 789.00397,245.64218 			"/>
			<polygon class="st0" points="642.52704,157.37511 642.52704,181.8815 638.5282,178.65788 638.5282,155.2507 			"/>
			<polygon class="st0" points="480.01755,223.37975 494.41513,237.77733 490.74005,241.51875 476.32181,227.10052 			"/>
			<polygon class="st0" points="412.86105,387.35333 433.22061,387.35333 433.35257,392.15787 412.86105,392.15787 			"/>
			<polygon class="st0" points="478.74191,544.3418 493.1485,529.93524 497.00055,533.74573 481.23837,549.50793 			"/>
			<polygon class="st0" points="642.97137,591.24585 642.97137,611.63422 638.5282,611.63422 638.5282,590.52948 			"/>
		</g>
		<path class="st0" d="M508.8334,521.31769c0,0,0.07428,0.2489,0.23425,0.70428
			c14.12534,13.17645,30.2579,24.22412,47.88956,32.62225C541.08917,546.07379,519.9267,533.36725,508.8334,521.31769z"/>
		<path class="st0" d="M586.77319,346.25635c-4.36285-2.63257-9.41913-4.8468-14.28693-5.02884c0,0-2.18524-0.25345-5.56226,0.18695
			C574.45447,340.73737,581.34454,343.20264,586.77319,346.25635z"/>
		<path class="st0" d="M552.22284,347.01776c5.47437-3.69791,10.85938-5.10223,14.70117-5.6033
			C562.20654,341.83859,557.23901,343.49637,552.22284,347.01776z"/>
		<path class="st0" d="M722.48004,343.82922c3.08203,1.24512,5.86011,2.81604,8.23541,4.39996
			C727.90118,346.20056,725.09204,344.79535,722.48004,343.82922z"/>
		<path class="st0" d="M552.22284,347.01776c-2.45453,1.65811-4.92657,3.77313-7.28516,6.48111
			C547.36206,350.85489,549.79803,348.72003,552.22284,347.01776z"/>
		<path class="st0" d="M586.77319,346.25635c6.83386,4.1236,11.96149,9.27661,11.96149,9.27661
			S594.07684,350.36469,586.77319,346.25635z"/>
		<path class="st0" d="M722.48004,343.82922c-10.18237-4.11365-23.66913-4.66568-36.81348,9.66965
			c0,0,0.07281,0.09802,0.2074,0.27017c4.55255-3.96976,14.46399-11.60739,23.69269-11.95245
			C709.56665,341.81659,715.26172,341.15945,722.48004,343.82922z"/>
		<path class="st0" d="M665.37115,497.88263c0,0-12.77783-18.21219-22.10431-6.90295c0,0-8.73883-9.25293-16.52319,1.32178
			c0,0-6.02161,11.30917-20.41516,11.30917c0,0,34.51495,40.97726,73.87665,0
			C680.20514,503.61063,669.04297,502.87628,665.37115,497.88263z M623.51263,510.36676h39.21484
			C662.72748,510.36676,643.9278,520.94159,623.51263,510.36676z"/>
		<path class="st0" d="M651.31061,459.82349c-1.32086,0.84531-2.43182,1.97403-3.32666,3.25699
			c-0.5249,0.75269-0.96796,1.56039-1.35132,2.39319c-0.33051,0.71808-0.57379,2.53281-1.09491,3.03403
			c3.91705-3.76801,9.67078-1.42691,14.38184-1.76981c2.90417-0.2113,5.84314-1.10706,8.02771-3.03223
			c5.14685-4.53583,2.54614-12.1369,0.06134-17.37506c0.86792,1.82962,0.29236,5.62271,0.06628,7.53314
			c-0.34027,2.87552-2.90155,7.24771-6.43573,5.96573c-1.92493-0.69806-2.54486-2.02176-4.83618-1.89151
			C654.90076,458.04614,652.90698,458.80191,651.31061,459.82349z"/>
		<path class="st0" d="M618.5802,463.70566c2.18457,1.92517,5.12378,2.82092,8.02771,3.03223
			c4.71112,0.3429,10.46484-1.9982,14.38202,1.76981c-0.52118-0.50122-0.76453-2.31595-1.09509-3.03403
			c-0.38336-0.83279-0.82642-1.6405-1.35138-2.39319c-0.89484-1.28296-2.0058-2.41168-3.32654-3.25699
			c-1.59644-1.02158-3.59015-1.77734-5.49237-1.88553c-2.29132-0.13025-2.91138,1.19345-4.83624,1.89151
			c-3.53418,1.28198-6.09534-3.09021-6.43567-5.96573c-0.22601-1.91043-0.80176-5.70352,0.06616-7.53314
			C616.03406,451.56876,613.43347,459.16983,618.5802,463.70566z"/>
		<path class="st0" d="M551.04089,359.88693c1.29059,1.14587,2.72998,2.3031,4.27155,3.3446l0.02545-0.02161
			C553.7431,362.12323,552.30341,360.98599,551.04089,359.88693z"/>
		<path class="st0" d="M569.27405,359.2916c3.06958,0.18906,5.71124-2.14609,5.90027-5.2157
			c0.18909-3.06955-2.14612-5.71118-5.2157-5.90033c-3.06958-0.18896-5.71118,2.14618-5.90021,5.21579
			C563.86932,356.46085,566.20447,359.10251,569.27405,359.2916z"/>
		<path class="st0" d="M559.77191,359.45541c0,0-3.01581-7.48734,1.2923-11.95071c0,0,7.05487-7.2843,15.15234-1.01382
			c0,0,5.18274,5.04779,2.60852,11.84308c0,0-3.88312,9.98309-15.73761,4.87213l-0.77747,0.67358
			c-0.2691-0.03082-0.43481-0.04242-0.43481-0.04242c-0.62891,0.84906-1.33752,1.49457-2.07733,2.008
			c6.46863,3.25256,14.64612,4.9122,23.71228,1.11105c-0.13263,0.00046-0.27167,0.00266-0.40253,0.00253
			c1.5993-0.66287,3.24261-1.50034,4.91602-2.56116c0,0,7.466-5.36197,10.71106-8.86472c0,0-5.12762-5.15302-11.96149-9.27661
			c-5.42865-3.05371-12.31873-5.51898-19.84918-4.84189c-3.8418,0.50107-9.22681,1.9054-14.70117,5.6033
			c-2.4248,1.70227-4.86078,3.83713-7.28516,6.48111c0,0,2.44232,3.13782,6.10321,6.38806
			c1.26251,1.09906,2.70221,2.2363,4.297,3.323L559.77191,359.45541z"/>
		<path class="st0" d="M726.84088,365.72342c-0.61542-0.36746-0.9809-0.63452-0.9809-0.63452
			c-0.26526-0.08844-0.55078-0.13974-0.84363-0.17484c0.21094-0.12302,0.41602-0.2565,0.62408-0.38501
			c-1.70508,0.28452-3.37091,0.9494-4.20117,1.31766l-2.34528-2.03217c-11.85443,5.11102-15.73767-4.87204-15.73767-4.87204
			c-2.57416-6.79541,2.60846-11.8432,2.60846-11.8432c8.09766-6.27042,15.15234,1.01398,15.15234,1.01398
			c4.30817,4.46332,1.29236,11.95056,1.29236,11.95056l4.38879,3.71634c5.88574-3.99374,10.31702-9.6922,10.31702-9.6922
			c-2.07513-2.38245-4.23822-4.30072-6.39984-5.8588c-2.37531-1.58392-5.15338-3.15485-8.23541-4.39996
			c-7.21832-2.66977-12.91339-2.01263-12.91339-2.01263c-9.2287,0.34506-19.14014,7.9827-23.69269,11.95245
			C687.9184,356.38333,705.13922,377.18353,726.84088,365.72342z"/>
		<path class="st0" d="M729.66223,364.06293c0.66998-0.43503,1.3432-0.89804,2.02051-1.39801l-3.16882,0.52817L729.66223,364.06293z
			"/>
		<path class="st0" d="M712.22272,348.78415c-3.06958,0.18903-5.40472,2.83069-5.21558,5.90024
			c0.1889,3.06964,2.83051,5.40482,5.90021,5.21567c3.06964-0.18903,5.40472-2.83063,5.21558-5.90021
			C717.93402,350.9303,715.29242,348.59512,712.22272,348.78415z"/>
		<path class="st0" d="M734.77002,367.93256l-5.10779-3.86963c-0.94818,0.61563-1.88885,1.168-2.82135,1.66049
			C728.37787,366.64093,731.52106,368.20325,734.77002,367.93256z"/>
		<path class="st0" d="M544.93768,353.49887c0,0,2.22156,3.00894,6.10321,6.38806
			C547.38,356.63669,544.93768,353.49887,544.93768,353.49887z"/>
		<path class="st0" d="M588.02362,364.39767c-1.6734,1.06082-3.31671,1.89828-4.91602,2.56116
			c0.13086,0.00012,0.2699-0.00208,0.40253-0.00253c4.8623-2.03857,9.97858-5.64151,15.22455-11.42334
			C595.48962,359.03571,588.02362,364.39767,588.02362,364.39767z"/>
		<path class="st0" d="M737.1153,354.08798c0,0-4.43127,5.69846-10.31702,9.6922l0.73541,0.6228
			c-0.60907-0.03796-1.25354,0.01932-1.89325,0.12607c-0.20807,0.12851-0.41315,0.26199-0.62408,0.38501
			c0.29285,0.0351,0.57837,0.0864,0.84363,0.17484c0,0,0.36548,0.26706,0.9809,0.63452
			c0.9325-0.49249,1.87317-1.04486,2.82135-1.66049l-1.14832-0.86984l3.16882-0.52817
			c2.55078-1.8833,5.14941-4.23175,7.78088-7.13196c0,0-3.32007-3.68402-8.74817-7.30377
			C732.87708,349.78726,735.04016,351.70554,737.1153,354.08798z"/>
		<path class="st0" d="M726.79828,363.78018c-0.38037,0.25809-0.76617,0.50714-1.15784,0.74887
			c0.63971-0.10675,1.28418-0.16403,1.89325-0.12607L726.79828,363.78018z"/>
		<path class="st0" d="M551.10461,367.16638c0,0,4.82562,1.36316,8.69324-1.32114c-1.59479-0.80179-3.08545-1.6987-4.45996-2.63531
			l-0.02545,0.02161c0.04364,0.02945,0.08545,0.06085,0.12927,0.09015c-0.10126,0.04984-0.20001,0.08868-0.3009,0.13654
			C555.1012,364.27008,554.22736,365.47119,551.10461,367.16638z"/>
		<path class="st0" d="M555.31244,363.23154l-0.16785,0.14212c0.00055,0.02728-0.00232,0.05627-0.00378,0.08456
			c0.10089-0.04785,0.19965-0.0867,0.3009-0.13654C555.39789,363.29239,555.35608,363.26099,555.31244,363.23154z"/>
		<path class="st0" d="M544.46814,261.271c-0.11432,0.25443-0.20996,0.52063-0.26318,0.81055
			C544.29266,261.81137,544.38043,261.54114,544.46814,261.271z"/>
		<path class="st0" d="M844.25653,381.92111c0-1.84317-0.02704-3.6799-0.07574-5.51154
			c-5.13843-11.41956-18.20471-37.54599-37.32135-55.56351c0,0-32.61322-27.8942-36.91272-46.5509l1.82965-3.68625l61.4389,54.6384
			l6.55109,13.92792c-1.32007-6.21362-2.91632-12.3262-4.78827-18.31894c-15.86487-15.07516-47.73273-45.50729-65.03137-63.06812
			c0,0,35.11176,15.40619,42.99408,23.28839c0,0-28.66284-27.94612-32.60388-39.76942c0,0,10.68182,8.60336,15.84363,8.79973
			c-2.17871-2.59253-4.4386-5.11314-6.74048-7.59421l-18.15381-6.58429l15.92609,24.14493l-24.01154-8.08554l9.31061,13.96585
			l-1.71515,0.73508c-21.07129-6.37039-34.79218-16.90608-34.79218-16.90608l1.47009,13.47585
			c-1.71509-1.22507-3.67529-12.98582-3.67529-12.98582c-12.25079,12.00575-1.55902,31.36198-1.55902,31.36198l-4.07629-0.73508
			c2.30615,9.09976,4.07629,28.91187,4.07629,28.91187c-17.23993,2.94016-29.60083-34.79218-29.60083-34.79218
			c-31.56647-1.78372-62.43188-23.52147-62.43195-23.52138c-15.04364,14.40276-36.10742,24.3166-57.26672,21.05394
			c0.44971,1.31442,0.07129,2.75204-0.30823,4.08844c-1.14874,4.04422-2.27374,8.14835-4.89459,11.48822
			c-3.91846,4.99347-8.56525,9.33963-13.02679,13.84305c-0.84998,0.85803-1.89838,1.78632-3.09186,1.60101
			c-1.57123-0.24396-2.17609-2.15836-2.38855-3.73416c-1.44452-10.71375,0.01221-21.77045-2.50391-32.28424
			c-0.74561-3.11539-2.02338-6.38968-4.76349-8.04907c-2.48792-1.50665-6.36725-0.74448-7.49481,1.76596
			c-0.08771,0.27014-0.17548,0.54037-0.26318,0.81055c0.05322-0.28992,0.14886-0.55612,0.26318-0.81055
			c0.51025-1.5715,1.02039-3.14297,1.53064-4.71448c-2.7774-2.58562-7.31964-2.39842-10.62354-0.53192
			c-3.30389,1.86649-5.62518,5.05243-7.71381,8.22061c-2.08862,3.16812-4.11145,6.48492-7.0824,8.84561
			c-0.83508,0.66351-2.03406,1.24884-2.90625,0.63504c-0.53815-0.37866-0.72412-1.07898-0.85834-1.72318
			c-1.4231-6.83038-1.27087-13.9841,0.44153-20.74782c-5.50204,1.5491-11.00406,3.09819-16.50613,4.64734
			c0.49039-1.91228,1.86618-3.45273,3.1965-4.91127c3.44318-3.77505,6.88638-7.55008,10.32953-11.32509
			c-2.58994-0.06757-5.24835-0.14908-7.64069-1.1436c-2.39236-0.99451-4.49536-3.12021-4.68466-5.70409
			c-6.15784,5.72095-12.3157,11.44196-18.47348,17.16295c6.46518-3.35759,12.57208-7.4045,18.18375-12.05009
			c1.61768,2.24957,4.47949,3.53932,7.2363,3.26114c-3.30298,3.27104-6.60599,6.54208-9.909,9.81313
			c-0.84866,0.84044-1.72586,1.726-2.09717,2.86121c-0.31058,0.94974-0.23669,1.99332-0.5556,2.94031
			c-0.44727,1.32828-1.59189,2.27972-2.68405,3.15808c-4.45782,3.58514-8.91559,7.17032-13.37341,10.75546
			c10.63107-6.53448,21.61215-13.20325,33.92587-15.22629c-1.95996,11.36087-10.97369,19.99191-19.49503,27.75708
			c-11.47226,10.45422-22.94455,20.90842-34.41684,31.36261c-6.15839,5.61191-12.37054,11.28433-17.15128,18.10803
			c-4.78073,6.82373-8.07687,14.9931-7.65329,23.31412c6.92697-18.08136,20.75281-32.61899,35.30203-45.39542
			c9.25116-8.12387,18.93195-15.75174,28.01099-24.07275c4.40829-4.04025,8.38452-9.78574,13.1413-13.27286
			c2.59415-1.90179,2.32242-0.12866,2.67838,2.50134c0.20813,1.53784,0.41687,3.07553,0.62524,4.61334
			c-14.72708,19.27383-55.86346,65.8468-55.86346,65.8468c-15.83627,18.35498-22.47968,36.26242-25.18552,46.48669
			c0.43314,8.22888,1.34409,16.33328,2.72009,24.28128c-0.10907-17.14407,3.79761-33.94443,12.46365-48.1694
			c14.95401-24.54645,35.72824-46.02853,55.43036-66.77591c7.02621-7.39902,14.39014-13.74115,19.44543-22.72803
			c4.61609-8.20602,9.23212-17.20776,17.58612-21.55032c-0.9574,4.57571-1.91486,9.1514-2.87225,13.72705
			c4.48871-1.92203,8.15674-5.68372,9.96497-10.21945c-0.76349,1.91501,0.2713,6.05914-0.08795,8.32547
			c-0.41797,2.63687-1.2735,5.11649-2.26001,7.5864c-1.41852,3.55173-3.05518,7.08054-5.12848,10.3056
			c0,0,7.50934-1.78796,7.52441-1.7905c2.99567-0.4967,1.36987,11.31311,1.08704,12.79547
			c-1.38849,7.27588-4.50232,14.56332-7.88654,21.11255c-4.24139,8.2081-9.67029,15.80276-16.06891,22.4678
			c-6.57867,6.85257-14.51404,12.02835-21.28918,18.66312c-14.36093,14.06323-26.72577,30.94666-33.43753,50.03183
			c-17.64108,49.66391,22.41522,103.39059,22.41522,103.39059c-9.0629-4.06149-17.25961-9.93045-24.43323-17.09003
			c8.64471,12.69614,18.67984,24.37006,29.87711,34.81512c-0.17334-0.49353-0.25385-0.76331-0.25385-0.76331
			c12.02237,13.05884,34.95721,26.82959,52.1543,36.11774c26.66589,12.70123,56.48096,19.82275,87.93091,19.82275
			c69.85913,0,131.66382-35.10284,168.73413-88.58685c-7.41547,5.36734-15.19116,10.31375-19.65662,16.62219
			c6.11176-10.50766,11.2207-21.72452,15.70093-33.00714c6.7301-16.94839,13.09088-35.05389,12.69958-53.53665
			c-0.38031-17.96088-10.78491-33.37589-21.82111-46.94647c-24.62683-30.28198-55.28717-55.66913-62.76556-95.90741
			c-0.00067-0.00226,7.52332,1.78918,7.52332,1.78918s-9.67371-15.04794-7.52399-26.15466c0,0,5.37421,10.03189,10.03204,10.03189
			l-2.86646-13.61478c0,0,3.25842,5.51154,7.31195,11.57465l-2.11163-10.26965l21.07141,12.74084h-3.67523
			c4.33734,10.06989,25.48163,36.75229,25.48163,36.75229c28.66681,28.42178,49.73816,62.92035,49.73816,62.92035
			c5.76056,8.98694,5.50159,31.15128,5.12006,40.32071C843.50317,402.06168,844.25653,392.07822,844.25653,381.92111z
			 M488.51346,393.67136c2.22513-4.69342,4.98627-9.13336,8.21365-13.20322c7.18311-9.05826,16.77991-14.59961,25.8017-21.56235
			c6.99969-5.40219,16.46234-18.67621,17.21802-27.5329c-1.38403,16.22134-11.97351,28.64471-23.0965,39.59995
			c-11.84348,11.66489-23.04367,23.35248-32.97482,36.69464C486.09055,404.42285,486.67068,397.55832,488.51346,393.67136z
			 M503.36206,518.44189c29.0343,31.97449,90.77814,57.70111,90.77814,57.70111
			C522.8407,557.03186,503.36206,518.44189,503.36206,518.44189z M514.42865,518.97681c0,0-51.53088-49.08481-37.19952-103.18558
			c0,0,6.09082,23.51077,11.46506,24.65356c0,0-1.43314-19.27939,3.58282-25.72849c0,0,3.22449,50.49609,17.91422,64.12186
			c0,0-17.91422-61.25546,5.01587-99.59183c-4.2352,7.08072-0.84247,26.80164-0.53577,34.53702
			c0.88745,22.38269,3.33246,46.59326,12.7655,67.1951c3.56409,7.784,7.74249,15.63934,12.48322,23.33774
			c21.15594,34.35519,53.51001,65.58585,92.44214,73.4183C632.36578,577.73529,591.39752,589.20038,514.42865,518.97681z
			 M691.62488,574.03479c0,0,61.74396-25.72662,90.77826-57.70111C782.40314,516.33368,762.92438,554.92365,691.62488,574.03479z
			 M764.70514,358.90579c9.02179,6.96274,18.61859,12.50409,25.80176,21.56235c3.22736,4.06985,5.98853,8.5098,8.21362,13.20322
			c1.84277,3.88696,2.42291,10.7515,4.83789,13.99612c-9.93121-13.34216-21.13135-25.02975-32.97479-36.69464
			c-11.12292-10.95523-21.7124-23.3786-23.0965-39.59995C748.24274,340.22958,757.70538,353.5036,764.70514,358.90579z
			 M668.60748,338.92722l12.51208-0.18961c0,0-20.47418,13.45996-22.74921,23.12845h5.11859c0,0,8.53107,11.75375,29.57404,8.15182
			c0,0-10.80585-1.70624-17.25146-7.39359c0,0,9.22729,2.39896,20.29474,3.56952c-0.68719-0.36966-1.37866-0.76434-2.07697-1.20706
			c0,0-7.46606-5.36194-10.711-8.86469c0,0,0.94568-0.94913,2.55566-2.35303c-0.13458-0.17215-0.2074-0.27017-0.2074-0.27017
			c13.14435-14.33533,26.6311-13.78329,36.81348-9.66965c2.612,0.96613,5.42114,2.37134,8.23541,4.39996
			c5.4281,3.61975,8.74817,7.30377,8.74817,7.30377c-2.63147,2.90021-5.2301,5.24866-7.78088,7.13196l0.24359-0.04062
			c0,0,5.49786,3.41245,14.97662,3.03329c0,0-6.63513-2.65408-8.34131-5.11862l5.11847-3.03326
			c0,0,10.43738,7.63181,11.44781,21.86829l11.23596-0.12766c22.92999,38.33633,5.01593,99.59183,5.01593,99.59183
			c14.68964-13.62576,17.91406-64.12186,17.91406-64.12186c5.01605,6.4491,3.58289,25.72849,3.58289,25.72849
			c5.37433-1.14279,11.46503-24.65356,11.46503-24.65356c14.33136,54.10077-37.19934,103.18558-37.19934,103.18558
			c-76.96887,70.22357-117.93732,58.75848-117.93732,58.75848c62.09802-12.49103,108.89001-82.06897,116.02789-142.09314
			c2.20691-18.55878,2.7832-37.74881,1.13086-56.39581c0.35974,143.62903-123.71246,199.18323-123.71246,199.18323
			c-122.67725-49.37244-128.60175-196.31705-128.60175-196.31705l16.87-0.19165
			c-0.40155-8.60217,2.19312-17.88953,12.18774-24.60464c0,0,15.35577,2.08533-0.7583,7.96222c0,0,5.88312,1.45584,12.79169-1.82022
			c0.00146-0.02829,0.00433-0.05728,0.00378-0.08456l0.16785-0.14212c-1.54156-1.0415-2.98096-2.19873-4.27155-3.3446
			c-3.88165-3.37912-6.10321-6.38806-6.10321-6.38806c2.35858-2.70798,4.83063-4.823,7.28516-6.48111
			c5.01617-3.52139,9.9837-5.17917,14.70117-5.6033c3.37701-0.4404,5.56226-0.18695,5.56226-0.18695
			c4.8678,0.18204,9.92407,2.39627,14.28693,5.02884c7.30365,4.10834,11.96149,9.27661,11.96149,9.27661
			c-5.24597,5.78183-10.36224,9.38477-15.22455,11.42334c7.90826-0.02167,18.92053-0.92245,26.70764-5.09024
			c0,0-6.44562,6.44559-16.49316,8.3414c0,0,17.06195,3.60196,29.5741-8.3414l4.36023,1.13745
			c0,0-4.73938-14.02869-22.74933-23.50754h12.133c0,0-25.40344-15.35574-71.28113-11.56424c0,0,18.00989-7.96228,47.7735-4.17072
			c0,0-2.27484-5.87689-36.96753-5.68738c0,0,26.16162-11.56412,30.14276-38.67368c0,0,36.20935-0.18961,54.59833-21.61179
			c0,0,27.8678,20.09515,57.44183,21.23267c0,0,5.11859,29.57401,31.28015,38.10498c0,0-28.43658,1.70621-36.77789,5.11859
			c0,0,29.00525-0.75827,48.53168,4.17072C741.7843,326.41513,693.82135,324.89853,668.60748,338.92722z M728.03235,336.30286
			l-35.63116,2.88904C692.40118,339.19189,706.84619,331.00629,728.03235,336.30286z M556.10345,336.30286
			c21.18616-5.29657,35.63123,2.88904,35.63123,2.88904L556.10345,336.30286z"/>
	</g>
	<g>
		<g>
			<path class="st1" d="M867.13873,384.50024c0-3.32025-0.08704-6.62018-0.22882-9.90613l0.22046,10.56232
				C867.13104,384.93719,867.13873,384.71964,867.13873,384.50024z"/>
			<path class="st1" d="M793.07745,216.83411l8.66577,8.35829C798.9267,222.33295,796.04077,219.54227,793.07745,216.83411z"/>
			<path class="st1" d="M779.88214,536.62946l0.21606-0.18707l13.75885,14.9978c1.76233-1.62573,3.49786-3.27979,5.20813-4.95972
				l-14.55524-14.2475C782.98914,533.72113,781.448,535.18829,779.88214,536.62946z"/>
			<path class="st1" d="M464.39932,240.5394l7.50861-8.69688C469.33209,234.6759,466.83142,237.57845,464.39932,240.5394z"/>
			<path class="st1" d="M656.2522,586.4823v4.16321c43.05359-3.36707,82.43976-19.98279,114.08972-45.75568l9.54022-8.26038
				c1.56586-1.44116,3.10699-2.90833,4.62781-4.39648l-2.96252-2.8999C748.63074,561.51422,704.83264,582.60413,656.2522,586.4823z"
				/>
			<path class="st1" d="M437.3457,384.50024c0-47.84207,16.67633-91.85599,44.50702-126.55902l-2.97507-2.91394
				c-26.36057,32.73566-42.9726,73.63174-45.37122,118.2482l-0.28583,12.95151c0.02722,3.29947,0.12701,6.58176,0.3078,9.84323
				l4.13013-0.39227C437.4563,391.97659,437.3457,388.25122,437.3457,384.50024z"/>
			<path class="st1" d="M639.98175,587.13684c-47.84454,0-91.86047-16.67816-126.56433-44.51172l-3.01816,2.89099
				c31.19534,25.15521,69.81552,41.44519,112.00943,45.01337l10.03564,0.60248c2.50287,0.09015,5.01294,0.15186,7.53741,0.15186
				c0.99957,0,1.99347-0.02374,2.98962-0.03796v-4.14697C641.97528,587.11334,640.98132,587.13684,639.98175,587.13684z"/>
			<path class="st1" d="M620.31116,182.82112v-4.16324c-45.94458,4.35629-87.55688,23.8018-119.81003,53.32263l-7.05176,6.76256
				c-2.38791,2.40051-4.71588,4.86043-6.98465,7.37489l2.96268,2.90598
				C522.41852,212.39726,568.54492,187.83133,620.31116,182.82112z"/>
			<path class="st1" d="M495.08359,559.29578l-8.13263-7.0694C489.603,554.64813,492.31906,557.00012,495.08359,559.29578z"/>
			<path class="st1" d="M846.54144,375.073c-2.10303-46.62689-19.71716-89.27798-47.79773-122.90929l-5.66681-6.52147
				l0.00006-0.00006c-1.46509-1.61377-2.96265-3.19698-4.47729-4.76379l-2.74707,3.1192
				c33.13818,34.39209,54.26038,80.42981,56.54742,131.29291L846.54144,375.073z"/>
			<path class="st1" d="M842.58569,387.07263c-0.64355,51.39297-20.50018,98.24167-52.72333,133.66089l2.80951,3.0647
				c28.61487-31.33887,47.72461-71.48758,52.75549-115.84515l0.82611-9.01764c0.27783-4.00958,0.4375-8.05069,0.48242-12.1192
				L842.58569,387.07263z"/>
			<path class="st1" d="M639.98175,181.86366c51.75183,0,99.02576,19.51068,134.87738,51.55009l3.05695-2.82864
				c-33.37219-29.93796-76.49622-49.20242-123.95935-52.38586l-9.7937-0.42947c-1.39142-0.02777-2.78333-0.05309-4.18127-0.05309
				c-2.12207,0-4.23413,0.04247-6.34106,0.10625v4.14969C635.7475,181.90752,637.8595,181.86366,639.98175,181.86366z"/>
			<path class="st1" d="M439.14075,411.44196l-4.21555-0.19952c5.54376,42.74393,24.18942,81.43259,51.76617,111.89532
				l7.01276,7.38037c2.41235,2.4165,4.88339,4.77423,7.41193,7.06995l2.90781-2.96082
				C469.38074,503.2243,445.62421,460.0271,439.14075,411.44196z"/>
			<path class="st1" d="M792.93036,216.69217l0.14709,0.14194c2.96332,2.70816,5.84924,5.49884,8.66577,8.35829l0.36279,0.34993
				l-0.01001,0.01138c1.74805,1.78255,3.47021,3.59026,5.15936,5.42923l2.96112-3.06163
				c-2.17621-2.36127-4.3938-4.69368-6.67798-6.97781c-40.24481-40.24484-92.71039-63.81606-149.02631-67.28418v4.16133
				c53.13751,3.37157,101.37225,25.08141,138.41547,58.87399L792.93036,216.69217z"/>
			<path class="st1" d="M869.95166,409.42294l-4.17078-0.13522c-5.42438,49.75067-26.97638,94.72064-59.30579,129.5675
				l0.01013,0.01117l-6.63098,8.38647l-0.78906-0.7724c-1.71027,1.67993-3.4458,3.33398-5.20813,4.95972l2.87561,3.13452
				c2.30194-2.12579,4.57733-4.28967,6.80585-6.51819C841.29639,510.29913,864.37756,461.78275,869.95166,409.42294z"/>
			<path class="st1" d="M620.31116,158.20406v-0.01608l0.62683-0.03973c2.99347-0.24969,6.00293-0.44054,9.02795-0.57248
				l3.67474-0.23299v0.0929c2.10724-0.05803,4.22015-0.0929,6.34106-0.0929c0.85101,0,1.69659,0.02298,2.54529,0.03233v-4.14828
				c-0.84857-0.00912-1.69519-0.03101-2.54529-0.03101c-57.74384,0-112.25409,21.02136-154.80212,59.43633l2.67545,3.32278
				C523.58582,183.67354,569.59308,162.57565,620.31116,158.20406z"/>
			<path class="st1" d="M495.58316,559.70758l-0.01227,0.01178l-0.4873-0.42358c-2.76453-2.29565-5.48059-4.64764-8.13263-7.0694
				l-0.11386-0.09894l0.00363-0.00366c-2.76367-2.52704-5.46271-5.12305-8.09882-7.78198l-3.12781,2.8833
				c0.2728,0.27545,0.53711,0.55713,0.8114,0.83142c39.74429,39.74481,91.40622,63.23767,146.92654,67.15601l-0.24634-4.18231
				C574.87634,607.47125,530.79559,588.7796,495.58316,559.70758z"/>
			<path class="st1" d="M866.88739,374.0043l0.01019-0.00049l0.01233,0.5903c0.14178,3.28595,0.22882,6.58588,0.22882,9.90613
				c0,0.21939-0.00769,0.43695-0.00836,0.65619l0.00836,0.39923l-0.01343,0.00082c-0.0177,3.86362-0.13098,7.70477-0.34027,11.52118
				l4.17316-0.27539c0.21252-4.08261,0.32751-8.18335,0.32751-12.30203c0-52.95346-17.6886-103.18155-50.24628-143.96539
				l-3.81207,2.06848C846.38977,278.95728,864.62109,324.43076,866.88739,374.0043z"/>
			<path class="st1" d="M414.29489,410.26605l-1.07199-0.05075v-12.21664l0.0141-0.00131
				c-0.20773-3.52719-0.3317-7.07599-0.37595-10.64401l-4.14676,0.13983c0.70163,55.65714,20.94403,108.15338,57.47498,149.63403
				l3.53177-2.43335C439.69373,500.69452,419.67197,457.67172,414.29489,410.26605z"/>
			<path class="st1" d="M656.2522,611.06866v0.58856l-5.90588-0.24628c-3.43683,0.15515-6.89008,0.24628-10.36456,0.24628
				c-1.67432,0-3.34229-0.02734-5.00812-0.0636v4.1496c1.66693,0.03522,3.33557,0.06097,5.00812,0.06097
				c53.69055,0,104.58264-18.17871,145.6662-51.60944l-2.69586-3.31421C747.83112,589.4035,704.06635,607.66809,656.2522,611.06866z
				"/>
			<path class="st1" d="M464.26086,240.7112l-0.00537-0.00525l0.14383-0.16655c2.4321-2.96095,4.93277-5.86349,7.50861-8.69688
				l0.00119-0.00139l0.00009,0.00006c2.62848-2.89122,5.33606-5.70886,8.10834-8.46144l-2.78619-3.22273
				c-0.26697,0.26443-0.53995,0.52058-0.80585,0.78648c-41.13034,41.12984-64.85556,95.02296-67.49341,152.74733l4.15967-0.0972
				C415.48044,323.31808,434.28793,277.27341,464.26086,240.7112z"/>
			<path class="st1" d="M464.25549,240.70595l0.00537,0.00525c0.04666-0.05688,0.09177-0.11497,0.13846-0.1718L464.25549,240.70595z
				"/>
			<polygon class="st1" points="471.90912,231.84113 471.90793,231.84251 471.90921,231.84119 			"/>
			<path class="st1" d="M493.44937,238.74307l7.05176-6.76256C498.09814,234.17993,495.74637,236.43394,493.44937,238.74307z"/>
			<path class="st1" d="M644.16302,177.76978l9.7937,0.42947C650.71143,177.98157,647.44714,177.83528,644.16302,177.76978z"/>
			<path class="st1" d="M792.93036,216.69217l-0.00269,0.00247c0.05042,0.04601,0.09943,0.09346,0.14978,0.13947
				L792.93036,216.69217z"/>
			<path class="st1" d="M802.10602,225.54233l-0.36279-0.34993c0.1181,0.11992,0.23486,0.24115,0.35278,0.36131L802.10602,225.54233
				z"/>
			<path class="st1" d="M798.74371,252.16371c-1.84637-2.21143-3.73132-4.38963-5.66675-6.52153l-0.00006,0.00006
				L798.74371,252.16371z"/>
			<path class="st1" d="M867.13873,385.55566l-0.00836-0.39923c-0.00037,0.13367-0.00439,0.26642-0.00507,0.40005
				L867.13873,385.55566z"/>
			<path class="st1" d="M866.89758,374.00381l-0.01019,0.00049c0.00897,0.19623,0.01404,0.39346,0.02252,0.58981
				L866.89758,374.00381z"/>
			<path class="st1" d="M846.25348,398.93542l-0.82611,9.01764C845.76624,404.96542,846.04388,401.9599,846.25348,398.93542z"/>
			<path class="st1" d="M799.85425,547.25287l6.63098-8.38647l-0.01013-0.01117c-2.41107,2.59882-4.88123,5.14124-7.40991,7.62524
				L799.85425,547.25287z"/>
			<path class="st1" d="M779.88214,536.62946l-9.54022,8.26038C773.60583,542.23199,776.78741,539.47772,779.88214,536.62946z"/>
			<path class="st1" d="M632.44434,591.13196l-10.03564-0.60248C625.7323,590.81055,629.07819,591.01062,632.44434,591.13196z"/>
			<path class="st1" d="M493.70413,530.51813l-7.01276-7.38037C488.96945,525.65424,491.30655,528.11621,493.70413,530.51813z"/>
			<path class="st1" d="M495.57089,559.71936l0.01227-0.01178c-0.16641-0.13739-0.33353-0.27399-0.49957-0.4118L495.57089,559.71936
				z"/>
			<path class="st1" d="M486.8371,552.12744l0.11386,0.09894c-0.03708-0.03387-0.07321-0.06873-0.11023-0.1026L486.8371,552.12744z"
				/>
			<path class="st1" d="M433.19873,384.50024c0,0.5773,0.01715,1.15051,0.02188,1.72675l0.28583-12.95151
				C433.30661,376.99274,433.19873,380.73404,433.19873,384.50024z"/>
			<path class="st1" d="M413.2229,397.99866v12.21664l1.07199,0.05075c-0.46036-4.05875-0.81522-8.14865-1.05789-12.26871
				L413.2229,397.99866z"/>
			<polygon class="st1" points="785.8526,243.99759 804.11078,225.55371 806.9248,228.1189 789.00397,245.64218 			"/>
			<polygon class="st1" points="642.52704,157.37511 642.52704,181.8815 638.5282,178.65788 638.5282,155.2507 			"/>
			<polygon class="st1" points="480.01755,223.37975 494.41513,237.77733 490.74005,241.51875 476.32181,227.10052 			"/>
			<polygon class="st1" points="412.86105,387.35333 433.22061,387.35333 433.35257,392.15787 412.86105,392.15787 			"/>
			<polygon class="st1" points="478.74191,544.3418 493.1485,529.93524 497.00055,533.74573 481.23837,549.50793 			"/>
			<polygon class="st1" points="642.97137,591.24585 642.97137,611.63422 638.5282,611.63422 638.5282,590.52948 			"/>
		</g>
		<path class="st2" d="M508.8334,521.31769c0,0,0.07428,0.2489,0.23425,0.70428
			c14.12534,13.17645,30.2579,24.22412,47.88956,32.62225C541.08917,546.07379,519.9267,533.36725,508.8334,521.31769z"/>
		<path class="st3" d="M512.86505,509.58389c0,0,17.97339,35.6077,83.76288,53.24197
			C596.62793,562.82587,539.65558,539.0874,512.86505,509.58389z"/>
		<path class="st3" d="M512.86505,509.58389c0,0,17.97339,35.6077,83.76288,53.24197
			C596.62793,562.82587,539.65558,539.0874,512.86505,509.58389z"/>
		<path class="st3" d="M512.86505,509.58389c0,0,17.97339,35.6077,83.76288,53.24197
			C596.62793,562.82587,539.65558,539.0874,512.86505,509.58389z"/>
		<path class="st3" d="M503.36206,518.44189c0,0,19.47864,38.58997,90.77814,57.70111
			C594.1402,576.14301,532.39636,550.41638,503.36206,518.44189z"/>
		<path class="st1" d="M586.77319,346.25635c-4.36285-2.63257-9.41913-4.8468-14.28693-5.02884c0,0-2.18524-0.25345-5.56226,0.18695
			C574.45447,340.73737,581.34454,343.20264,586.77319,346.25635z"/>
		<path class="st1" d="M552.22284,347.01776c5.47437-3.69791,10.85938-5.10223,14.70117-5.6033
			C562.20654,341.83859,557.23901,343.49637,552.22284,347.01776z"/>
		<path class="st1" d="M722.48004,343.82922c3.08203,1.24512,5.86011,2.81604,8.23541,4.39996
			C727.90118,346.20056,725.09204,344.79535,722.48004,343.82922z"/>
		<path class="st1" d="M552.22284,347.01776c-2.45453,1.65811-4.92657,3.77313-7.28516,6.48111
			C547.36206,350.85489,549.79803,348.72003,552.22284,347.01776z"/>
		<path class="st1" d="M586.77319,346.25635c6.83386,4.1236,11.96149,9.27661,11.96149,9.27661
			S594.07684,350.36469,586.77319,346.25635z"/>
		<path class="st1" d="M722.48004,343.82922c-10.18237-4.11365-23.66913-4.66568-36.81348,9.66965
			c0,0,0.07281,0.09802,0.2074,0.27017c4.55255-3.96976,14.46399-11.60739,23.69269-11.95245
			C709.56665,341.81659,715.26172,341.15945,722.48004,343.82922z"/>
		<path class="st1" d="M665.37115,497.88263c0,0-12.77783-18.21219-22.10431-6.90295c0,0-8.73883-9.25293-16.52319,1.32178
			c0,0-6.02161,11.30917-20.41516,11.30917c0,0,34.51495,40.97726,73.87665,0
			C680.20514,503.61063,669.04297,502.87628,665.37115,497.88263z M623.51263,510.36676h39.21484
			C662.72748,510.36676,643.9278,520.94159,623.51263,510.36676z"/>
		<path class="st1" d="M651.31061,459.82349c-1.32086,0.84531-2.43182,1.97403-3.32666,3.25699
			c-0.5249,0.75269-0.96796,1.56039-1.35132,2.39319c-0.33051,0.71808-0.57379,2.53281-1.09491,3.03403
			c3.91705-3.76801,9.67078-1.42691,14.38184-1.76981c2.90417-0.2113,5.84314-1.10706,8.02771-3.03223
			c5.14685-4.53583,2.54614-12.1369,0.06134-17.37506c0.86792,1.82962,0.29236,5.62271,0.06628,7.53314
			c-0.34027,2.87552-2.90155,7.24771-6.43573,5.96573c-1.92493-0.69806-2.54486-2.02176-4.83618-1.89151
			C654.90076,458.04614,652.90698,458.80191,651.31061,459.82349z"/>
		<path class="st1" d="M618.5802,463.70566c2.18457,1.92517,5.12378,2.82092,8.02771,3.03223
			c4.71112,0.3429,10.46484-1.9982,14.38202,1.76981c-0.52118-0.50122-0.76453-2.31595-1.09509-3.03403
			c-0.38336-0.83279-0.82642-1.6405-1.35138-2.39319c-0.89484-1.28296-2.0058-2.41168-3.32654-3.25699
			c-1.59644-1.02158-3.59015-1.77734-5.49237-1.88553c-2.29132-0.13025-2.91138,1.19345-4.83624,1.89151
			c-3.53418,1.28198-6.09534-3.09021-6.43567-5.96573c-0.22601-1.91043-0.80176-5.70352,0.06616-7.53314
			C616.03406,451.56876,613.43347,459.16983,618.5802,463.70566z"/>
		<path class="st1" d="M551.04089,359.88693c1.29059,1.14587,2.72998,2.3031,4.27155,3.3446l0.02545-0.02161
			C553.7431,362.12323,552.30341,360.98599,551.04089,359.88693z"/>
		<path class="st1" d="M569.27405,359.2916c3.06958,0.18906,5.71124-2.14609,5.90027-5.2157
			c0.18909-3.06955-2.14612-5.71118-5.2157-5.90033c-3.06958-0.18896-5.71118,2.14618-5.90021,5.21579
			C563.86932,356.46085,566.20447,359.10251,569.27405,359.2916z"/>
		<path class="st1" d="M559.77191,359.45541c0,0-3.01581-7.48734,1.2923-11.95071c0,0,7.05487-7.2843,15.15234-1.01382
			c0,0,5.18274,5.04779,2.60852,11.84308c0,0-3.88312,9.98309-15.73761,4.87213l-0.77747,0.67358
			c-0.2691-0.03082-0.43481-0.04242-0.43481-0.04242c-0.62891,0.84906-1.33752,1.49457-2.07733,2.008
			c6.46863,3.25256,14.64612,4.9122,23.71228,1.11105c-0.13263,0.00046-0.27167,0.00266-0.40253,0.00253
			c1.5993-0.66287,3.24261-1.50034,4.91602-2.56116c0,0,7.466-5.36197,10.71106-8.86472c0,0-5.12762-5.15302-11.96149-9.27661
			c-5.42865-3.05371-12.31873-5.51898-19.84918-4.84189c-3.8418,0.50107-9.22681,1.9054-14.70117,5.6033
			c-2.4248,1.70227-4.86078,3.83713-7.28516,6.48111c0,0,2.44232,3.13782,6.10321,6.38806
			c1.26251,1.09906,2.70221,2.2363,4.297,3.323L559.77191,359.45541z"/>
		<path class="st1" d="M726.84088,365.72342c-0.61542-0.36746-0.9809-0.63452-0.9809-0.63452
			c-0.26526-0.08844-0.55078-0.13974-0.84363-0.17484c0.21094-0.12302,0.41602-0.2565,0.62408-0.38501
			c-1.70508,0.28452-3.37091,0.9494-4.20117,1.31766l-2.34528-2.03217c-11.85443,5.11102-15.73767-4.87204-15.73767-4.87204
			c-2.57416-6.79541,2.60846-11.8432,2.60846-11.8432c8.09766-6.27042,15.15234,1.01398,15.15234,1.01398
			c4.30817,4.46332,1.29236,11.95056,1.29236,11.95056l4.38879,3.71634c5.88574-3.99374,10.31702-9.6922,10.31702-9.6922
			c-2.07513-2.38245-4.23822-4.30072-6.39984-5.8588c-2.37531-1.58392-5.15338-3.15485-8.23541-4.39996
			c-7.21832-2.66977-12.91339-2.01263-12.91339-2.01263c-9.2287,0.34506-19.14014,7.9827-23.69269,11.95245
			C687.9184,356.38333,705.13922,377.18353,726.84088,365.72342z"/>
		<path class="st1" d="M729.66223,364.06293c0.66998-0.43503,1.3432-0.89804,2.02051-1.39801l-3.16882,0.52817L729.66223,364.06293z
			"/>
		<path class="st1" d="M712.22272,348.78415c-3.06958,0.18903-5.40472,2.83069-5.21558,5.90024
			c0.1889,3.06964,2.83051,5.40482,5.90021,5.21567c3.06964-0.18903,5.40472-2.83063,5.21558-5.90021
			C717.93402,350.9303,715.29242,348.59512,712.22272,348.78415z"/>
		<path class="st1" d="M734.77002,367.93256l-5.10779-3.86963c-0.94818,0.61563-1.88885,1.168-2.82135,1.66049
			C728.37787,366.64093,731.52106,368.20325,734.77002,367.93256z"/>
		<path class="st1" d="M544.93768,353.49887c0,0,2.22156,3.00894,6.10321,6.38806
			C547.38,356.63669,544.93768,353.49887,544.93768,353.49887z"/>
		<path class="st1" d="M588.02362,364.39767c-1.6734,1.06082-3.31671,1.89828-4.91602,2.56116
			c0.13086,0.00012,0.2699-0.00208,0.40253-0.00253c4.8623-2.03857,9.97858-5.64151,15.22455-11.42334
			C595.48962,359.03571,588.02362,364.39767,588.02362,364.39767z"/>
		<path class="st1" d="M737.1153,354.08798c0,0-4.43127,5.69846-10.31702,9.6922l0.73541,0.6228
			c-0.60907-0.03796-1.25354,0.01932-1.89325,0.12607c-0.20807,0.12851-0.41315,0.26199-0.62408,0.38501
			c0.29285,0.0351,0.57837,0.0864,0.84363,0.17484c0,0,0.36548,0.26706,0.9809,0.63452
			c0.9325-0.49249,1.87317-1.04486,2.82135-1.66049l-1.14832-0.86984l3.16882-0.52817
			c2.55078-1.8833,5.14941-4.23175,7.78088-7.13196c0,0-3.32007-3.68402-8.74817-7.30377
			C732.87708,349.78726,735.04016,351.70554,737.1153,354.08798z"/>
		<path class="st1" d="M726.79828,363.78018c-0.38037,0.25809-0.76617,0.50714-1.15784,0.74887
			c0.63971-0.10675,1.28418-0.16403,1.89325-0.12607L726.79828,363.78018z"/>
		<path class="st1" d="M551.10461,367.16638c0,0,4.82562,1.36316,8.69324-1.32114c-1.59479-0.80179-3.08545-1.6987-4.45996-2.63531
			l-0.02545,0.02161c0.04364,0.02945,0.08545,0.06085,0.12927,0.09015c-0.10126,0.04984-0.20001,0.08868-0.3009,0.13654
			C555.1012,364.27008,554.22736,365.47119,551.10461,367.16638z"/>
		<path class="st1" d="M555.31244,363.23154l-0.16785,0.14212c0.00055,0.02728-0.00232,0.05627-0.00378,0.08456
			c0.10089-0.04785,0.19965-0.0867,0.3009-0.13654C555.39789,363.29239,555.35608,363.26099,555.31244,363.23154z"/>
		<path class="st1" d="M544.46814,261.271c-0.11432,0.25443-0.20996,0.52063-0.26318,0.81055
			C544.29266,261.81137,544.38043,261.54114,544.46814,261.271z"/>
		<path class="st1" d="M844.25653,381.92111c0-1.84317-0.02704-3.6799-0.07574-5.51154
			c-5.13843-11.41956-18.20471-37.54599-37.32135-55.56351c0,0-32.61322-27.8942-36.91272-46.5509l1.82965-3.68625l61.4389,54.6384
			l6.55109,13.92792c-1.32007-6.21362-2.91632-12.3262-4.78827-18.31894c-15.86487-15.07516-47.73273-45.50729-65.03137-63.06812
			c0,0,35.11176,15.40619,42.99408,23.28839c0,0-28.66284-27.94612-32.60388-39.76942c0,0,10.68182,8.60336,15.84363,8.79973
			c-2.17871-2.59253-4.4386-5.11314-6.74048-7.59421l-18.15381-6.58429l15.92609,24.14493l-24.01154-8.08554l9.31061,13.96585
			l-1.71515,0.73508c-21.07129-6.37039-34.79218-16.90608-34.79218-16.90608l1.47009,13.47585
			c-1.71509-1.22507-3.67529-12.98582-3.67529-12.98582c-12.25079,12.00575-1.55902,31.36198-1.55902,31.36198l-4.07629-0.73508
			c2.30615,9.09976,4.07629,28.91187,4.07629,28.91187c-17.23993,2.94016-29.60083-34.79218-29.60083-34.79218
			c-31.56647-1.78372-62.43188-23.52147-62.43195-23.52138c-15.04364,14.40276-36.10742,24.3166-57.26672,21.05394
			c0.44971,1.31442,0.07129,2.75204-0.30823,4.08844c-1.14874,4.04422-2.27374,8.14835-4.89459,11.48822
			c-3.91846,4.99347-8.56525,9.33963-13.02679,13.84305c-0.84998,0.85803-1.89838,1.78632-3.09186,1.60101
			c-1.57123-0.24396-2.17609-2.15836-2.38855-3.73416c-1.44452-10.71375,0.01221-21.77045-2.50391-32.28424
			c-0.74561-3.11539-2.02338-6.38968-4.76349-8.04907c-2.48792-1.50665-6.36725-0.74448-7.49481,1.76596
			c-0.08771,0.27014-0.17548,0.54037-0.26318,0.81055c0.05322-0.28992,0.14886-0.55612,0.26318-0.81055
			c0.51025-1.5715,1.02039-3.14297,1.53064-4.71448c-2.7774-2.58562-7.31964-2.39842-10.62354-0.53192
			c-3.30389,1.86649-5.62518,5.05243-7.71381,8.22061c-2.08862,3.16812-4.11145,6.48492-7.0824,8.84561
			c-0.83508,0.66351-2.03406,1.24884-2.90625,0.63504c-0.53815-0.37866-0.72412-1.07898-0.85834-1.72318
			c-1.4231-6.83038-1.27087-13.9841,0.44153-20.74782c-5.50204,1.5491-11.00406,3.09819-16.50613,4.64734
			c0.49039-1.91228,1.86618-3.45273,3.1965-4.91127c3.44318-3.77505,6.88638-7.55008,10.32953-11.32509
			c-2.58994-0.06757-5.24835-0.14908-7.64069-1.1436c-2.39236-0.99451-4.49536-3.12021-4.68466-5.70409
			c-6.15784,5.72095-12.3157,11.44196-18.47348,17.16295c6.46518-3.35759,12.57208-7.4045,18.18375-12.05009
			c1.61768,2.24957,4.47949,3.53932,7.2363,3.26114c-3.30298,3.27104-6.60599,6.54208-9.909,9.81313
			c-0.84866,0.84044-1.72586,1.726-2.09717,2.86121c-0.31058,0.94974-0.23669,1.99332-0.5556,2.94031
			c-0.44727,1.32828-1.59189,2.27972-2.68405,3.15808c-4.45782,3.58514-8.91559,7.17032-13.37341,10.75546
			c10.63107-6.53448,21.61215-13.20325,33.92587-15.22629c-1.95996,11.36087-10.97369,19.99191-19.49503,27.75708
			c-11.47226,10.45422-22.94455,20.90842-34.41684,31.36261c-6.15839,5.61191-12.37054,11.28433-17.15128,18.10803
			c-4.78073,6.82373-8.07687,14.9931-7.65329,23.31412c6.92697-18.08136,20.75281-32.61899,35.30203-45.39542
			c9.25116-8.12387,18.93195-15.75174,28.01099-24.07275c4.40829-4.04025,8.38452-9.78574,13.1413-13.27286
			c2.59415-1.90179,2.32242-0.12866,2.67838,2.50134c0.20813,1.53784,0.41687,3.07553,0.62524,4.61334
			c-14.72708,19.27383-55.86346,65.8468-55.86346,65.8468c-15.83627,18.35498-22.47968,36.26242-25.18552,46.48669
			c0.43314,8.22888,1.34409,16.33328,2.72009,24.28128c-0.10907-17.14407,3.79761-33.94443,12.46365-48.1694
			c14.95401-24.54645,35.72824-46.02853,55.43036-66.77591c7.02621-7.39902,14.39014-13.74115,19.44543-22.72803
			c4.61609-8.20602,9.23212-17.20776,17.58612-21.55032c-0.9574,4.57571-1.91486,9.1514-2.87225,13.72705
			c4.48871-1.92203,8.15674-5.68372,9.96497-10.21945c-0.76349,1.91501,0.2713,6.05914-0.08795,8.32547
			c-0.41797,2.63687-1.2735,5.11649-2.26001,7.5864c-1.41852,3.55173-3.05518,7.08054-5.12848,10.3056
			c0,0,7.50934-1.78796,7.52441-1.7905c2.99567-0.4967,1.36987,11.31311,1.08704,12.79547
			c-1.38849,7.27588-4.50232,14.56332-7.88654,21.11255c-4.24139,8.2081-9.67029,15.80276-16.06891,22.4678
			c-6.57867,6.85257-14.51404,12.02835-21.28918,18.66312c-14.36093,14.06323-26.72577,30.94666-33.43753,50.03183
			c-17.64108,49.66391,22.41522,103.39059,22.41522,103.39059c-9.0629-4.06149-17.25961-9.93045-24.43323-17.09003
			c8.64471,12.69614,18.67984,24.37006,29.87711,34.81512c-0.17334-0.49353-0.25385-0.76331-0.25385-0.76331
			c12.02237,13.05884,34.95721,26.82959,52.1543,36.11774c26.66589,12.70123,56.48096,19.82275,87.93091,19.82275
			c69.85913,0,131.66382-35.10284,168.73413-88.58685c-7.41547,5.36734-15.19116,10.31375-19.65662,16.62219
			c6.11176-10.50766,11.2207-21.72452,15.70093-33.00714c6.7301-16.94839,13.09088-35.05389,12.69958-53.53665
			c-0.38031-17.96088-10.78491-33.37589-21.82111-46.94647c-24.62683-30.28198-55.28717-55.66913-62.76556-95.90741
			c-0.00067-0.00226,7.52332,1.78918,7.52332,1.78918s-9.67371-15.04794-7.52399-26.15466c0,0,5.37421,10.03189,10.03204,10.03189
			l-2.86646-13.61478c0,0,3.25842,5.51154,7.31195,11.57465l-2.11163-10.26965l21.07141,12.74084h-3.67523
			c4.33734,10.06989,25.48163,36.75229,25.48163,36.75229c28.66681,28.42178,49.73816,62.92035,49.73816,62.92035
			c5.76056,8.98694,5.50159,31.15128,5.12006,40.32071C843.50317,402.06168,844.25653,392.07822,844.25653,381.92111z
			 M488.51346,393.67136c2.22513-4.69342,4.98627-9.13336,8.21365-13.20322c7.18311-9.05826,16.77991-14.59961,25.8017-21.56235
			c6.99969-5.40219,16.46234-18.67621,17.21802-27.5329c-1.38403,16.22134-11.97351,28.64471-23.0965,39.59995
			c-11.84348,11.66489-23.04367,23.35248-32.97482,36.69464C486.09055,404.42285,486.67068,397.55832,488.51346,393.67136z
			 M503.36206,518.44189c29.0343,31.97449,90.77814,57.70111,90.77814,57.70111
			C522.8407,557.03186,503.36206,518.44189,503.36206,518.44189z M514.42865,518.97681c0,0-51.53088-49.08481-37.19952-103.18558
			c0,0,6.09082,23.51077,11.46506,24.65356c0,0-1.43314-19.27939,3.58282-25.72849c0,0,3.22449,50.49609,17.91422,64.12186
			c0,0-17.91422-61.25546,5.01587-99.59183c-4.2352,7.08072-0.84247,26.80164-0.53577,34.53702
			c0.88745,22.38269,3.33246,46.59326,12.7655,67.1951c3.56409,7.784,7.74249,15.63934,12.48322,23.33774
			c21.15594,34.35519,53.51001,65.58585,92.44214,73.4183C632.36578,577.73529,591.39752,589.20038,514.42865,518.97681z
			 M691.62488,574.03479c0,0,61.74396-25.72662,90.77826-57.70111C782.40314,516.33368,762.92438,554.92365,691.62488,574.03479z
			 M764.70514,358.90579c9.02179,6.96274,18.61859,12.50409,25.80176,21.56235c3.22736,4.06985,5.98853,8.5098,8.21362,13.20322
			c1.84277,3.88696,2.42291,10.7515,4.83789,13.99612c-9.93121-13.34216-21.13135-25.02975-32.97479-36.69464
			c-11.12292-10.95523-21.7124-23.3786-23.0965-39.59995C748.24274,340.22958,757.70538,353.5036,764.70514,358.90579z
			 M668.60748,338.92722l12.51208-0.18961c0,0-20.47418,13.45996-22.74921,23.12845h5.11859c0,0,8.53107,11.75375,29.57404,8.15182
			c0,0-10.80585-1.70624-17.25146-7.39359c0,0,9.22729,2.39896,20.29474,3.56952c-0.68719-0.36966-1.37866-0.76434-2.07697-1.20706
			c0,0-7.46606-5.36194-10.711-8.86469c0,0,0.94568-0.94913,2.55566-2.35303c-0.13458-0.17215-0.2074-0.27017-0.2074-0.27017
			c13.14435-14.33533,26.6311-13.78329,36.81348-9.66965c2.612,0.96613,5.42114,2.37134,8.23541,4.39996
			c5.4281,3.61975,8.74817,7.30377,8.74817,7.30377c-2.63147,2.90021-5.2301,5.24866-7.78088,7.13196l0.24359-0.04062
			c0,0,5.49786,3.41245,14.97662,3.03329c0,0-6.63513-2.65408-8.34131-5.11862l5.11847-3.03326
			c0,0,10.43738,7.63181,11.44781,21.86829l11.23596-0.12766c22.92999,38.33633,5.01593,99.59183,5.01593,99.59183
			c14.68964-13.62576,17.91406-64.12186,17.91406-64.12186c5.01605,6.4491,3.58289,25.72849,3.58289,25.72849
			c5.37433-1.14279,11.46503-24.65356,11.46503-24.65356c14.33136,54.10077-37.19934,103.18558-37.19934,103.18558
			c-76.96887,70.22357-117.93732,58.75848-117.93732,58.75848c62.09802-12.49103,108.89001-82.06897,116.02789-142.09314
			c2.20691-18.55878,2.7832-37.74881,1.13086-56.39581c0.35974,143.62903-123.71246,199.18323-123.71246,199.18323
			c-122.67725-49.37244-128.60175-196.31705-128.60175-196.31705l16.87-0.19165
			c-0.40155-8.60217,2.19312-17.88953,12.18774-24.60464c0,0,15.35577,2.08533-0.7583,7.96222c0,0,5.88312,1.45584,12.79169-1.82022
			c0.00146-0.02829,0.00433-0.05728,0.00378-0.08456l0.16785-0.14212c-1.54156-1.0415-2.98096-2.19873-4.27155-3.3446
			c-3.88165-3.37912-6.10321-6.38806-6.10321-6.38806c2.35858-2.70798,4.83063-4.823,7.28516-6.48111
			c5.01617-3.52139,9.9837-5.17917,14.70117-5.6033c3.37701-0.4404,5.56226-0.18695,5.56226-0.18695
			c4.8678,0.18204,9.92407,2.39627,14.28693,5.02884c7.30365,4.10834,11.96149,9.27661,11.96149,9.27661
			c-5.24597,5.78183-10.36224,9.38477-15.22455,11.42334c7.90826-0.02167,18.92053-0.92245,26.70764-5.09024
			c0,0-6.44562,6.44559-16.49316,8.3414c0,0,17.06195,3.60196,29.5741-8.3414l4.36023,1.13745
			c0,0-4.73938-14.02869-22.74933-23.50754h12.133c0,0-25.40344-15.35574-71.28113-11.56424c0,0,18.00989-7.96228,47.7735-4.17072
			c0,0-2.27484-5.87689-36.96753-5.68738c0,0,26.16162-11.56412,30.14276-38.67368c0,0,36.20935-0.18961,54.59833-21.61179
			c0,0,27.8678,20.09515,57.44183,21.23267c0,0,5.11859,29.57401,31.28015,38.10498c0,0-28.43658,1.70621-36.77789,5.11859
			c0,0,29.00525-0.75827,48.53168,4.17072C741.7843,326.41513,693.82135,324.89853,668.60748,338.92722z M728.03235,336.30286
			l-35.63116,2.88904C692.40118,339.19189,706.84619,331.00629,728.03235,336.30286z M556.10345,336.30286
			c21.18616-5.29657,35.63123,2.88904,35.63123,2.88904L556.10345,336.30286z"/>
	</g>
</g>
</svg>
