<?xml version="1.0" encoding="utf-8"?>
<!-- Generator: Adobe Illustrator 26.0.3, SVG Export Plug-In . SVG Version: 6.00 Build 0)  -->
<svg version="1.1" id="Layer_1" xmlns="http://www.w3.org/2000/svg" xmlns:xlink="http://www.w3.org/1999/xlink" x="0px" y="0px"
	 viewBox="0 0 1280 769" style="enable-background:new 0 0 1280 769;" xml:space="preserve">
<style type="text/css">
	.st0{fill:#CAF1DE;}
</style>
<g>
	<g>
		<g>
			<g>
				<path class="st0" d="M861.2744141,384.500061c0-3.2344055-0.0847778-6.4490051-0.2229004-9.6499939l0.2147827,10.2892151
					C861.2669067,384.9256897,861.2744141,384.7137756,861.2744141,384.500061z"/>
				<path class="st0" d="M859.7666016,385.1704102l-0.2148438-10.2890625l2.9990234-0.0957031
					c0.1503906,3.5048828,0.2236328,6.6826172,0.2236328,9.7143555l-0.0078125,0.6391602L859.7666016,385.1704102z"/>
			</g>
			<g>
				<path class="st0" d="M789.1282349,221.1694183l8.4416504,8.1421661
					C794.8261719,226.526062,792.0148926,223.8075409,789.1282349,221.1694183z"/>
				<path class="st0" d="M796.5292969,230.3911133l-8.4423828-8.1420898l2.0527344-2.1870117
					c2.8251953,2.5820312,5.6845703,5.3398438,8.4990234,8.1967773L796.5292969,230.3911133z"/>
			</g>
			<g>
				<path class="st0" d="M776.2741089,532.6954956l0.2104492-0.182251l13.4030762,14.6099854
					c1.7167969-1.5836792,3.4074097-3.1949463,5.0734863-4.8314819l-14.178833-13.8790283
					C779.3007812,529.8623657,777.7994995,531.291626,776.2741089,532.6954956z"/>
				<path class="st0" d="M789.7988281,549.2451172l-14.4199219-15.7177734l0.8837891-0.8105469l-1.0039062-1.125
					c1.4414062-1.3261719,2.9462891-2.7558594,4.4746094-4.2509766l1.0488281-1.0263672l16.3212891,15.9755859l-1.0917969,1.0722656
					c-1.6787109,1.6494141-3.3974609,3.2861328-5.1064453,4.8632812L789.7988281,549.2451172z M778.5908203,532.5908203
					l11.3818359,12.40625c0.9501953-0.8896484,1.9003906-1.7949219,2.8417969-2.7070312l-12.0361328-11.78125
					C780.0400391,531.2207031,779.3095703,531.9169922,778.5908203,532.5908203z"/>
			</g>
			<g>
				<path class="st0" d="M468.9490356,244.261734l7.3144531-8.4720001
					C473.7542419,238.5498505,471.3182373,241.3773499,468.9490356,244.261734z"/>
				<path class="st0" d="M470.0844727,245.2421875l-2.2944336-1.9326172
					c2.4243164-2.9511719,4.9013672-5.8208008,7.3637695-8.5288086l2.2451172,1.9892578L470.0844727,245.2421875z"/>
			</g>
			<g>
				<path class="st0" d="M655.8410034,581.2592773v4.055542c41.9403076-3.2799683,80.3080444-19.4660645,111.1395264-44.5725098
					l9.2935791-8.046814c1.5253906-1.4038696,3.0266724-2.8331299,4.5081787-4.2827759l-2.8859253-2.8249512
					C745.8308105,556.9368286,703.1652832,577.4813843,655.8410034,581.2592773z"/>
				<path class="st0" d="M654.3408203,586.9365234v-7.0625l1.3808594-0.1103516
					c45.371582-3.6220703,88.3886719-23.2421875,121.1259766-55.2480469l1.0498047-1.0263672l5.0292969,4.9238281
					l-1.0957031,1.0722656c-1.5498047,1.5166016-3.078125,2.9677734-4.5410156,4.3134766l-9.328125,8.0771484
					c-32.1611328,26.1904297-70.8793945,41.71875-112.0043945,44.9335938L654.3408203,586.9365234z M657.3408203,582.6386719
					v1.0478516c39.9121094-3.4443359,77.4628906-18.6757812,108.6923828-44.1074219l9.2597656-8.0175781
					c1.0673828-0.9833984,2.1923828-2.0449219,3.3408203-3.1523438l-0.7421875-0.7265625
					C745.1210938,559.2519531,702.4179688,578.71875,657.3408203,582.6386719z"/>
			</g>
			<g>
				<path class="st0" d="M442.5949707,384.500061c0-46.6049805,16.2451172-89.4808044,43.3561707-123.2864685L483.053009,258.375
					c-25.6789246,31.8891907-41.8614502,71.7277832-44.1980286,115.1905212l-0.2784119,12.6166077
					c0.0264893,3.2141724,0.1236877,6.4115906,0.2998047,9.5887146l4.0233459-0.3821411
					C442.7026978,391.7830505,442.5949707,388.1540527,442.5949707,384.500061z"/>
				<path class="st0" d="M437.465332,397.4121094l-0.0864258-1.5581055
					c-0.1738281-3.1274414-0.2753906-6.3774414-0.3022461-9.659668l0.2788086-12.6621094
					c2.2910156-42.6367188,17.6884766-82.7661133,44.5292969-116.0981445l1.0371094-1.2875977l5.0493164,4.9458008
					l-0.8496094,1.0595703C459.375,296.7495117,444.0947266,340.2001953,444.0947266,384.5
					c0,3.4970703,0.1020508,7.1328125,0.3027344,10.8066406l0.0791016,1.4389648L437.465332,397.4121094z M483.1894531,260.6079102
					c-25.8071289,32.581543-40.6108398,71.6289062-42.8364258,113.0380859l-0.2768555,12.5693359
					c0.0224609,2.6552734,0.0957031,5.3193359,0.2182617,7.9140625l1.0336914-0.0981445
					c-0.1547852-3.2382812-0.2333984-6.4375-0.2333984-9.53125c0-44.5263672,15.2045898-88.2089844,42.8398438-123.1621094
					L483.1894531,260.6079102z"/>
			</g>
			<g>
				<path class="st0" d="M639.991272,581.8968506c-46.6073608,0-89.4851685-16.2468872-123.291626-43.3607178l-2.9401245,2.8162231
					c30.3887329,24.5047607,68.0102539,40.3735352,109.1130371,43.8494263l9.7761841,0.5869141
					c2.4381714,0.0878296,4.8833008,0.1478882,7.3425293,0.1478882c0.9736938,0,1.9418945-0.0230713,2.9123535-0.0369873v-4.0397339
					C641.9332275,581.8740234,640.9649658,581.8968506,639.991272,581.8968506z"/>
				<path class="st0" d="M639.9912109,587.4365234c-2.2368164,0-4.5874023-0.046875-7.3964844-0.1484375l-9.8120117-0.5888672
					c-40.3398438-3.4111328-78.3520508-18.6875-109.9643555-44.1787109l-1.328125-1.0712891l5.121582-4.90625l1.0263672,0.8232422
					c34.5976562,27.7480469,78.050293,43.0302734,122.3530273,43.0302734c0.6914062,0,1.3798828-0.0117188,2.0688477-0.0234375
					l2.34375-0.0341797v7.0400391l-2.3305664,0.0341797C641.3798828,587.4248047,640.6870117,587.4365234,639.9912109,587.4365234z
					 M516.034668,541.2509766c30.8774414,24.4746094,67.824707,39.1464844,106.9643555,42.4560547l9.7397461,0.5849609
					c3.3227539,0.1181641,5.9995117,0.1689453,8.6650391,0.1318359v-1.0390625
					c-0.4702148,0.0068359-0.940918,0.0117188-1.4125977,0.0117188c-44.543457,0-88.2426758-15.2167969-123.2006836-42.8701172
					L516.034668,541.2509766z"/>
			</g>
			<g>
				<path class="st0" d="M620.8292847,188.0359344v-4.0555878c-44.7565308,4.2436523-85.2927856,23.1863403-116.7119751,51.9438324
					l-6.8693848,6.587677c-2.3261719,2.3384399-4.5939636,4.7347565-6.8040466,7.1842041l2.8860474,2.8308258
					C525.4679565,216.84729,570.4016724,192.9165802,620.8292847,188.0359344z"/>
				<path class="st0" d="M493.3969727,254.6938477l-5.0307617-4.934082l0.9638672-1.0683594
					c2.2314453-2.4736328,4.5375977-4.9086914,6.8544922-7.237793l6.8945312-6.6118164
					c32.8618164-30.0786133,73.5214844-48.1743164,117.6083984-52.3544922l1.6416016-0.1557617v7.0664062l-1.3554688,0.1313477
					c-48.6606445,4.7094727-93.5961914,27.4389648-126.5288086,64.0014648L493.3969727,254.6938477z M492.5249023,249.6362305
					l0.7421875,0.7280273c33.0297852-36.105957,77.6899414-58.6689453,126.0620117-63.6850586v-1.0429688
					c-42.7988281,4.4077148-82.2563477,22.1577148-114.1992188,51.3945312l-6.84375,6.5634766
					C496.3583984,245.5327148,494.4194336,247.565918,492.5249023,249.6362305z"/>
			</g>
			<g>
				<path class="st0" d="M498.8398743,554.7756958l-7.9223328-6.8865967
					C493.5009766,550.248291,496.1468201,552.5394287,498.8398743,554.7756958z"/>
				<path class="st0" d="M497.8813477,555.9296875c-2.8100586-2.3339844-5.4936523-4.6669922-7.9755859-6.9335938
					l1.9956055-2.2392578l7.9223633,6.8867188L497.8813477,555.9296875z"/>
			</g>
			<g>
				<path class="st0" d="M841.2097778,375.3165894c-2.0487061-45.4212341-19.2073364-86.9694519-46.5617676-119.7311249
					l-5.5203247-6.352829l0.000061-0.000061c-1.4271851-1.572052-2.8860474-3.1143188-4.3615112-4.640625l-2.6760254,3.038559
					c32.28125,33.5027924,52.8572388,78.3500519,55.085144,127.897934L841.2097778,375.3165894z"/>
				<path class="st0" d="M835.7451172,377.1054688l-0.0673828-1.5097656
					c-2.1357422-47.4775391-21.5507812-92.5537109-54.6679688-126.9243164l-0.9589844-0.9956055l4.6650391-5.2954102
					l1.1298828,1.1694336c1.6542969,1.7124023,3.0908203,3.2412109,4.3925781,4.6738281l5.5419922,6.3779297
					c28.6972656,34.3686523,44.9179688,76.0800781,46.9277344,120.6474609l0.0673828,1.4873047L835.7451172,377.1054688z
					 M784.1259766,247.5883789c32.6933594,34.4023438,51.9912109,79.1689453,54.4746094,126.362793l1.0380859-0.0541992
					c-2.2705078-43.3466797-18.2070312-83.894043-46.1416016-117.3500977l-5.5009766-6.3305664
					c-0.9599609-1.0566406-2.0117188-2.1835938-3.1816406-3.4091797L784.1259766,247.5883789z"/>
			</g>
			<g>
				<path class="st0" d="M837.3563232,387.0058899c-0.6269531,50.0640869-19.9701538,95.701355-51.3600464,130.2046814
					l2.7368164,2.9854736c27.875-30.5285034,46.4906006-69.6390381,51.3914185-112.8496094l0.8046875-8.7844849
					c0.2706909-3.9059143,0.4262085-7.8425293,0.4699707-11.8058167L837.3563232,387.0058899z"/>
				<path class="st0" d="M788.7353516,522.4179688l-4.7705078-5.203125l0.921875-1.0136719
					c32.2695312-35.4707031,50.3701172-81.359375,50.9697266-129.2138672l0.0175781-1.3925781l7.0429688-0.4350586
					l-0.0175781,1.6132812c-0.0439453,3.9975586-0.2041016,7.9990234-0.4736328,11.8925781l-0.8076172,8.8178711
					c-4.8320312,42.6035156-22.734375,81.9169922-51.7773438,113.7246094L788.7353516,522.4179688z M788.0244141,517.203125
					l0.7021484,0.7666016c27.9658203-31.1210938,45.2119141-69.3935547,49.9072266-110.7919922l0.8017578-8.7529297
					c0.2275391-3.2832031,0.375-6.6713867,0.4394531-10.0717773l-1.0410156,0.0644531
					C837.9033203,436.0458984,819.9003906,481.6787109,788.0244141,517.203125z"/>
			</g>
			<g>
				<path class="st0" d="M639.991272,187.103241c50.4136353,0,96.4651489,19.0061646,131.3897095,50.2171173l2.9779053-2.7555084
					c-32.5092773-29.1638336-74.5181885-47.9301453-120.7540283-51.0312805l-9.5404053-0.4183502
					c-1.3554688-0.0270691-2.7113647-0.0517273-4.0731812-0.0517273c-2.0671997,0-4.1246338,0.0413666-6.177063,0.1035004v4.0423889
					C635.8664551,187.1459503,637.9238892,187.103241,639.991272,187.103241z"/>
				<path class="st0" d="M771.3984375,239.3476562l-1.0175781-0.9086914
					c-35.9609375-32.137207-82.2675781-49.8359375-130.3896484-49.8359375c-1.8500977,0-3.7983398,0.0336914-6.1308594,0.105957
					l-1.5463867,0.0473633v-7.0449219l1.4545898-0.0439453c4.027832-0.1210938,7.1030273-0.1166992,10.3256836-0.0517578
					l9.5766602,0.4194336c44.8823242,3.0097656,88.0869141,21.2680664,121.6894531,51.4130859l1.2255859,1.0996094
					L771.3984375,239.3476562z M639.9912109,185.6030273c48.4072266,0,95.0029297,17.6362305,131.3681641,49.6928711
					l0.7666016-0.7089844c-32.9267578-29.0478516-74.9838867-46.6298828-118.621582-49.5566406l-9.5058594-0.4165039
					c-2.7011719-0.0527344-5.3857422-0.0698242-8.6845703,0.012207v1.0405273
					C637.0205078,185.6235352,638.534668,185.6030273,639.9912109,185.6030273z"/>
			</g>
			<g>
				<path class="st0" d="M444.3435974,410.7450867l-4.1065369-0.1943359
					c5.4003906,41.6386414,23.5639343,79.3268738,50.4276123,109.0019226l6.8314209,7.1895142
					c2.3499756,2.3540649,4.7571106,4.6508179,7.2202454,6.887146l2.8326111-2.8842773
					C473.8016663,500.1541138,450.6593933,458.0739441,444.3435974,410.7450867z"/>
				<path class="st0" d="M504.7758789,535.7089844l-1.0678711-0.9697266c-2.4711914-2.2441406-4.918457-4.578125-7.2734375-6.9375
					l-6.8574219-7.2158203c-27.9418945-30.8652344-45.5092773-68.8388672-50.8276367-109.8417969l-0.2304688-1.7763672
					l7.1459961,0.3378906l0.1655273,1.2412109c6.0913086,45.6494141,28.3676758,87.9423828,62.7255859,119.0869141
					l1.1567383,1.0488281L504.7758789,535.7089844z M441.9628906,412.1337891
					c5.5107422,39.7158203,22.7114258,76.4746094,49.8134766,106.4121094l6.8071289,7.1630859
					c1.9599609,1.9628906,4.0048828,3.9277344,6.0771484,5.8359375l0.7280273-0.7412109
					C471.46875,499.5703125,449.375,457.5507812,443.0263672,412.1845703L441.9628906,412.1337891z"/>
			</g>
			<g>
				<path class="st0" d="M788.9849243,221.0311584l0.1433105,0.1382599c2.8866577,2.6381226,5.697937,5.3566437,8.4416504,8.1421661
					l0.3533936,0.3408661l-0.0097046,0.0111084c1.7028198,1.7364349,3.3804932,3.497406,5.0259399,5.2888336l2.8845825-2.9824677
					c-2.1199341-2.3002014-4.2802124-4.5723114-6.5053101-6.7973938
					c-39.2041626-39.2041779-90.3131104-62.1658936-145.1727905-65.5443268v4.0537262
					c51.7634888,3.2843781,98.7509766,24.4328461,134.8363037,57.3516235L788.9849243,221.0311584z"/>
				<path class="st0" d="M802.9111328,237.1396484l-1.0761719-1.1723633
					c-1.5673828-1.706543-3.2480469-3.4741211-4.9931641-5.253418l-0.7695312-0.7851562
					c-2.6542969-2.6787109-5.3212891-5.2436523-7.9560547-7.6518555l-0.1445312-0.1347656
					c-36.8212891-33.590332-84.3823242-53.8198242-133.9208984-56.9628906l-1.4047852-0.0893555v-7.0566406l1.5922852,0.0981445
					c55.0844727,3.3920898,106.984375,26.824707,146.140625,65.9804688
					c2.0722656,2.0717773,4.2148438,4.3095703,6.5478516,6.8413086l0.9599609,1.0415039L802.9111328,237.1396484z
					 M799.9511719,229.6054688c1.0341797,1.0654297,2.0410156,2.1240234,3.0117188,3.1650391l0.7958984-0.8227539
					c-1.9365234-2.0810547-3.7451172-3.9589844-5.5009766-5.7148438
					c-38.2607422-38.2607422-88.8510742-61.3071289-142.6118164-65.003418v1.0493164
					c49.2783203,3.4462891,96.5405273,23.5595703,133.378418,56.7675781l0.0332031-0.0283203l1.1142578,1.0742188
					c2.7929688,2.5517578,5.6523438,5.3095703,8.4667969,8.1665039l1.3496094,1.3041992L799.9511719,229.6054688z"/>
			</g>
			<g>
				<path class="st0" d="M864.0145874,408.7782898l-4.0629272-0.1317139
					c-5.2840576,48.4642029-26.2788086,92.2713623-57.7722778,126.2171326l0.0099487,0.0108643l-6.4595337,8.1696777
					l-0.7686768-0.7525024c-1.6660767,1.6365356-3.3566895,3.2478027-5.0734863,4.8314819l2.8012695,3.0534668
					c2.2424316-2.0708008,4.4589844-4.1787109,6.6298828-6.3496094
					C836.1002808,507.0460205,858.5846558,459.7841797,864.0145874,408.7782898z"/>
				<path class="st0" d="M792.6005859,552.2998047l-4.8291016-5.2646484l1.0986328-1.0146484
					c1.6875-1.5556641,3.3828125-3.1708984,5.0400391-4.7988281l1.0488281-1.0302734l0.6279297,0.6142578l4.6708984-5.90625
					l-0.0654297-0.0771484l0.8876953-0.9794922c32.4052734-34.9287109,52.2470703-78.2763672,57.3808594-125.3583984
					l0.1503906-1.3823242l7.0654297,0.2290039l-0.1708984,1.6064453
					c-5.5195312,51.8535156-28.0400391,98.8642578-65.1269531,135.9501953
					c-2.0136719,2.0146484-4.1962891,4.1044922-6.6728516,6.390625L792.6005859,552.2998047z M792.0009766,547.2080078
					l0.7734375,0.8427734c1.0537109-0.9833984,2.0537109-1.9316406,3.0097656-2.8544922l-0.8242188-0.8066406
					C793.9804688,545.3388672,792.9902344,546.28125,792.0009766,547.2080078z M803.4375,535.7128906l-0.0712891,0.0927734
					l-6.9130859,8.7412109c0.6181641-0.6015625,1.21875-1.1943359,1.8046875-1.7802734
					c36.2119141-36.2109375,58.3505859-82.0136719,64.0888672-132.5419922l-1.0585938-0.0341797
					C855.8583984,457.3095703,835.8759766,500.6796875,803.4375,535.7128906z"/>
			</g>
			<g>
				<path class="st0" d="M620.8292847,164.0554199v-0.0156708l0.6105957-0.0386963
					c2.9160767-0.2432404,5.8477783-0.4291534,8.7945557-0.5576782l3.5797729-0.2269592V163.3069
					c2.0527344-0.0565186,4.1109619-0.0904846,6.177063-0.0904846c0.8289795,0,1.65271,0.0223694,2.4794922,0.0314941v-4.0410309
					c-0.8266602-0.0088806-1.6513672-0.0302124-2.4794922-0.0302124c-56.2506714,0-109.3514404,20.4778137-150.7992859,57.8994446
					l2.6062622,3.2368622C526.6050415,188.8663025,571.4226685,168.3139801,620.8292847,164.0554199z"/>
				<path class="st0" d="M491.6259766,222.4902344l-4.4916992-5.5776367l1.0522461-0.949707
					c41.6298828-37.5864258,95.5419922-58.2861328,151.8046875-58.2861328c0.5288086,0,1.0561523,0.0087891,1.5834961,0.0170898
					l2.3959961,0.0288086v7.0424805l-2.4418945-0.03125c-2.4326172-0.0429688-4.8867188-0.0048828-7.6733398,0.0727539
					l-1.5415039,0.0424805v-0.034668l-1.9848633,0.1259766c-2.9389648,0.128418-5.8779297,0.3144531-8.7646484,0.5551758
					l-0.6064453,0.0541992c-47.9541016,4.1333008-92.269043,23.4550781-128.1542969,55.8759766L491.6259766,222.4902344z
					 M491.2519531,217.2431641l0.722168,0.8964844c35.8203125-31.9179688,79.7939453-51.0673828,127.3549805-55.456543v-0.0517578
					l2.0161133-0.1274414c2.8959961-0.2416992,5.875-0.4306641,8.8237305-0.559082l5.1450195-0.3266602v0.1513672
					c1.9985352-0.043457,3.8393555-0.0698242,5.6567383-0.0449219v-1.0395508
					c-0.3261719-0.0048828-0.6523438-0.0083008-0.9794922-0.0083008
					C584.9467773,160.6767578,532.1835938,180.7548828,491.2519531,217.2431641z"/>
			</g>
			<g>
				<path class="st0" d="M499.3265381,555.1768799l-0.0119629,0.0114746l-0.4747009-0.4126587
					c-2.6930542-2.2362671-5.3388977-4.5274048-7.9223328-6.8865967l-0.1109009-0.0963745l0.0035095-0.0036011
					c-2.6921997-2.4616089-5.3214417-4.9905396-7.8893738-7.5806885l-3.046936,2.8087158
					c0.2657471,0.2683716,0.5232239,0.5427246,0.7904358,0.8099365
					c38.7165833,38.7171021,89.0426331,61.602478,143.1272888,65.4194946l-0.2399292-4.0741577
					C576.5693359,601.7055054,533.628418,583.4971313,499.3265381,555.1768799z"/>
				<path class="st0" d="M625.3891602,610.8632812l-1.703125-0.1201172
					c-54.2763672-3.8310547-105.4458008-27.21875-144.0825195-65.8554688
					c-0.1464844-0.1464844-0.2895508-0.2949219-0.4321289-0.4423828l-1.4584961-1.4755859l5.2548828-4.8457031l1.0185547,1.0283203
					c2.5556641,2.578125,5.1918945,5.1113281,7.8359375,7.5302734l0.550293,0.5029297
					c2.3408203,2.1230469,4.8276367,4.2783203,7.4257812,6.4355469l0.4833984,0.3994141
					c35.2856445,29.1318359,77.949707,46.3027344,123.3803711,49.65625l1.3100586,0.0966797L625.3891602,610.8632812z
					 M482.0292969,543.0703125c37.684082,37.5419922,87.3833008,60.4199219,140.1640625,64.5537109l-0.0620117-1.0556641
					c-45.1245117-3.5947266-87.5-20.6474609-122.7265625-49.3867188l-0.0405273,0.0380859l-1.5092773-1.3125
					c-2.7836914-2.3115234-5.4672852-4.6445312-7.9492188-6.9111328l-1.222168-1.0546875l0.034668-0.0390625
					c-1.9667969-1.8232422-3.9233398-3.7041016-5.8408203-5.6142578L482.0292969,543.0703125z"/>
			</g>
			<g>
				<path class="st0" d="M861.0296021,374.2755127l0.0099487-0.0004883l0.0119629,0.5750427
					c0.1381226,3.2009888,0.2229004,6.4155884,0.2229004,9.6499939c0,0.2137146-0.0075073,0.4256287-0.0081177,0.6392212
					l0.0081177,0.3888855l-0.0130615,0.0007935c-0.0172729,3.7637329-0.1275635,7.5055542-0.3314819,11.2232666l4.0652466-0.26828
					c0.2070312-3.9770203,0.3190308-7.9717102,0.3190308-11.9838867c0-51.584198-17.2312012-100.5135193-48.9469604-140.2427521
					l-3.713562,2.0149994C841.0620117,281.6862183,858.8218994,325.9838257,861.0296021,374.2755127z"/>
				<path class="st0" d="M859.3388672,398.3608398l0.0927734-1.6904297c0.2021484-3.6689453,0.3125-7.4199219,0.3300781-11.1484375
					l0.0126953-1.4370117c-0.0068359-2.8637695-0.0791016-5.8686523-0.2216797-9.1704102L859.53125,374.34375
					c-2.1318359-46.644043-18.7470703-90.605957-48.0478516-127.1328125l-1.1240234-1.4003906l6.3964844-3.4707031
					l0.7832031,0.9814453c32.2363281,40.3808594,49.2753906,89.199707,49.2753906,141.1787109
					c0,3.9072266-0.1083984,7.965332-0.3212891,12.0620117l-0.0693359,1.3305664L859.3388672,398.3608398z M862.75,386.9726562
					c-0.0292969,2.7324219-0.109375,5.4692383-0.2363281,8.171875l1.0488281-0.0693359
					c0.1669922-3.5917969,0.2519531-7.1430664,0.2519531-10.5751953c0-50.8691406-16.5390625-98.6728516-47.8388672-138.3237305
					l-1.0351562,0.5615234c28.6933594,36.3505859,45.0986328,79.8374023,47.5136719,125.9643555l0.0507812-0.0024414
					l0.046875,2.1171875c0.1494141,3.4736328,0.2226562,6.6513672,0.2226562,9.6831055l-0.0078125,0.6391602l0.0371094,1.831543
					L862.75,386.9726562z"/>
			</g>
			<g>
				<path class="st0" d="M420.1401978,409.5996094l-1.044281-0.0494385v-11.9007568l0.0137634-0.0012817
					c-0.2023621-3.4359741-0.3231201-6.8930054-0.3662109-10.3687744l-4.0395508,0.1362
					c0.6834717,54.2179871,20.4024658,105.3567505,55.9888,145.764801l3.4404297-2.3704224
					C444.8822937,497.6897583,425.3782349,455.7794495,420.1401978,409.5996094z"/>
				<path class="st0" d="M470.4472656,535.171875l-0.8798828-1
					c-35.6645508-40.4960938-55.6811523-92.6083984-56.3632812-146.7373047l-0.0185547-1.46875l7.0390625-0.2373047
					l0.019043,1.5322266c0.0429688,3.4692383,0.1650391,6.934082,0.3637695,10.2988281l0.0844727,1.4326172l-0.0961914,0.0102539
					v9.1176758l0.8911133,0.0419922l0.1435547,1.2685547c5.0805664,44.7851562,23.6245117,86.4140625,53.6274414,120.3857422
					l1.1196289,1.2685547L470.4472656,535.171875z M417.7490234,410.9873047
					c5.2709961,44.3740234,23.7314453,86.3388672,53.1923828,120.2001953l0.953125-0.65625
					c-29.4760742-33.8769531-47.8095703-75.1337891-53.097168-119.4941406L417.7490234,410.9873047z M416.2275391,388.8652344
					c0.1333008,6.9746094,0.5922852,13.9145508,1.3681641,20.796875v-12.2133789
					c-0.1625977-2.8242188-0.2724609-5.715332-0.328125-8.6186523L416.2275391,388.8652344z"/>
			</g>
			<g>
				<path class="st0" d="M655.8410034,605.2098999v0.5733032l-5.7532349-0.2399292
					c-3.3479004,0.1511841-6.711853,0.2399292-10.0964966,0.2399292c-1.6310425,0-3.2558594-0.0266113-4.8786011-0.0619507
					v4.0422974c1.6238403,0.0343018,3.2493286,0.0593872,4.8786011,0.0593872
					c52.3022461,0,101.8782959-17.7086182,141.8995972-50.2749634l-2.6262207-3.2284546
					C745.0518188,584.1049194,702.4187622,601.8972168,655.8410034,605.2098999z"/>
				<path class="st0" d="M639.9912109,611.3232422c-1.6401367,0-3.2758789-0.0253906-4.9101562-0.0595703l-1.4682617-0.03125
					v-7.0439453l1.5327148,0.0332031c4.7900391,0.1044922,9.5205078,0.0654297,14.8745117-0.1767578l0.0654297-0.0029297
					l4.2553711,0.1777344V603.8125l1.3935547-0.0986328c45.0214844-3.2021484,87.4111328-19.9931641,122.5849609-48.5585938
					l1.1630859-0.9453125l4.5185547,5.5546875l-1.1640625,0.9462891
					C742.1474609,593.8222656,692.7519531,611.3232422,639.9912109,611.3232422z M636.612793,608.2919922
					c1.1245117,0.0185547,2.2504883,0.03125,3.378418,0.03125c51.5610352,0,99.8603516-16.9355469,139.7861328-48.9960938
					l-0.7333984-0.9023438c-35.0585938,28.0917969-77.0786133,44.7255859-121.703125,48.1777344v0.7441406l-7.2504883-0.3027344
					c-4.8242188,0.2177734-9.1435547,0.2822266-13.4775391,0.2070312V608.2919922z"/>
			</g>
			<g>
				<path class="st0" d="M468.8141785,244.4290924l-0.005249-0.0051117l0.1401062-0.1622467
					c2.3692017-2.8843842,4.8052063-5.7118835,7.3144531-8.4720001l0.0011902-0.001358l0.000061,0.000061
					c2.5605164-2.8164673,5.1980896-5.5612335,7.8986816-8.2426453l-2.7141418-3.1394043
					c-0.2600708,0.2576141-0.526001,0.5071259-0.7850037,0.7661438
					c-40.066803,40.0662994-63.1785583,92.5658722-65.7481995,148.7976227l4.052124-0.094696
					C421.295105,324.8999329,439.616272,280.0458679,468.8141785,244.4290924z"/>
				<path class="st0" d="M413.3442383,375.5073242l0.0732422-1.6054688
					c2.5820312-56.4951172,26.0874023-109.6914062,66.1860352-149.7900391l1.9306641-1.9008789l4.6796875,5.4130859
					l-0.9936523,0.9863281c-2.7407227,2.7211914-5.3803711,5.4755859-7.8457031,8.1875
					c-2.4160156,2.6572266-4.847168,5.4726562-7.2275391,8.3686523l-0.1728516,0.2138672
					c-30.1391602,36.7646484-47.2583008,81.222168-49.5073242,128.5664062l-0.0664062,1.3955078L413.3442383,375.5073242z
					 M481.3608398,226.5976562c-38.96875,39.1450195-61.9614258,90.8564453-64.8671875,145.8354492l1.046875-0.0244141
					c2.5244141-47.0405273,19.5473633-91.2182617,49.2949219-127.9262695l-0.0307617-0.0336914l1.0097656-1.1679688
					c2.3994141-2.9223633,4.8769531-5.7919922,7.3393555-8.5c2.2016602-2.421875,4.5395508-4.8759766,6.9619141-7.3100586
					L481.3608398,226.5976562z"/>
			</g>
			<g>
				<path class="st0" d="M468.8089294,244.4239807l0.005249,0.0051117c0.0454407-0.0554047,0.089386-0.1119995,0.1348572-0.1673584
					L468.8089294,244.4239807z"/>
				<polygon class="st0" points="468.8754883,246.7265625 466.8095703,244.4541016 467.8144531,243.2807617 468.9794922,244.269043 
					469.9189453,243.4150391 469.9238281,243.4204102 468.9853516,244.2734375 470.1025391,245.2211914 				"/>
			</g>
			<g>
				<polygon class="st0" points="476.264679,235.7883759 476.2634888,235.7897339 476.26474,235.7884369 				"/>
			</g>
			<g>
				<path class="st0" d="M497.2479248,242.5118561l6.8693848-6.587677
					C501.7764893,238.0667114,499.4855042,240.2624359,497.2479248,242.5118561z"/>
				<path class="st0" d="M498.2861328,243.5942383l-2.1015625-2.1401367
					c2.2246094-2.2368164,4.5527344-4.4697266,6.9199219-6.6362305l2.0507812,2.1889648L498.2861328,243.5942383z"/>
			</g>
			<g>
				<path class="st0" d="M644.0644531,183.1152191l9.5404053,0.4183502
					C650.4434814,183.3215332,647.2636108,183.1790161,644.0644531,183.1152191z"/>
				<path class="st0" d="M653.5390625,185.0322266l-9.5405273-0.418457l0.0957031-2.9980469
					c3.1523438,0.0629883,6.3857422,0.2045898,9.6113281,0.4213867L653.5390625,185.0322266z"/>
			</g>
			<g>
				<path class="st0" d="M788.9849243,221.0311584l-0.0026245,0.0023956
					c0.0491333,0.0448151,0.0968628,0.0910492,0.1459351,0.1358643L788.9849243,221.0311584z"/>
				<polygon class="st0" points="788.1123047,222.2734375 786.7929688,221.0341797 788.0224609,219.8813477 
					789.0576172,219.0180664 790.171875,220.0922852 789.1259766,221.199707 789.9453125,222.1835938 789.9423828,222.1860352 
					789.1230469,221.2026367 				"/>
			</g>
			<g>
				<path class="st0" d="M797.9232788,229.6524506l-0.3533936-0.3408661c0.1150513,0.116806,0.2288208,0.2349091,0.343689,0.3519745
					L797.9232788,229.6524506z"/>
				<polygon class="st0" points="797.9765625,231.8769531 796.4980469,230.3608398 797.5263672,229.3271484 796.78125,228.6791992 
					797.5332031,229.3198242 798.6132812,228.2329102 799.9882812,229.5629883 				"/>
			</g>
			<g>
				<path class="st0" d="M794.6480103,255.5854645c-1.798645-2.1542358-3.6348877-4.276123-5.5202637-6.35289l-0.000061,0.000061
					L794.6480103,255.5854645z"/>
				<path class="st0" d="M793.5166016,256.5693359l-5.5205078-6.3530273l2.2431641-1.9916992
					c1.8076172,1.9926758,3.6787109,4.1459961,5.5605469,6.3994141L793.5166016,256.5693359z"/>
			</g>
			<g>
				<path class="st0" d="M861.2744141,385.5281677l-0.0081177-0.3888855c-0.0003662,0.130188-0.0043335,0.259491-0.0049438,0.389679
					L861.2744141,385.5281677z"/>
				<polygon class="st0" points="859.7617188,387.0874023 859.7666016,385.1279297 861.2460938,385.1186523 
					861.2041016,384.0297852 861.2548828,385.1186523 862.7666016,385.1088867 862.8037109,386.9707031 				"/>
			</g>
			<g>
				<path class="st0" d="M861.0395508,374.2750244l-0.0099487,0.0004883
					c0.008728,0.1911621,0.0136719,0.3833008,0.0219116,0.5745544L861.0395508,374.2750244z"/>
				<polygon class="st0" points="861.1044922,375.7734375 861.0585938,374.8676758 859.5537109,374.9189453 
					859.4619141,372.8520508 862.4951172,372.7001953 862.5517578,374.8168945 861.0683594,374.8671875 861.1142578,375.7729492 
									"/>
			</g>
			<g>
				<path class="st0" d="M840.9291992,398.5619507l-0.8046875,8.7844849
					C840.4545898,404.4360352,840.7250977,401.5082397,840.9291992,398.5619507z"/>
				<path class="st0" d="M841.6142578,407.515625l-2.984375-0.3056641l0.8056641-8.7851562l2.9902344,0.2412109
					C842.2236328,401.574707,841.9501953,404.5522461,841.6142578,407.515625z"/>
			</g>
			<g>
				<path class="st0" d="M795.7297974,543.0442505l6.4595337-8.1696777l-0.0099487-0.0108643
					c-2.3486938,2.5316162-4.7549438,5.0083008-7.2182617,7.4280396L795.7297974,543.0442505z"/>
				<path class="st0" d="M795.8720703,545.2822266l-3.0537109-2.9882812l1.0917969-1.0722656
					c2.4326172-2.3886719,4.8447266-4.8710938,7.1699219-7.3789062l1.1601562-1.25l1.8710938,2.2460938l-0.7451172,0.9667969
					L795.8720703,545.2822266z"/>
			</g>
			<g>
				<path class="st0" d="M776.2741089,532.6954956l-9.2935791,8.046814
					C770.1600952,538.1531372,773.2593994,535.4700928,776.2741089,532.6954956z"/>
				<path class="st0" d="M767.9277344,541.9052734l-1.9287109-2.296875l9.2939453-8.046875l1.9970703,2.2373047
					C774.2675781,536.5810547,771.1171875,539.3076172,767.9277344,541.9052734z"/>
			</g>
			<g>
				<path class="st0" d="M632.6487427,585.7886963l-9.7761841-0.5869141
					C626.1102905,585.4755859,629.3696289,585.6704712,632.6487427,585.7886963z"/>
				<path class="st0" d="M632.5947266,587.2880859c-3.2954102-0.1191406-6.6088867-0.3173828-9.8486328-0.5908203
					l0.2163086-2.9921875l9.7763672,0.5869141L632.5947266,587.2880859z"/>
			</g>
			<g>
				<path class="st0" d="M497.4960938,526.7421875l-6.8314209-7.1895142
					C492.8838196,522.0040894,495.1604919,524.4024048,497.4960938,526.7421875z"/>
				<path class="st0" d="M496.4345703,527.8017578c-2.3193359-2.3232422-4.6347656-4.7597656-6.8818359-7.2421875
					l2.1992188-2.0400391l6.831543,7.1894531L496.4345703,527.8017578z"/>
			</g>
			<g>
				<path class="st0" d="M499.3145752,555.1883545l0.0119629-0.0114746
					c-0.1621094-0.1338501-0.3249207-0.2669067-0.4866638-0.4011841L499.3145752,555.1883545z"/>
				<polygon class="st0" points="499.3764648,557.2080078 497.8549805,555.9072266 498.8657227,554.7207031 
					498.2758789,554.1064453 498.2880859,554.0947266 498.8764648,554.7080078 499.800293,553.6230469 501.5805664,555.0917969 				
					"/>
			</g>
			<g>
				<path class="st0" d="M490.8066406,547.7927246l0.1109009,0.0963745
					c-0.0361328-0.032959-0.0713196-0.0668945-0.1073914-0.0999756L490.8066406,547.7927246z"/>
				<polygon class="st0" points="489.9370117,549.0244141 488.6835938,547.9414062 490.6933594,545.6445312 
					491.8251953,546.6845703 491.8222656,546.6875 491.8979492,546.7529297 491.6875,546.9970703 491.9160156,546.7695312 
					490.9291992,547.8935547 491.9389648,548.7763672 490.9262695,547.8964844 				"/>
			</g>
			<g>
				<path class="st0" d="M438.5552368,384.500061c0,0.5623474,0.0166931,1.1207581,0.0213318,1.6820679l0.2784119-12.6166077
					C438.6603394,377.1866455,438.5552368,380.8312073,438.5552368,384.500061z"/>
				<path class="st0" d="M440.0761719,386.215332l-2.9995117-0.0200195l-0.0097656-0.6831055
					c-0.0058594-0.3369141-0.0117188-0.6738281-0.0117188-1.012207c0-3.5849609,0.1015625-7.2910156,0.3017578-11.0151367
					l2.9975586,0.1137695L440.0761719,386.215332z"/>
			</g>
			<g>
				<path class="st0" d="M419.0959167,397.6494141v11.9007568l1.044281,0.0494385
					c-0.4484558-3.9537964-0.7941284-7.9379578-1.0305176-11.9514771L419.0959167,397.6494141z"/>
				<path class="st0" d="M421.8291016,411.1816406l-4.2333984-0.2011719v-14.684082l2.9194336-0.3017578l0.0922852,1.5649414
					c0.230957,3.9277344,0.5751953,7.9213867,1.0229492,11.8710938L421.8291016,411.1816406z"/>
			</g>
			<g>
				<polygon class="st0" points="782.09021,247.6305084 799.8762817,229.663559 802.6174927,232.1623993 785.1600952,249.2325745 
									"/>
				<path class="st0" d="M785.4306641,251.0654297l-5.8369141-3.0454102l20.2285156-20.4345703l4.9794922,4.5390625
					L785.4306641,251.0654297z M784.5859375,247.2407227l0.3037109,0.1586914l15.5429688-15.1987305l-0.5029297-0.4589844
					L784.5859375,247.2407227z"/>
			</g>
			<g>
				<polygon class="st0" points="642.4707642,163.2479095 642.4707642,187.1206055 638.5753174,183.9803467 
					638.5753174,161.1784363 				"/>
				<path class="st0" d="M643.9707031,190.2563477l-6.8955078-5.5585938v-26.0151367l6.8955078,3.6640625V190.2563477z
					 M640.0751953,183.2631836l0.8955078,0.7216797v-19.8354492l-0.8955078-0.4755859V183.2631836z"/>
			</g>
			<g>
				<polygon class="st0" points="484.1634216,227.5457916 498.1886902,241.5710907 494.6086426,245.2157593 
					480.5632324,231.1703644 				"/>
				<path class="st0" d="M494.6176758,247.3466797l-16.171875-16.1728516l5.7143555-5.7529297l16.1401367,16.1411133
					L494.6176758,247.3466797z M482.6811523,231.1669922l11.9179688,11.9179688l1.4775391-1.5043945l-11.909668-11.909668
					L482.6811523,231.1669922z"/>
			</g>
			<g>
				<polygon class="st0" points="418.7434692,387.2793579 438.5765686,387.2793579 438.7051086,391.9596558 
					418.7434692,391.9596558 				"/>
				<path class="st0" d="M440.246582,393.4594727h-23.0029297v-7.6801758h22.7924805L440.246582,393.4594727z
					 M420.2436523,390.4594727h16.9199219l-0.0463867-1.6801758h-16.8735352V390.4594727z"/>
			</g>
			<g>
				<polygon class="st0" points="482.9207764,540.2084351 496.9548035,526.1743774 500.7072754,529.8863525 
					485.3526917,545.2409668 				"/>
				<path class="st0" d="M484.9204102,547.7949219l-3.8139648-7.8935547l15.8422852-15.8417969l5.8857422,5.8212891
					L484.9204102,547.7949219z M484.7353516,540.5146484l1.0493164,2.1728516l12.7958984-12.7949219l-1.6201172-1.6025391
					L484.7353516,540.5146484z"/>
			</g>
			<g>
				<polygon class="st0" points="642.9036255,585.8995972 642.9036255,605.7608032 638.5753174,605.7608032 
					638.5753174,585.2017822 				"/>
				<path class="st0" d="M644.4038086,607.2607422h-7.3286133v-23.8193359l7.3286133,1.1806641V607.2607422z
					 M640.0751953,604.2607422h1.3286133v-17.0839844l-1.3286133-0.2138672V604.2607422z"/>
			</g>
		</g>
		<path class="st0" d="M512.2341309,517.7796631c0,0,0.0723877,0.2424316,0.2282104,0.6860352
			c13.7600708,12.8357544,29.4754639,23.5977783,46.6512451,31.7787476
			C543.6558228,541.8956299,523.0405884,529.5177002,512.2341309,517.7796631z"/>
		<path class="st0" d="M516.1615601,506.3493042c0,0,17.508606,34.6869507,81.5969238,51.8652344
			C597.7584839,558.2145386,542.2593384,535.0899048,516.1615601,506.3493042z"/>
		<path class="st0" d="M516.1615601,506.3493042c0,0,17.508606,34.6869507,81.5969238,51.8652344
			C597.7584839,558.2145386,542.2593384,535.0899048,516.1615601,506.3493042z"/>
		<path class="st0" d="M516.1615601,506.3493042c0,0,17.508606,34.6869507,81.5969238,51.8652344
			C597.7584839,558.2145386,542.2593384,535.0899048,516.1615601,506.3493042z"/>
		<path class="st0" d="M506.9042969,514.9782715c0,0,18.9749756,37.592041,88.4307861,56.2090454
			C595.335083,571.1873169,535.1878052,546.1259155,506.9042969,514.9782715z"/>
		<path class="st0" d="M588.1585693,347.2450562c-4.25-2.5645142-9.1755981-4.7214661-13.9175415-4.8988037
			c0,0-2.1286621-0.2468872-5.418396,0.1821289C576.1583862,341.8687744,582.8703003,344.2702942,588.1585693,347.2450562z"/>
		<path class="st0" d="M554.5016479,347.9867859c5.3328247-3.6022949,10.5785522-4.9702759,14.3209839-5.4584045
			C564.2271729,342.9415588,559.3880615,344.5564575,554.5016479,347.9867859z"/>
		<path class="st0" d="M720.3563232,344.8807068c3.0023193,1.2129211,5.7085571,2.7432251,8.0224609,4.2861633
			C725.6372681,347.1907043,722.9008179,345.8218384,720.3563232,344.8807068z"/>
		<path class="st0" d="M554.5016479,347.9867859c-2.3910522,1.6152344-4.7992554,3.6755676-7.0968018,6.3135071
			C549.7665405,351.7247009,552.1395264,349.6450195,554.5016479,347.9867859z"/>
		<path class="st0" d="M588.1585693,347.2450562c6.6571655,4.0169678,11.6522217,9.0367126,11.6522217,9.0367126
			S595.2733765,351.2471619,588.1585693,347.2450562z"/>
		<path class="st0" d="M720.3563232,344.8807068c-9.9190674-4.0072937-23.0571289-4.5450439-35.8615723,9.4195862
			c0,0,0.0709839,0.09552,0.2020264,0.2631836c4.4348755-3.8670959,14.0899658-11.3072205,23.0800171-11.6433716
			C707.7767944,342.920105,713.324646,342.2799683,720.3563232,344.8807068z"/>
		<path class="st0" d="M664.7241211,494.950592c0,0-12.4473877-17.741272-21.5327148-6.7244568
			c0,0-8.5128784-9.0136719-16.0958862,1.2875977c0,0-5.8659668,11.0167542-19.8872681,11.0167542
			c0,0,33.6223755,39.9176331,71.9663086,0C679.1745605,500.5304871,668.3010254,499.8151245,664.7241211,494.950592z
			 M623.947998,507.111908h38.2008057C662.1488037,507.111908,643.8352661,517.413269,623.947998,507.111908z"/>
		<path class="st0" d="M651.0271606,457.8755798c-1.2866821,0.8234558-2.3689575,1.9230042-3.2406616,3.17276
			c-0.5112915,0.7332153-0.9428711,1.52005-1.3163452,2.3313293c-0.3219604,0.6994934-0.5588989,2.4672852-1.0665894,2.9555359
			c3.8157959-3.6705627,9.4207153-1.3899841,14.0099487-1.7240295c2.8290405-0.2058411,5.6920776-1.0784302,7.8201294-2.9537964
			c5.0137329-4.4185486,2.4802856-11.8230591,0.0597534-16.9258118c0.845459,1.7823486,0.28479,5.4773254,0.0645752,7.3383789
			c-0.3314209,2.8011475-2.8264771,7.0602722-6.2693481,5.8114624c-1.8751221-0.6800232-2.4790039-1.9694824-4.7110596-1.8426208
			C654.5244751,456.1441956,652.5822754,456.8804321,651.0271606,457.8755798z"/>
		<path class="st0" d="M619.1431274,461.6573792c2.1280518,1.8753662,4.991272,2.7479553,7.8201294,2.9537964
			c4.5892334,0.3340454,10.1942139-1.9465332,14.0100708,1.7240295c-0.5076904-0.4882507-0.744751-2.2560425-1.0667114-2.9555359
			c-0.3734741-0.8112793-0.8050537-1.598114-1.3164673-2.3313293c-0.8716431-1.2497559-1.9539185-2.3493042-3.2404785-3.17276
			c-1.5552368-0.9951477-3.4973145-1.7313843-5.3503418-1.836792c-2.2321167-0.1268616-2.8361206,1.1625977-4.7112427,1.8426208
			c-3.442749,1.2488098-5.9377441-3.0103149-6.2692871-5.8114624c-0.2200928-1.8610535-0.7809448-5.5560303,0.0645142-7.3383789
			C616.6627808,449.8343201,614.1294556,457.2388306,619.1431274,461.6573792z"/>
		<path class="st0" d="M553.3502808,360.5231628c1.2572021,1.1162415,2.6593018,2.2435608,4.1610107,3.2581177l0.0248413-0.0210266
			C555.982605,362.7016602,554.5801392,361.5938416,553.3502808,360.5231628z"/>
		<path class="st0" d="M571.1119385,359.9432373c2.9901733,0.1841736,5.5635376-2.0906067,5.7476807-5.0808105
			s-2.0906372-5.5635376-5.0808105-5.7477722c-2.9901733-0.184082-5.5634766,2.0906982-5.7476807,5.0809021
			C565.8469238,357.1856995,568.1217041,359.7590332,571.1119385,359.9432373z"/>
		<path class="st0" d="M561.8555298,360.1028137c0,0-2.9378662-7.2937317,1.2588501-11.6416931
			c0,0,6.8724365-7.0959473,14.7605591-0.9876099c0,0,5.0487061,4.9172668,2.5410767,11.5368652
			c0,0-3.7827759,9.7249451-15.3307495,4.7461243l-0.7573242,0.6561584c-0.262146-0.0299988-0.423584-0.0412903-0.423584-0.0412903
			c-0.6126099,0.8270874-1.3029175,1.4559021-2.0236206,1.9560547c6.3013916,3.168457,14.267395,4.7851868,23.0991821,1.0823364
			c-0.1292725,0.0004272-0.2646484,0.002594-0.3921509,0.0024414c1.5579834-0.6457214,3.1587524-1.4615173,4.7888794-2.4949036
			c0,0,7.2729492-5.2233276,10.4341431-8.6355286c0,0-4.9950562-5.0197449-11.6522217-9.0367126
			c-5.288269-2.974762-12.0001831-5.3762817-19.3359375-4.7166748c-3.7424316,0.4881287-8.9881592,1.8561096-14.3209839,5.4584045
			c-2.3621216,1.6582336-4.7351074,3.737915-7.0968018,6.3135071c0,0,2.3792114,3.0567017,5.9454346,6.2228699
			c1.2298584,1.0706787,2.6323242,2.1784973,4.1858521,3.2370911L561.8555298,360.1028137z"/>
		<path class="st0" d="M724.6043701,366.2087402c-0.5994873-0.3579407-0.9555054-0.618103-0.9555054-0.618103
			c-0.2584229-0.0861511-0.5365601-0.1361084-0.8218384-0.1703186c0.2055054-0.1198425,0.4052734-0.2498779,0.6079712-0.375061
			c-1.6609497,0.2771606-3.2837524,0.9248657-4.0925903,1.2835999l-2.2846069-1.9796143
			c-11.5479126,4.9788513-15.3306885-4.7460632-15.3306885-4.7460632
			c-2.5076294-6.6196899,2.5410156-11.5369568,2.5410156-11.5369568c7.8882446-6.1082764,14.760498,0.9877319,14.760498,0.9877319
			c4.1967773,4.3479309,1.2589722,11.641571,1.2589722,11.641571l4.2752686,3.6202087
			c5.7335815-3.8904724,10.0502319-9.4415588,10.0502319-9.4415588c-2.0214233-2.3208313-4.1286011-4.1895142-6.234314-5.7073059
			c-2.3139038-1.5429382-5.0201416-3.0732422-8.0224609-4.2861633c-7.0316772-2.6007385-12.5795288-1.9606018-12.5795288-1.9606018
			c-8.9900513,0.3361511-18.6451416,7.7762756-23.0800171,11.6433716
			C686.6884155,357.110199,703.4639282,377.3725281,724.6043701,366.2087402z"/>
		<path class="st0" d="M727.3527832,364.591217c0.6526489-0.4237976,1.3084717-0.8748474,1.9682617-1.3618774l-3.086853,0.5144958
			L727.3527832,364.591217z"/>
		<path class="st0" d="M710.3642578,349.707489c-2.9902344,0.1841431-5.2650146,2.7575073-5.0807495,5.7476807
			c0.184021,2.9902649,2.7573242,5.2650452,5.7476807,5.0808105c2.9902344-0.1841431,5.2649536-2.7574463,5.0806885-5.7476807
			C715.9278564,351.7981262,713.3545532,349.5233459,710.3642578,349.707489z"/>
		<path class="st0" d="M732.3284912,368.3607788l-4.975708-3.7695618c-0.923645,0.5997009-1.8400269,1.1377869-2.7484131,1.6175232
			C726.1016235,367.1025391,729.1635132,368.6244812,732.3284912,368.3607788z"/>
		<path class="st0" d="M547.4048462,354.300293c0,0,2.1641235,2.9311218,5.9454346,6.2228699
			C549.7840576,357.3569946,547.4048462,354.300293,547.4048462,354.300293z"/>
		<path class="st0" d="M589.3766479,364.9172974c-1.630127,1.0333862-3.230896,1.8491821-4.7888794,2.4949036
			c0.1275024,0.0001526,0.2628784-0.0020142,0.3921509-0.0024414c4.7365723-1.9858704,9.72052-5.495636,14.8308716-11.1279907
			C596.6495972,359.6939697,589.3766479,364.9172974,589.3766479,364.9172974z"/>
		<path class="st0" d="M734.6130981,354.874176c0,0-4.3166504,5.5510864-10.0502319,9.4415588l0.7164307,0.60672
			c-0.5933228-0.0369568-1.2211304,0.0188293-1.8442993,0.1228027c-0.2026978,0.1251831-0.4024658,0.2552185-0.6079712,0.375061
			c0.2852783,0.0342102,0.5634155,0.0841675,0.8218384,0.1703186c0,0,0.3560181,0.2601624,0.9555054,0.618103
			c0.9083862-0.4797363,1.8247681-1.0178223,2.7484131-1.6175232l-1.1185913-0.8473816l3.086853-0.5144958
			c2.4848633-1.8346252,5.0162964-4.1223145,7.5796509-6.9475708c0,0-3.2341919-3.5887451-8.5219116-7.1148987
			C730.4844971,350.6846619,732.5916748,352.5533447,734.6130981,354.874176z"/>
		<path class="st0" d="M724.5628662,364.3157349c-0.3705444,0.2514343-0.7463379,0.4940491-1.1278687,0.7295227
			c0.6231689-0.1039734,1.2509766-0.1597595,1.8442993-0.1228027L724.5628662,364.3157349z"/>
		<path class="st0" d="M553.4122925,367.6144104c0,0,4.7008667,1.3279114,8.4684448-1.2869873
			c-1.5535278-0.7810669-3.0056152-1.6547852-4.3446045-2.5671692l-0.0248413,0.0210266
			c0.0425415,0.028717,0.083313,0.0592957,0.1259766,0.0878601c-0.0986328,0.0485535-0.1948242,0.0863647-0.2931519,0.1329956
			C557.305542,364.7929993,556.4542847,365.9630432,553.4122925,367.6144104z"/>
		<path class="st0" d="M557.5112915,363.7812805l-0.1634521,0.1384583c0.0005493,0.0265808-0.0022583,0.0548096-0.0037231,0.0823975
			c0.0983276-0.0466309,0.194519-0.0844421,0.2931519-0.1329956
			C557.5946045,363.8405762,557.553833,363.8099976,557.5112915,363.7812805z"/>
		<path class="st0" d="M546.9474487,264.4572449c-0.1113281,0.2478333-0.2045288,0.5071716-0.2564087,0.7895813
			C546.7764893,264.9836426,546.8619995,264.7204285,546.9474487,264.4572449z"/>
		<path class="st0" d="M838.9838867,381.9876099c0-1.7955017-0.0263062-3.5847473-0.0737305-5.3690186
			c-5.0055542-11.1242676-17.7340088-36.5751343-36.3563232-54.12677c0,0-31.7698975-27.1728821-35.958252-45.347168
			l1.7823486-3.5909424l59.8502197,53.2255859l6.3816528,13.567749c-1.2858887-6.052948-2.8408813-12.0074768-4.6644287-17.8452454
			c-15.4545898-14.6853638-46.4984131-44.3305969-63.3497925-61.4373169c0,0,34.2038574,15.0078125,41.8823853,22.6861877
			c0,0-27.9216919-27.2234802-31.7608032-38.7410431c0,0,10.4055786,8.3808899,15.4338989,8.5721893
			c-2.1223755-2.5254974-4.3238525-4.9809418-6.5661621-7.3978424l-17.6843872-6.414032l15.5142822,23.5205841l-23.390686-7.8764648
			l9.0698853,13.6047363l-1.6708374,0.7160645c-20.5264282-6.205658-33.8925171-16.4689178-33.8925171-16.4689178
			l1.4321289,13.1273956c-1.6707764-1.1934204-3.5803223-12.6500549-3.5803223-12.6500549
			c-11.93396,11.6953125-1.5186768,30.5510254-1.5186768,30.5510254l-3.9708862-0.7160645
			c2.246521,8.8644409,3.9708862,28.1642456,3.9708862,28.1642456
			c-16.7941284,2.8641357-28.8353882-33.8925171-28.8353882-33.8925171
			c-30.7502441-1.7375793-60.8175049-22.9132538-60.817627-22.913147
			c-14.6546631,14.030304-35.1737671,23.6878357-55.7859497,20.5095215c0.4381104,1.280426,0.069519,2.6808777-0.3002319,3.9827271
			c-1.1190186,3.9396362-2.2149048,7.9376526-4.7680054,11.1911621c-3.8171387,4.8643494-8.34375,9.098114-12.6899414,13.4850769
			c-0.8280029,0.8358459-1.8493042,1.7401428-3.0119019,1.5596313c-1.5306396-0.2376404-2.119873-2.1025391-2.3267822-3.6376038
			c-1.4071655-10.4367065,0.0119019-21.2075195-2.439209-31.4494629c-0.7263184-3.0348206-1.9710083-6.2244263-4.6403198-7.8409119
			c-2.423584-1.4676819-6.2025757-0.7252502-7.3009644,1.7202759c-0.0854492,0.2631836-0.1709595,0.5263977-0.2564087,0.7895813
			c0.0518799-0.2824097,0.1450806-0.541748,0.2564087-0.7895813c0.4970093-1.5308838,0.9939575-3.0617065,1.4910278-4.5925598
			c-2.7055664-2.5187683-7.1303711-2.3364258-10.3488159-0.5181885s-5.4797363,4.921814-7.5143433,8.0080566
			c-2.0346069,3.0862122-4.005127,6.3172607-6.899292,8.6168823c-0.8134155,0.6463623-1.9814453,1.2165527-2.8311157,0.6186218
			c-0.5241699-0.368866-0.7053223-1.0510864-0.8361206-1.6785889c-1.3862915-6.6538086-1.2379761-13.6225281,0.4301147-20.2113342
			c-5.3597412,1.5090332-10.7195129,3.0180664-16.0793152,4.5271606c0.4777222-1.862854,1.8179626-3.3634491,3.1138916-4.7842865
			c3.354126-3.6774445,6.7082825-7.3548279,10.0624695-11.0322266c-2.5230103-0.0658264-5.1126709-0.1452332-7.4431763-1.1140289
			c-2.3304749-0.9687958-4.3791199-3.0395355-4.5635376-5.5566101c-5.9985962,5.5730286-11.9972229,11.1460876-17.9957886,16.719162
			c6.2980347-3.2707672,12.2470093-7.2130432,17.713562-11.7385101c1.5758362,2.1914062,4.363678,3.4477997,7.0491943,3.1768188
			c-3.2175903,3.1864624-6.4351807,6.3729095-9.6528015,9.5593719c-0.8266907,0.8187103-1.6812134,1.6813812-2.0429077,2.7872162
			c-0.3025818,0.9251709-0.2305908,1.9417725-0.5412292,2.8642883c-0.43573,1.2939453-1.5507202,2.2207642-2.6146545,3.076416
			c-4.3425598,3.4924316-8.6850586,6.9848938-13.0276184,10.477356
			c10.3561707-6.3655396,21.0533142-12.8618469,33.048584-14.8325806
			c-1.9092407,11.0671082-10.6899109,19.4749756-18.9908752,27.0393372
			c-11.1756287,10.1838989-22.3512573,20.3677673-33.5269165,30.5516663
			c-5.999115,5.4667664-12.0506592,10.9925232-16.7077637,17.6397705
			c-4.6571045,6.6473083-7.868042,14.6054077-7.4553833,22.7112732c6.7478333-17.6138,20.2161865-31.7755432,34.3891907-44.2215881
			c9.0119324-7.9137878,18.4424133-15.3444214,27.2866516-23.4502869c4.294342-3.935791,8.1677246-9.5327148,12.8014832-12.929657
			c2.5270996-1.8526306,2.2623901-0.1253357,2.6091309,2.436676c0.2027588,1.4980774,0.4061279,2.9960022,0.6091309,4.4940491
			c-14.3463135,18.7754517-54.4189758,64.1441345-54.4189758,64.1441345
			c-15.4267883,17.8803711-21.898407,35.3247681-24.5342712,45.284668
			c0.4219055,8.0160828,1.3093262,15.9109192,2.6497498,23.6533813
			c-0.1062317-16.7007751,3.6994019-33.0666809,12.1413574-46.9238281
			c14.5673218-23.9117432,34.8043823-44.8383179,53.9970703-65.0492249
			c6.8445129-7.2076721,14.0180359-13.3858337,18.9425964-22.1403198
			c4.4967041-7.9938354,8.9934082-16.7628174,17.1314087-20.9930725c-0.9326782,4.4573975-1.8653564,8.9147339-2.7980347,13.3721008
			c4.3726196-1.872345,7.9458008-5.5367737,9.7073364-9.9552002c-0.7437744,1.8654785,0.2642212,5.9024353-0.0856934,8.110199
			c-0.4071655,2.5686646-1.2406006,4.9841614-2.2015991,7.3901978c-1.3818359,3.4598999-2.9761963,6.8974609-4.9958496,10.0391235
			c0,0,7.3151855-1.7417297,7.329834-1.7441711c2.9182739-0.4838867,1.3344727,11.0205688,1.05896,12.4645691
			c-1.3526001,7.0877686-4.3859253,14.1867676-7.6826172,20.5666504
			c-4.1317139,7.9958496-9.4202271,15.394104-15.6534424,21.8868103
			c-6.4085083,6.6753845-14.1386719,11.7173462-20.7386475,18.180542
			c-13.9895935,13.699585-26.0346985,30.1464233-32.5729065,48.7380981
			c-17.184906,48.3797302,21.8356018,100.7171326,21.8356018,100.7171326
			c-8.8285522-3.9564819-16.8132935-9.6736755-23.8014221-16.6481323
			c8.4211731,12.3678589,18.1968384,23.7399292,29.1045227,33.914917c-0.1688538-0.4807739-0.2472839-0.7435913-0.2472839-0.7435913
			c11.7115173,12.7211304,34.0533142,26.1358032,50.8056946,35.1838379
			c25.9764404,12.3728027,55.0204468,19.3101196,85.6572266,19.3101196c68.0526733,0,128.2592163-34.1951294,164.3709717-86.2961426
			c-7.2236938,5.2285156-14.7983398,10.0470581-19.1483154,16.1923523
			c5.9537354-10.2359619,10.930603-21.1627502,15.2949829-32.1536255
			c6.5560303-16.5101318,12.7523193-34.1474609,12.3711548-52.1522827
			c-0.3704834-17.4964905-10.5060425-32.5128479-21.256897-45.7325439
			c-23.9899902-29.4989624-53.8575439-54.2296753-61.1425171-93.4274597
			c-0.0006714-0.0021973,7.3287354,1.7429199,7.3287354,1.7429199s-9.423584-14.6588135-7.3294067-25.478363
			c0,0,5.2352295,9.772522,9.772644,9.772522l-2.7923584-13.2627563c0,0,3.1741943,5.3690186,7.1228638,11.2753601
			l-2.0570068-10.0040894l20.5265503,12.411377h-3.5802002c4.2252197,9.8095093,24.8227539,35.8019714,24.8227539,35.8019714
			c27.9254761,27.6868286,48.4519653,61.293335,48.4519653,61.293335c5.6116333,8.7545471,5.359375,30.3457642,4.9876709,39.2781067
			C838.250061,401.6073608,838.9838867,391.8820496,838.9838867,381.9876099z M492.4396362,393.4339905
			c2.1676025-4.5720215,4.8573303-8.8971863,8.0012512-12.8617859c6.9973755-8.8240356,16.3460388-14.2220764,25.134491-21.0047913
			c6.8187256-5.2625122,16.0366821-18.1932983,16.7728271-26.8209534
			c-1.3482666,15.8018799-11.6639404,27.9040222-22.4992676,38.5759888
			c-11.5372314,11.3632507-22.4478149,22.7486267-32.1221619,35.7457886
			C490.0793762,403.9075012,490.6445007,397.220459,492.4396362,393.4339905z M506.9042969,514.9782715
			c28.2835083,31.147644,88.4307861,56.2090454,88.4307861,56.2090454
			C525.8792725,552.5703125,506.9042969,514.9782715,506.9042969,514.9782715z M517.6846924,515.4992676
			c0,0-50.1983643-47.8155212-36.2375793-100.5173645c0,0,5.9332886,22.9028625,11.1685791,24.0160828
			c0,0-1.3960876-18.7808533,3.4901733-25.0632324c0,0,3.1411133,49.1903992,17.4510193,62.4638062
			c0,0-17.4510193-59.6715088,4.8861694-97.016571c-4.1257324,6.897644-0.8206787,26.1086121-0.5219727,33.6439819
			c0.864563,21.8039246,3.2463379,45.3884277,12.4354248,65.45755c3.4719238,7.5827332,7.5423584,15.2349548,12.1604614,22.7342834
			c20.6088867,33.4668274,52.1263428,63.8899231,90.0517578,71.5198669
			C632.5722046,572.7384033,592.6633301,583.9070435,517.6846924,515.4992676z M690.2989502,569.133606
			c0,0,60.1473999-25.0614014,88.4309692-56.2090454C778.7299194,512.9245605,759.7548218,550.5166016,690.2989502,569.133606z
			 M761.489563,359.5674133c8.7885132,6.7827148,18.137146,12.1807556,25.1345825,21.0047913
			c3.1438599,3.9645996,5.8336792,8.2897644,8.0012207,12.8617859c1.795105,3.7864685,2.3602905,10.4735107,4.7128296,13.6342468
			c-9.6744385-12.9971619-20.5849609-24.3825378-32.1221313-35.7457886
			c-10.8353882-10.6719666-21.151001-22.7741089-22.4992676-38.5759888
			C745.4528809,341.374115,754.6708374,354.3049011,761.489563,359.5674133z M667.8768311,340.1054382l12.1885376-0.1846924
			c0,0-19.9448242,13.111908-22.1609497,22.530365h4.9862061c0,0,8.3104248,11.4498291,28.8093262,7.9410706
			c0,0-10.5264282-1.6621399-16.8054199-7.2024231c0,0,8.9887085,2.3369446,19.7699585,3.4772034
			c-0.6693726-0.3600769-1.3430176-0.7445679-2.0231934-1.1758423c0,0-7.2730713-5.2232666-10.434082-8.6354675
			c0,0,0.9212036-0.9245605,2.489563-2.2921753c-0.1310425-0.1676636-0.2020264-0.2631836-0.2020264-0.2631836
			c12.8044434-13.9646301,25.9425049-13.4268799,35.8615723-9.4195862c2.5444946,0.9411316,5.2809448,2.3099976,8.0224609,4.2861633
			c5.2877197,3.5261536,8.5219116,7.1148987,8.5219116,7.1148987c-2.5633545,2.8252563-5.0947876,5.1129456-7.5796509,6.9475708
			l0.2373047-0.0395813c0,0,5.3556519,3.3242188,14.5893555,2.9548645c0,0-6.463562-2.5854492-8.1256104-4.9862671
			l4.986145-2.954834c0,0,10.1674194,7.4344788,11.1517944,21.3028259l10.9454346-0.1243591
			c22.3370361,37.3450317,4.8862305,97.016571,4.8862305,97.016571
			c14.3097534-13.273407,17.4508057-62.4638062,17.4508057-62.4638062
			c4.8863525,6.2823792,3.4902344,25.0632324,3.4902344,25.0632324
			c5.2353516-1.1132202,11.1685181-24.0160828,11.1685181-24.0160828
			c13.9608154,52.7018433-36.2374268,100.5173645-36.2374268,100.5173645
			c-74.9786377,68.4077759-114.8876953,57.2391357-114.8876953,57.2391357
			c60.4923096-12.1680298,106.0743408-79.9468079,113.0276489-138.4188843
			c2.1498413-18.0788879,2.7112427-36.7727051,1.1016846-54.9375305
			c0.3504028,139.9150696-120.5135498,194.0327454-120.5135498,194.0327454
			C523.086853,525.3189697,517.3155518,382.1740723,517.3155518,382.1740723l16.4337769-0.1867065
			c-0.3911743-8.3797607,2.1364136-17.4269409,11.8725586-23.9684143c0,0,14.9587402,2.0314026-0.7386475,7.7563477
			c0,0,5.730957,1.4181824,12.4608765-1.7731628c0.0014648-0.0275879,0.0042725-0.0558167,0.0037231-0.0823975l0.1634521-0.1384583
			c-1.501709-1.0145569-2.9038086-2.1418762-4.1610107-3.2581177c-3.781311-3.291748-5.9454346-6.2228699-5.9454346-6.2228699
			c2.2975464-2.6379395,4.7057495-4.6982727,7.0968018-6.3135071c4.8864136-3.4303284,9.7255249-5.0452271,14.3209839-5.4584045
			c3.2897339-0.4290161,5.418396-0.1821289,5.418396-0.1821289c4.7419434,0.1773376,9.6675415,2.3342896,13.9175415,4.8988037
			c7.1148071,4.0021057,11.6522217,9.0367126,11.6522217,9.0367126
			c-5.1103516,5.6323547-10.0942993,9.1421204-14.8308716,11.1279907
			c7.7037964-0.0211182,18.4312134-0.8985901,26.0169678-4.9586487c0,0-6.2789307,6.2789307-16.0666504,8.1257324
			c0,0,16.6207886,3.5088196,28.8093262-8.1257324l4.2475586,1.1080627c0,0-4.6168823-13.6659241-22.1610718-22.8996887h11.8192139
			c0,0-24.746582-14.9586487-69.4379272-11.2652283c0,0,17.5441895-7.7563782,46.538208-4.0628357
			c0,0-2.2160645-5.7249451-36.0116577-5.5403442c0,0,25.4851074-11.2650757,29.3632812-37.673645
			c0,0,35.2730713-0.1846924,53.1865234-21.052948c0,0,27.1472168,19.575531,55.956543,20.6836243
			c0,0,4.9862671,28.8092957,30.4713135,37.1196899c0,0-27.7012939,1.6620789-35.8269043,4.9862366
			c0,0,28.255249-0.738678,47.2767944,4.0628662C739.161438,327.9169006,692.4386597,326.4395142,667.8768311,340.1054382z
			 M725.7650146,337.5489502l-34.7097778,2.8143311C691.0552368,340.3632812,705.12677,332.3893433,725.7650146,337.5489502z
			 M558.2818604,337.5489502c20.6383667-5.1596069,34.7098999,2.8143311,34.7098999,2.8143311L558.2818604,337.5489502z"/>
	</g>
</g>
</svg>
